{
copyright = "Copyright \U00A9 2014, Parker Bennett <parkerbennett.com> with Reserved Font Name <Stackicons-Social>, SIL Open Font License 1.1";
customParameters = (
{
name = vendorID;
value = STAC;
}
);
date = "2014-02-03 22:20:42 +0000";
designer = "Parker Bennett";
designerURL = "http://parkerbennett.com";
familyName = "Stackicons-Social";
featurePrefixes = (
{
automatic = 1;
code = "languagesystem DFLT dflt;\012languagesystem latn dflt;\012";
name = Languagesystems;
}
);
fontMaster = (
{
ascender = 1691;
capHeight = 1467;
customParameters = (
{
name = typoAscender;
value = 1491;
},
{
name = typoDescender;
value = "-431";
},
{
name = typoLineGap;
value = 307;
},
{
name = underlinePosition;
value = "-217";
}
);
descender = "-431";
id = "06D35582-4FA2-40C1-8C5B-DEFCD1A2473F";
userData = {
GSOffsetHorizontal = 24;
GSOffsetProportional = 1;
GSOffsetVertical = "-32";
};
weightValue = 400;
widthValue = 5;
xHeight = 1062;
}
);
glyphs = (
{
glyphname = A;
lastChange = "2014-02-03 19:58:08 -0800";
layers = (
{
layerId = "06D35582-4FA2-40C1-8C5B-DEFCD1A2473F";
name = Regular;
paths = (
{
closed = 1;
nodes = (
"1283.22 1349.12 OFFCURVE",
"1231.03 1366.03 OFFCURVE",
"1185.15 1366.03 CURVE SMOOTH",
"1100.06 1366.03 OFFCURVE",
"1024.32 1322.48 OFFCURVE",
"1005.79 1232.24 CURVE SMOOTH",
"1001.91 1212.14 OFFCURVE",
"987.263 1192.27 OFFCURVE",
"967.017 1191.24 CURVE",
"750.771 1214.65 LINE",
"732.487 1218.77 OFFCURVE",
"712.165 1233.39 OFFCURVE",
"717.447 1261.24 CURVE SMOOTH",
"767.135 1523.21 OFFCURVE",
"1004.07 1602.33 OFFCURVE",
"1216.43 1602.33 CURVE SMOOTH",
"1325 1602.33 OFFCURVE",
"1466.93 1573.45 OFFCURVE",
"1552.54 1491.41 CURVE SMOOTH",
"1661.06 1390.13 OFFCURVE",
"1650.64 1255.06 OFFCURVE",
"1650.64 1107.92 CURVE SMOOTH",
"1650.64 760.854 LINE SMOOTH",
"1650.64 656.406 OFFCURVE",
"1694.08 610.619 OFFCURVE",
"1734.83 554.381 CURVE SMOOTH",
"1749.08 534.064 OFFCURVE",
"1752.32 509.994 OFFCURVE",
"1734.14 495.146 CURVE SMOOTH",
"1688.53 456.995 OFFCURVE",
"1607.54 386.783 OFFCURVE",
"1563.01 347.182 CURVE SMOOTH",
"1547.73 334.44 OFFCURVE",
"1526.4 333.562 OFFCURVE",
"1509.79 342.496 CURVE",
"1435.62 403.998 OFFCURVE",
"1422.36 432.416 OFFCURVE",
"1381.86 490.979 CURVE",
"1259.33 366.393 OFFCURVE",
"1172.62 329 OFFCURVE",
"1013.97 329 CURVE SMOOTH",
"826.113 329 OFFCURVE",
"679.999 444.782 OFFCURVE",
"679.999 676.276 CURVE SMOOTH",
"679.999 857.137 OFFCURVE",
"778.073 980.127 OFFCURVE",
"917.967 1040.41 CURVE SMOOTH",
"1039.01 1093.49 OFFCURVE",
"1208.12 1103.13 OFFCURVE",
"1337.48 1117.63 CURVE",
"1337.48 1146.56 LINE SMOOTH",
"1337.48 1199.63 OFFCURVE",
"1341.7 1262.27 OFFCURVE",
"1310.4 1308.13 CURVE SMOOTH"
);
},
{
closed = 1;
nodes = (
"1337.48 939.128 LINE",
"1176.13 939.128 OFFCURVE",
"1005.6 904.654 OFFCURVE",
"1005.6 714.896 CURVE SMOOTH",
"1005.6 618.424 OFFCURVE",
"1055.73 553.281 OFFCURVE",
"1141.28 553.281 CURVE SMOOTH",
"1203.9 553.281 OFFCURVE",
"1260.32 591.876 OFFCURVE",
"1295.75 654.566 CURVE SMOOTH",
"1339.6 731.776 OFFCURVE",
"1337.48 804.056 OFFCURVE",
"1337.48 890.915 CURVE SMOOTH"
);
},
{
closed = 1;
nodes = (
"1888.41 9.104 OFFCURVE",
"1874.05 16.377 OFFCURVE",
"1880.75 34.394 CURVE SMOOTH",
"1902.84 93.981 OFFCURVE",
"1952.29 227.376 OFFCURVE",
"1928.86 259.755 CURVE SMOOTH",
"1905.44 292.127 OFFCURVE",
"1774.16 275.097 OFFCURVE",
"1715.17 267.459 CURVE SMOOTH",
"1697.28 265.15 OFFCURVE",
"1694.52 282.016 OFFCURVE",
"1710.62 294.229 CURVE SMOOTH",
"1815.38 373.685 OFFCURVE",
"1986.99 350.746 OFFCURVE",
"2006.94 324.138 CURVE SMOOTH",
"2027.03 297.299 OFFCURVE",
"2001.66 111.442 OFFCURVE",
"1903.51 22.738 CURVE SMOOTH"
);
},
{
closed = 1;
nodes = (
"1666 -2 OFFCURVE",
"1413.06 -84 OFFCURVE",
"1195.24 -84 CURVE SMOOTH",
"889.976 -84 OFFCURVE",
"615.087 53.652 OFFCURVE",
"407.053 288.737 CURVE SMOOTH",
"390.72 307.211 OFFCURVE",
"405.295 332.418 OFFCURVE",
"424.924 318.121 CURVE SMOOTH",
"637.507 163.307 OFFCURVE",
"938.784 62.701 OFFCURVE",
"1213.58 62.701 CURVE SMOOTH",
"1390.67 62.701 OFFCURVE",
"1635.8 115.101 OFFCURVE",
"1815.12 210.29 CURVE SMOOTH",
"1844.62 225.941 OFFCURVE",
"1869.35 185.967 OFFCURVE",
"1840.48 159.28 CURVE SMOOTH"
);
}
);
width = 2400;
}
);
unicode = 0041;
},
{
glyphname = g;
layers = (
{
layerId = "06D35582-4FA2-40C1-8C5B-DEFCD1A2473F";
name = Regular;
paths = (
{
closed = 1;
nodes = (
"844.28 1538.54 OFFCURVE",
"760.852 1449.93 OFFCURVE",
"789.372 1350.26 CURVE SMOOTH",
"824.464 1227.6 OFFCURVE",
"1107.38 1264.24 OFFCURVE",
"1265.7 1276.6 CURVE",
"1024.83 963.947 OFFCURVE",
"920.646 845.26 OFFCURVE",
"748.876 657.515 CURVE SMOOTH",
"639.762 538.255 OFFCURVE",
"511.927 450.037 OFFCURVE",
"557.459 233.373 CURVE",
"813.924 271.383 OFFCURVE",
"977.75 214.655 OFFCURVE",
"1155.63 88.053 CURVE SMOOTH",
"1261.66 12.596 OFFCURVE",
"1367.56 -85 OFFCURVE",
"1500.19 -103 CURVE SMOOTH",
"1741.86 -136 OFFCURVE",
"1870.54 59.9 OFFCURVE",
"1820.81 266.709 CURVE",
"1795.29 244.539 OFFCURVE",
"1759.77 210.318 OFFCURVE",
"1710.74 202.902 CURVE SMOOTH",
"1350.63 148.443 OFFCURVE",
"1235.79 453.115 OFFCURVE",
"897.224 475.671 CURVE",
"1100.49 699.71 OFFCURVE",
"1397.71 1026.59 OFFCURVE",
"1533.68 1187.27 CURVE SMOOTH",
"1586.1 1249.2 OFFCURVE",
"1636.21 1304.29 OFFCURVE",
"1682.47 1361.96 CURVE SMOOTH",
"1723.1 1412.59 OFFCURVE",
"1758.19 1462.84 OFFCURVE",
"1734.67 1587.48 CURVE",
"1475.06 1519.46 OFFCURVE",
"1043.57 1518.67 OFFCURVE",
"894.034 1613 CURVE"
);
}
);
width = 2400;
}
);
unicode = 0067;
},
{
glyphname = ellipsis;
lastChange = "2014-02-02 01:25:04 -0800";
layers = (
{
layerId = "06D35582-4FA2-40C1-8C5B-DEFCD1A2473F";
name = Regular;
paths = (
{
closed = 1;
nodes = (
"436.972 455.255 OFFCURVE",
"336 354.283 OFFCURVE",
"336 228.794 CURVE SMOOTH",
"336 103.305 OFFCURVE",
"436.972 2.33322 OFFCURVE",
"562.461 2.33322 CURVE SMOOTH",
"687.95 2.33322 OFFCURVE",
"788.922 103.305 OFFCURVE",
"788.922 228.794 CURVE SMOOTH",
"788.922 354.283 OFFCURVE",
"687.95 455.255 OFFCURVE",
"562.461 455.255 CURVE SMOOTH"
);
},
{
closed = 1;
nodes = (
"1074.51 455.255 OFFCURVE",
"973.539 354.284 OFFCURVE",
"973.539 228.794 CURVE SMOOTH",
"973.539 103.307 OFFCURVE",
"1074.51 2.33322 OFFCURVE",
"1200 2.33322 CURVE SMOOTH",
"1325.49 2.33322 OFFCURVE",
"1426.46 103.307 OFFCURVE",
"1426.46 228.794 CURVE SMOOTH",
"1426.46 354.284 OFFCURVE",
"1325.49 455.255 OFFCURVE",
"1200 455.255 CURVE SMOOTH"
);
},
{
closed = 1;
nodes = (
"1712.05 455.255 OFFCURVE",
"1611.08 354.284 OFFCURVE",
"1611.08 228.794 CURVE SMOOTH",
"1611.08 103.307 OFFCURVE",
"1712.05 2.33322 OFFCURVE",
"1837.54 2.33322 CURVE SMOOTH",
"1963.03 2.33322 OFFCURVE",
"2064 103.307 OFFCURVE",
"2064 228.794 CURVE SMOOTH",
"2064 354.284 OFFCURVE",
"1963.03 455.255 OFFCURVE",
"1837.54 455.255 CURVE SMOOTH"
);
}
);
width = 2400;
}
);
unicode = 2026;
},
{
glyphname = guilsinglleft;
lastChange = "2013-12-04 21:26:31 -0800";
layers = (
{
layerId = "06D35582-4FA2-40C1-8C5B-DEFCD1A2473F";
name = Regular;
paths = (
{
closed = 1;
nodes = (
"1248 1478 LINE",
"608 768 LINE",
"1248 58 LINE",
"1389.22 185.159 LINE",
"864 768 LINE",
"1389.22 1350.85 LINE"
);
}
);
width = 2028;
}
);
unicode = 2039;
},
{
glyphname = guilsinglright;
lastChange = "2013-12-04 21:26:43 -0800";
layers = (
{
layerId = "06D35582-4FA2-40C1-8C5B-DEFCD1A2473F";
name = Regular;
paths = (
{
closed = 1;
nodes = (
"778 1478 LINE",
"636.78 1350.84 LINE",
"1162 768 LINE",
"636.78 185.162 LINE",
"778 58 LINE",
"1418 768 LINE"
);
}
);
width = 2028;
}
);
unicode = 203A;
},
{
glyphname = greater;
layers = (
{
layerId = "06D35582-4FA2-40C1-8C5B-DEFCD1A2473F";
name = Regular;
paths = (
{
closed = 1;
nodes = (
"778 1478 LINE",
"636.78 1350.84 LINE",
"1162 768 LINE",
"636.78 185.162 LINE",
"778 58 LINE",
"1418 768 LINE"
);
}
);
width = 2028;
}
);
unicode = 003E;
},
{
glyphname = less;
layers = (
{
layerId = "06D35582-4FA2-40C1-8C5B-DEFCD1A2473F";
name = Regular;
paths = (
{
closed = 1;
nodes = (
"1248 1478 LINE",
"608 768 LINE",
"1248 58 LINE",
"1389.22 185.159 LINE",
"864 768 LINE",
"1389.22 1350.85 LINE"
);
}
);
width = 2028;
}
);
unicode = 003C;
},
{
glyphname = multiply;
lastChange = "2013-09-05 16:56:31 -0800";
layers = (
{
layerId = "06D35582-4FA2-40C1-8C5B-DEFCD1A2473F";
name = Regular;
paths = (
{
closed = 1;
nodes = (
"1200 685.826 LINE",
"869.258 1016.65 LINE SMOOTH",
"825.578 1060.35 OFFCURVE",
"754.758 1060.35 OFFCURVE",
"711.079 1016.65 CURVE SMOOTH",
"667.399 972.971 OFFCURVE",
"667.397 902.131 OFFCURVE",
"711.079 858.433 CURVE SMOOTH",
"1041.81 527.605 LINE",
"711.079 196.776 LINE SMOOTH",
"667.399 153.085 OFFCURVE",
"667.397 82.2457 OFFCURVE",
"711.079 38.5553 CURVE SMOOTH",
"754.758 -5 OFFCURVE",
"825.578 -5 OFFCURVE",
"869.259 38.5553 CURVE SMOOTH",
"1200 369.383 LINE",
"1530.74 38.5553 LINE SMOOTH",
"1574.42 -5 OFFCURVE",
"1645.24 -5 OFFCURVE",
"1688.92 38.5553 CURVE SMOOTH",
"1732.6 82.247 OFFCURVE",
"1732.6 153.087 OFFCURVE",
"1688.92 196.776 CURVE SMOOTH",
"1358.19 527.605 LINE",
"1688.92 858.433 LINE SMOOTH",
"1732.6 902.118 OFFCURVE",
"1732.6 972.958 OFFCURVE",
"1688.92 1016.65 CURVE SMOOTH",
"1645.24 1060.35 OFFCURVE",
"1574.42 1060.35 OFFCURVE",
"1530.74 1016.65 CURVE SMOOTH"
);
},
{
closed = 1;
nodes = (
"599.114 1615.61 OFFCURVE",
"112 1128.37 OFFCURVE",
"112 527.326 CURVE SMOOTH",
"112 -74 OFFCURVE",
"599.114 -560 OFFCURVE",
"1200 -560 CURVE SMOOTH",
"1800.89 -560 OFFCURVE",
"2288 -74 OFFCURVE",
"2288 527.326 CURVE SMOOTH",
"2288 1128.37 OFFCURVE",
"1800.89 1615.61 OFFCURVE",
"1200 1615.61 CURVE SMOOTH"
);
},
{
closed = 1;
nodes = (
"719.502 -337 OFFCURVE",
"329.346 50.1442 OFFCURVE",
"329.346 527.609 CURVE SMOOTH",
"329.346 1005.08 OFFCURVE",
"719.502 1392.13 OFFCURVE",
"1200 1392.13 CURVE SMOOTH",
"1680.5 1392.13 OFFCURVE",
"2070.02 1005.08 OFFCURVE",
"2070.02 527.609 CURVE SMOOTH",
"2070.02 50.1442 OFFCURVE",
"1680.5 -337 OFFCURVE",
"1200 -337 CURVE SMOOTH"
);
}
);
width = 2400;
}
);
unicode = 00D7;
},
{
glyphname = plus;
layers = (
{
layerId = "06D35582-4FA2-40C1-8C5B-DEFCD1A2473F";
name = Regular;
paths = (
{
closed = 1;
nodes = (
"1385 1441 LINE",
"1017 1441 LINE",
"1017 953 LINE",
"529 953 LINE",
"529 585 LINE",
"1017 585 LINE",
"1017 97 LINE",
"1385 97 LINE",
"1385 585 LINE",
"1873 585 LINE",
"1873 953 LINE",
"1385 953 LINE"
);
}
);
width = 2400;
}
);
unicode = 002B;
},
{
glyphname = arrowdown;
layers = (
{
layerId = "06D35582-4FA2-40C1-8C5B-DEFCD1A2473F";
name = Regular;
paths = (
{
closed = 1;
nodes = (
"1305.8 733.428 OFFCURVE",
"1205.56 733.428 OFFCURVE",
"1130.38 671.923 CURVE",
"954.954 482.85 LINE",
"970.901 567.127 LINE",
"970.901 1170.85 LINE SMOOTH",
"970.901 1266.54 OFFCURVE",
"895.716 1344 OFFCURVE",
"800.17 1341.76 CURVE",
"704.345 1344 OFFCURVE",
"629.164 1266.54 OFFCURVE",
"629.164 1170.85 CURVE SMOOTH",
"629.164 567.127 LINE",
"645.112 482.85 LINE",
"469.686 671.923 LINE",
"394.943 733.428 OFFCURVE",
"294.614 733.428 OFFCURVE",
"229.384 662.794 CURVE",
"166.384 592.185 OFFCURVE",
"174.384 487.383 OFFCURVE",
"244.384 421.321 CURVE SMOOTH",
"747.631 -82 LINE",
"774.162 -106 OFFCURVE",
"825.904 -106 OFFCURVE",
"852.43 -82 CURVE",
"1356.3 421.321 LINE SMOOTH",
"1424.3 489.722 OFFCURVE",
"1433.3 592.185 OFFCURVE",
"1372.3 662.794 CURVE"
);
}
);
width = 1600.77;
}
);
unicode = 2193;
},
{
glyphname = arrowleft;
lastChange = "2013-11-02 08:13:45 -0800";
layers = (
{
layerId = "06D35582-4FA2-40C1-8C5B-DEFCD1A2473F";
name = Regular;
paths = (
{
closed = 1;
nodes = (
"912.388 28.5808 OFFCURVE",
"912.388 128.822 OFFCURVE",
"850.883 204.008 CURVE",
"661.81 379.43 LINE",
"746.087 363.483 LINE",
"1349.81 363.483 LINE SMOOTH",
"1445.5 363.483 OFFCURVE",
"1522.96 438.668 OFFCURVE",
"1520.72 534.214 CURVE",
"1522.96 630.039 OFFCURVE",
"1445.5 705.22 OFFCURVE",
"1349.81 705.22 CURVE SMOOTH",
"746.087 705.22 LINE",
"661.81 689.272 LINE",
"850.883 864.698 LINE",
"912.388 939.441 OFFCURVE",
"912.388 1039.77 OFFCURVE",
"841.754 1105 CURVE",
"771.145 1168 OFFCURVE",
"666.343 1160 OFFCURVE",
"600.281 1090 CURVE SMOOTH",
"96.4977 586.753 LINE",
"73.1677 560.222 OFFCURVE",
"73.1677 508.48 OFFCURVE",
"96.4977 481.954 CURVE",
"600.281 -22 LINE SMOOTH",
"668.682 -90 OFFCURVE",
"771.145 -99 OFFCURVE",
"841.754 -38 CURVE"
);
}
);
width = 1600.77;
}
);
unicode = 2190;
},
{
glyphname = arrowright;
lastChange = "2013-11-02 08:14:06 -0800";
layers = (
{
layerId = "06D35582-4FA2-40C1-8C5B-DEFCD1A2473F";
name = Regular;
paths = (
{
closed = 1;
nodes = (
"687.38 1034.42 OFFCURVE",
"687.38 934.179 OFFCURVE",
"748.885 858.993 CURVE",
"937.958 683.571 LINE",
"853.681 699.518 LINE",
"249.955 699.518 LINE SMOOTH",
"154.264 699.518 OFFCURVE",
"76.8066 624.333 OFFCURVE",
"79.0476 528.787 CURVE",
"76.8066 432.962 OFFCURVE",
"154.264 357.781 OFFCURVE",
"249.955 357.781 CURVE SMOOTH",
"853.681 357.781 LINE",
"937.958 373.729 LINE",
"748.885 198.303 LINE",
"687.38 123.56 OFFCURVE",
"687.38 23.2275 OFFCURVE",
"758.014 -42 CURVE",
"828.623 -105 OFFCURVE",
"933.425 -97 OFFCURVE",
"999.487 -27 CURVE SMOOTH",
"1503.27 476.248 LINE",
"1526.6 502.779 OFFCURVE",
"1526.6 554.521 OFFCURVE",
"1503.27 581.047 CURVE",
"999.487 1084.54 LINE SMOOTH",
"931.086 1152.9 OFFCURVE",
"828.623 1162 OFFCURVE",
"758.014 1100.49 CURVE"
);
}
);
width = 1600.77;
}
);
unicode = 2192;
},
{
glyphname = arrowup;
lastChange = "2013-10-30 17:48:30 -0800";
layers = (
{
layerId = "06D35582-4FA2-40C1-8C5B-DEFCD1A2473F";
name = Regular;
paths = (
{
closed = 1;
nodes = (
"293.965 504.78 OFFCURVE",
"394.206 504.78 OFFCURVE",
"469.392 566.285 CURVE",
"644.814 755.358 LINE",
"628.867 671.081 LINE",
"628.867 67.358 LINE SMOOTH",
"628.867 -28 OFFCURVE",
"704.052 -106 OFFCURVE",
"799.598 -104 CURVE",
"895.423 -106 OFFCURVE",
"970.604 -28 OFFCURVE",
"970.604 67.358 CURVE SMOOTH",
"970.604 671.081 LINE",
"954.656 755.358 LINE",
"1130.08 566.285 LINE",
"1204.83 504.78 OFFCURVE",
"1305.15 504.78 OFFCURVE",
"1370.38 575.414 CURVE",
"1433.38 646.023 OFFCURVE",
"1425.38 750.825 OFFCURVE",
"1355.38 816.887 CURVE SMOOTH",
"852.137 1320.67 LINE",
"825.606 1344 OFFCURVE",
"773.864 1344 OFFCURVE",
"747.338 1320.67 CURVE",
"243.464 816.887 LINE SMOOTH",
"175.464 748.486 OFFCURVE",
"166.464 646.023 OFFCURVE",
"227.464 575.414 CURVE"
);
}
);
width = 1600.77;
}
);
unicode = 2191;
},
{
glyphname = blackdownTriangle;
layers = (
{
layerId = "06D35582-4FA2-40C1-8C5B-DEFCD1A2473F";
name = Regular;
paths = (
{
closed = 1;
nodes = (
"1724 1008 LINE",
"304 1008 LINE",
"1014 368 LINE"
);
}
);
width = 2028;
}
);
unicode = 25BE;
},
{
glyphname = blackleftTriangle;
lastChange = "2013-12-04 21:17:34 -0800";
layers = (
{
layerId = "06D35582-4FA2-40C1-8C5B-DEFCD1A2473F";
name = Regular;
paths = (
{
closed = 1;
nodes = (
"1248 58 LINE",
"608 768 LINE",
"1248 1478 LINE"
);
}
);
width = 2028;
}
);
unicode = 25C0;
},
{
glyphname = blackrightTriangle;
layers = (
{
layerId = "06D35582-4FA2-40C1-8C5B-DEFCD1A2473F";
name = Regular;
paths = (
{
closed = 1;
nodes = (
"778 1478 LINE",
"1418 768 LINE",
"778 58 LINE"
);
}
);
width = 2027;
}
);
unicode = 25B6;
},
{
glyphname = blackupsmallTriangle;
layers = (
{
layerId = "06D35582-4FA2-40C1-8C5B-DEFCD1A2473F";
name = Regular;
paths = (
{
closed = 1;
nodes = (
"304 422 LINE",
"1014 1062 LINE",
"1724 422 LINE"
);
}
);
width = 2028;
}
);
unicode = 25B4;
},
{
glyphname = triagdn;
lastChange = "2013-12-04 21:13:03 -0800";
layers = (
{
layerId = "06D35582-4FA2-40C1-8C5B-DEFCD1A2473F";
name = Regular;
paths = (
{
closed = 1;
nodes = (
"1724 1008 LINE",
"304 1008 LINE",
"1014 368 LINE"
);
}
);
width = 2028;
}
);
unicode = 25BC;
},
{
glyphname = triaglf;
lastChange = "2013-12-04 21:11:53 -0800";
layers = (
{
layerId = "06D35582-4FA2-40C1-8C5B-DEFCD1A2473F";
name = Regular;
paths = (
{
closed = 1;
nodes = (
"1248 58 LINE",
"608 768 LINE",
"1248 1478 LINE"
);
}
);
width = 2028;
}
);
unicode = 25C4;
},
{
glyphname = triagrt;
lastChange = "2013-12-04 21:12:46 -0800";
layers = (
{
layerId = "06D35582-4FA2-40C1-8C5B-DEFCD1A2473F";
name = Regular;
paths = (
{
closed = 1;
nodes = (
"778 1478 LINE",
"1418 768 LINE",
"778 58 LINE"
);
}
);
width = 2027;
}
);
unicode = 25BA;
},
{
glyphname = triagup;
lastChange = "2013-12-04 21:15:44 -0800";
layers = (
{
layerId = "06D35582-4FA2-40C1-8C5B-DEFCD1A2473F";
name = Regular;
paths = (
{
closed = 1;
nodes = (
"304 422 LINE",
"1014 1062 LINE",
"1724 422 LINE"
);
}
);
width = 2028;
}
);
unicode = 25B2;
},
{
glyphname = envelope;
lastChange = "2013-12-12 19:50:20 -0800";
layers = (
{
layerId = "06D35582-4FA2-40C1-8C5B-DEFCD1A2473F";
name = Regular;
paths = (
{
closed = 1;
nodes = (
"214 128 LINE",
"2186 128 LINE",
"2186 1410 LINE",
"214 1410 LINE"
);
},
{
closed = 1;
nodes = (
"324 235 LINE",
"324 1142 LINE",
"1200 509 LINE",
"2076 1142 LINE",
"2076 235 LINE"
);
},
{
closed = 1;
nodes = (
"300 1303 LINE",
"2100 1303 LINE",
"1200 653 LINE"
);
}
);
width = 2400;
}
);
unicode = 2709;
},
{
glyphname = trigramForHeaven;
layers = (
{
layerId = "06D35582-4FA2-40C1-8C5B-DEFCD1A2473F";
name = Regular;
paths = (
{
closed = 1;
nodes = (
"1888 1341 LINE",
"512 1341 LINE",
"512 1101 LINE",
"1888 1101 LINE"
);
},
{
closed = 1;
nodes = (
"1888 889 LINE",
"512 889 LINE",
"512 649 LINE",
"1888 649 LINE"
);
},
{
closed = 1;
nodes = (
"1888 437 LINE",
"512 437 LINE",
"512 197 LINE",
"1888 197 LINE"
);
}
);
width = 2400;
}
);
unicode = 2630;
},
{
glyphname = uniE001;
lastChange = "2013-12-04 19:37:37 -0800";
layers = (
{
layerId = "06D35582-4FA2-40C1-8C5B-DEFCD1A2473F";
name = Regular;
paths = (
{
closed = 1;
nodes = (
"0 1969 LINE",
"0 -431 LINE",
"2400 -431 LINE",
"2400 1969 LINE"
);
}
);
width = 2400;
}
);
unicode = E001;
},
{
glyphname = uniE002;
lastChange = "2013-12-04 19:38:49 -0800";
layers = (
{
layerId = "06D35582-4FA2-40C1-8C5B-DEFCD1A2473F";
name = Regular;
paths = (
{
closed = 1;
nodes = (
"256 1969 LINE SMOOTH",
"114.615 1969 OFFCURVE",
"0 1854.39 OFFCURVE",
"0 1713 CURVE SMOOTH",
"0 -175 LINE SMOOTH",
"0 -316 OFFCURVE",
"114.615 -431 OFFCURVE",
"256 -431 CURVE SMOOTH",
"2144 -431 LINE SMOOTH",
"2285.38 -431 OFFCURVE",
"2400 -316 OFFCURVE",
"2400 -175 CURVE SMOOTH",
"2400 1713 LINE SMOOTH",
"2400 1854.39 OFFCURVE",
"2285.38 1969 OFFCURVE",
"2144 1969 CURVE SMOOTH"
);
}
);
width = 2400;
}
);
unicode = E002;
},
{
glyphname = uniE003;
lastChange = "2014-01-12 16:58:21 -0800";
layers = (
{
layerId = "06D35582-4FA2-40C1-8C5B-DEFCD1A2473F";
name = Regular;
paths = (
{
closed = 1;
nodes = (
"352 1969 LINE SMOOTH",
"157.596 1969 OFFCURVE",
"0 1811.4 OFFCURVE",
"0 1617 CURVE SMOOTH",
"0 -79 LINE SMOOTH",
"0 -273 OFFCURVE",
"157.596 -431 OFFCURVE",
"352 -431 CURVE SMOOTH",
"2048 -431 LINE SMOOTH",
"2242.4 -431 OFFCURVE",
"2400 -273 OFFCURVE",
"2400 -79 CURVE SMOOTH",
"2400 1617 LINE SMOOTH",
"2400 1811.4 OFFCURVE",
"2242.4 1969 OFFCURVE",
"2048 1969 CURVE SMOOTH"
);
}
);
width = 2400;
}
);
unicode = E003;
},
{
glyphname = uniE004;
lastChange = "2014-01-15 03:59:15 -0800";
layers = (
{
layerId = "06D35582-4FA2-40C1-8C5B-DEFCD1A2473F";
name = Regular;
paths = (
{
closed = 1;
nodes = (
"836.742 1969 LINE SMOOTH",
"595.804 1969 OFFCURVE",
"475.34 1969 OFFCURVE",
"345.66 1928 CURVE",
"204.07 1876.46 OFFCURVE",
"92.539 1764.93 OFFCURVE",
"41.004 1623.34 CURVE",
"0 1493.66 OFFCURVE",
"0 1373.2 OFFCURVE",
"0 1132.26 CURVE SMOOTH",
"0 405.743 LINE SMOOTH",
"0 164.805 OFFCURVE",
"0 44.344 OFFCURVE",
"41.004 -85 CURVE",
"92.539 -227 OFFCURVE",
"204.07 -338 OFFCURVE",
"345.66 -390 CURVE",
"475.34 -431 OFFCURVE",
"595.804 -431 OFFCURVE",
"836.742 -431 CURVE SMOOTH",
"1563.26 -431 LINE SMOOTH",
"1804.2 -431 OFFCURVE",
"1924.66 -431 OFFCURVE",
"2054.34 -390 CURVE",
"2195.93 -338 OFFCURVE",
"2307.46 -227 OFFCURVE",
"2359 -85 CURVE",
"2400 44.344 OFFCURVE",
"2400 164.805 OFFCURVE",
"2400 405.743 CURVE SMOOTH",
"2400 1132.26 LINE SMOOTH",
"2400 1373.2 OFFCURVE",
"2400 1493.66 OFFCURVE",
"2359 1623.34 CURVE",
"2307.46 1764.93 OFFCURVE",
"2195.93 1876.46 OFFCURVE",
"2054.34 1928 CURVE",
"1924.66 1969 OFFCURVE",
"1804.2 1969 OFFCURVE",
"1563.26 1969 CURVE SMOOTH"
);
}
);
width = 2400;
}
);
unicode = E004;
},
{
glyphname = uniE005;
lastChange = "2014-01-15 03:58:52 -0800";
layers = (
{
layerId = "06D35582-4FA2-40C1-8C5B-DEFCD1A2473F";
name = Regular;
paths = (
{
closed = 1;
nodes = (
"537.252 1969 OFFCURVE",
"0 1431.75 OFFCURVE",
"0 769 CURVE SMOOTH",
"0 106.252 OFFCURVE",
"537.252 -431 OFFCURVE",
"1200 -431 CURVE SMOOTH",
"1862.75 -431 OFFCURVE",
"2400 106.252 OFFCURVE",
"2400 769 CURVE SMOOTH",
"2400 1431.75 OFFCURVE",
"1862.75 1969 OFFCURVE",
"1200 1969 CURVE SMOOTH"
);
}
);
width = 2400;
}
);
unicode = E005;
},
{
glyphname = uniE020;
lastChange = "2014-01-15 01:09:47 -0800";
layers = (
{
layerId = "06D35582-4FA2-40C1-8C5B-DEFCD1A2473F";
name = Regular;
paths = (
{
closed = 1;
nodes = (
"702.939 1669 OFFCURVE",
"300 1266.06 OFFCURVE",
"300 769 CURVE SMOOTH",
"300 271.939 OFFCURVE",
"702.939 -131 OFFCURVE",
"1200 -131 CURVE SMOOTH",
"1697.06 -131 OFFCURVE",
"2100 271.939 OFFCURVE",
"2100 769 CURVE SMOOTH",
"2100 1266.06 OFFCURVE",
"1697.06 1669 OFFCURVE",
"1200 1669 CURVE SMOOTH"
);
}
);
width = 2400;
}
);
unicode = E020;
},
{
glyphname = uniE021;
lastChange = "2013-12-04 00:39:53 -0800";
layers = (
{
layerId = "06D35582-4FA2-40C1-8C5B-DEFCD1A2473F";
name = Regular;
paths = (
{
closed = 1;
nodes = (
"0 1969 LINE",
"0 -431 LINE",
"1240 -431 LINE",
"1240 492 LINE",
"928 492 LINE",
"928 846 LINE",
"1240 846 LINE",
"1240 1135 LINE SMOOTH",
"1240 1292 OFFCURVE",
"1291.02 1412.71 OFFCURVE",
"1355 1474 CURVE SMOOTH",
"1438.36 1553.85 OFFCURVE",
"1572.97 1601 OFFCURVE",
"1705.94 1601 CURVE SMOOTH",
"1822.04 1601 OFFCURVE",
"1924.05 1589.32 OFFCURVE",
"1973.54 1582 CURVE",
"1973.54 1267 LINE",
"1935.35 1269.13 OFFCURVE",
"1854.46 1273.65 OFFCURVE",
"1765.67 1273.65 CURVE SMOOTH",
"1668.71 1273.65 OFFCURVE",
"1596 1219.75 OFFCURVE",
"1596 1130.29 CURVE SMOOTH",
"1596 846 LINE",
"1974 846 LINE",
"1916 492 LINE",
"1596 492 LINE",
"1596 -431 LINE",
"2400 -431 LINE",
"2400 1969 LINE"
);
}
);
width = 2400;
}
);
unicode = E021;
},
{
glyphname = uniE022;
lastChange = "2013-12-04 00:40:49 -0800";
layers = (
{
layerId = "06D35582-4FA2-40C1-8C5B-DEFCD1A2473F";
name = Regular;
paths = (
{
closed = 1;
nodes = (
"256 1969 LINE SMOOTH",
"114.615 1969 OFFCURVE",
"0 1854.39 OFFCURVE",
"0 1713 CURVE SMOOTH",
"0 -175 LINE SMOOTH",
"0 -316 OFFCURVE",
"114.615 -431 OFFCURVE",
"256 -431 CURVE SMOOTH",
"1240 -431 LINE",
"1240 492 LINE",
"928 492 LINE",
"928 846 LINE",
"1240 846 LINE",
"1240 1135 LINE SMOOTH",
"1240 1292 OFFCURVE",
"1291.02 1412.71 OFFCURVE",
"1355 1474 CURVE SMOOTH",
"1438.36 1553.85 OFFCURVE",
"1572.97 1601 OFFCURVE",
"1705.94 1601 CURVE SMOOTH",
"1822.04 1601 OFFCURVE",
"1924.05 1589.32 OFFCURVE",
"1973.54 1582 CURVE",
"1973.54 1267 LINE",
"1935.35 1269.13 OFFCURVE",
"1854.46 1273.65 OFFCURVE",
"1765.67 1273.65 CURVE SMOOTH",
"1668.71 1273.65 OFFCURVE",
"1596 1219.75 OFFCURVE",
"1596 1130.29 CURVE SMOOTH",
"1596 846 LINE",
"1974 846 LINE",
"1916 492 LINE",
"1596 492 LINE",
"1596 -431 LINE",
"2144 -431 LINE SMOOTH",
"2285.38 -431 OFFCURVE",
"2400 -316 OFFCURVE",
"2400 -175 CURVE SMOOTH",
"2400 1713 LINE SMOOTH",
"2400 1854.39 OFFCURVE",
"2285.38 1969 OFFCURVE",
"2144 1969 CURVE SMOOTH"
);
}
);
width = 2400;
}
);
unicode = E022;
},
{
glyphname = uniE023;
lastChange = "2013-12-04 00:41:57 -0800";
layers = (
{
layerId = "06D35582-4FA2-40C1-8C5B-DEFCD1A2473F";
name = Regular;
paths = (
{
closed = 1;
nodes = (
"352 1969 LINE SMOOTH",
"157.596 1969 OFFCURVE",
"0 1811.4 OFFCURVE",
"0 1617 CURVE SMOOTH",
"0 -79 LINE SMOOTH",
"0 -273 OFFCURVE",
"157.596 -431 OFFCURVE",
"352 -431 CURVE SMOOTH",
"1240 -431 LINE",
"1240 492 LINE",
"928 492 LINE",
"928 846 LINE",
"1240 846 LINE",
"1240 1135 LINE SMOOTH",
"1240 1292 OFFCURVE",
"1291.02 1412.71 OFFCURVE",
"1355 1474 CURVE SMOOTH",
"1438.36 1553.85 OFFCURVE",
"1572.97 1601 OFFCURVE",
"1705.94 1601 CURVE SMOOTH",
"1822.04 1601 OFFCURVE",
"1924.05 1589.32 OFFCURVE",
"1973.54 1582 CURVE",
"1973.54 1267 LINE",
"1935.35 1269.13 OFFCURVE",
"1854.46 1273.65 OFFCURVE",
"1765.67 1273.65 CURVE SMOOTH",
"1668.71 1273.65 OFFCURVE",
"1596 1219.75 OFFCURVE",
"1596 1130.29 CURVE SMOOTH",
"1596 846 LINE",
"1974 846 LINE",
"1916 492 LINE",
"1596 492 LINE",
"1596 -431 LINE",
"2048 -431 LINE SMOOTH",
"2242.4 -431 OFFCURVE",
"2400 -273 OFFCURVE",
"2400 -79 CURVE SMOOTH",
"2400 1617 LINE SMOOTH",
"2400 1811.4 OFFCURVE",
"2242.4 1969 OFFCURVE",
"2048 1969 CURVE SMOOTH"
);
}
);
width = 2400;
}
);
unicode = E023;
},
{
glyphname = uniE024;
lastChange = "2013-12-04 00:42:40 -0800";
layers = (
{
layerId = "06D35582-4FA2-40C1-8C5B-DEFCD1A2473F";
name = Regular;
paths = (
{
closed = 1;
nodes = (
"836.742 1969 LINE SMOOTH",
"595.805 1969 OFFCURVE",
"475.34 1969 OFFCURVE",
"345.66 1928 CURVE",
"204.07 1876.46 OFFCURVE",
"92.539 1764.93 OFFCURVE",
"41.004 1623.34 CURVE",
"0 1493.66 OFFCURVE",
"0 1373.2 OFFCURVE",
"0 1132.26 CURVE SMOOTH",
"0 405.743 LINE SMOOTH",
"0 164.805 OFFCURVE",
"0 44.344 OFFCURVE",
"41.004 -85 CURVE",
"92.539 -227 OFFCURVE",
"204.07 -338 OFFCURVE",
"345.66 -390 CURVE",
"475.34 -431 OFFCURVE",
"595.805 -431 OFFCURVE",
"836.742 -431 CURVE SMOOTH",
"1240 -431 LINE",
"1240 492 LINE",
"928 492 LINE",
"928 846 LINE",
"1240 846 LINE",
"1240 1135 LINE SMOOTH",
"1240 1292 OFFCURVE",
"1291.02 1412.71 OFFCURVE",
"1355 1474 CURVE SMOOTH",
"1438.36 1553.85 OFFCURVE",
"1572.97 1601 OFFCURVE",
"1705.94 1601 CURVE SMOOTH",
"1822.04 1601 OFFCURVE",
"1924.05 1589.32 OFFCURVE",
"1973.54 1582 CURVE",
"1973.54 1267 LINE",
"1935.35 1269.13 OFFCURVE",
"1854.46 1273.65 OFFCURVE",
"1765.67 1273.65 CURVE SMOOTH",
"1668.71 1273.65 OFFCURVE",
"1596 1219.75 OFFCURVE",
"1596 1130.29 CURVE SMOOTH",
"1596 846 LINE",
"1974 846 LINE",
"1916 492 LINE",
"1596 492 LINE",
"1596 -431 LINE",
"1815.38 -431 OFFCURVE",
"1930.67 -429 OFFCURVE",
"2054.34 -390 CURVE",
"2195.93 -338 OFFCURVE",
"2307.46 -227 OFFCURVE",
"2359 -85 CURVE",
"2400 44.344 OFFCURVE",
"2400 164.805 OFFCURVE",
"2400 405.743 CURVE SMOOTH",
"2400 1132.26 LINE SMOOTH",
"2400 1373.2 OFFCURVE",
"2400 1493.66 OFFCURVE",
"2359 1623.34 CURVE",
"2307.46 1764.93 OFFCURVE",
"2195.93 1876.46 OFFCURVE",
"2054.34 1928 CURVE",
"1924.66 1969 OFFCURVE",
"1804.2 1969 OFFCURVE",
"1563.26 1969 CURVE SMOOTH"
);
}
);
width = 2400;
}
);
unicode = E024;
},
{
glyphname = uniE025;
lastChange = "2013-12-04 00:43:23 -0800";
layers = (
{
layerId = "06D35582-4FA2-40C1-8C5B-DEFCD1A2473F";
name = Regular;
paths = (
{
closed = 1;
nodes = (
"2400 1431.75 OFFCURVE",
"1862.75 1969 OFFCURVE",
"1200 1969 CURVE SMOOTH",
"537.252 1969 OFFCURVE",
"0 1431.75 OFFCURVE",
"0 769 CURVE SMOOTH",
"0 106.252 OFFCURVE",
"537.252 -431 OFFCURVE",
"1200 -431 CURVE SMOOTH",
"1213.39 -431 OFFCURVE",
"1226.72 -431 OFFCURVE",
"1240 -430 CURVE",
"1240 492 LINE",
"928 492 LINE",
"928 846 LINE",
"1240 846 LINE",
"1240 1135 LINE SMOOTH",
"1240 1292 OFFCURVE",
"1291.02 1412.71 OFFCURVE",
"1355 1474 CURVE SMOOTH",
"1438.36 1553.85 OFFCURVE",
"1572.97 1601 OFFCURVE",
"1705.94 1601 CURVE SMOOTH",
"1822.04 1601 OFFCURVE",
"1924.05 1589.32 OFFCURVE",
"1973.54 1582 CURVE",
"1973.54 1267 LINE",
"1935.35 1269.13 OFFCURVE",
"1854.46 1273.65 OFFCURVE",
"1765.67 1273.65 CURVE SMOOTH",
"1668.71 1273.65 OFFCURVE",
"1596 1219.75 OFFCURVE",
"1596 1130.29 CURVE SMOOTH",
"1596 846 LINE",
"1974 846 LINE",
"1916 492 LINE",
"1596 492 LINE",
"1596 -364 LINE",
"2064.17 -201 OFFCURVE",
"2400 245.015 OFFCURVE",
"2400 769 CURVE SMOOTH"
);
}
);
width = 2400;
}
);
unicode = E025;
},
{
glyphname = uniE026;
lastChange = "2013-12-04 00:46:26 -0800";
layers = (
{
layerId = "06D35582-4FA2-40C1-8C5B-DEFCD1A2473F";
name = Regular;
paths = (
{
closed = 1;
nodes = (
"1572.97 1601 OFFCURVE",
"1438.36 1553.85 OFFCURVE",
"1355 1474 CURVE SMOOTH",
"1291.02 1412.71 OFFCURVE",
"1240 1292 OFFCURVE",
"1240 1135 CURVE SMOOTH",
"1240 846 LINE",
"928 846 LINE",
"928 492 LINE",
"1240 492 LINE",
"1240 -431 LINE",
"1596 -431 LINE",
"1596 492 LINE",
"1916 492 LINE",
"1974 846 LINE",
"1596 846 LINE",
"1596 1130.29 LINE SMOOTH",
"1596 1219.75 OFFCURVE",
"1668.71 1273.65 OFFCURVE",
"1765.67 1273.65 CURVE SMOOTH",
"1854.46 1273.65 OFFCURVE",
"1935.35 1269.13 OFFCURVE",
"1973.54 1267 CURVE",
"1973.54 1582 LINE",
"1924.05 1589.32 OFFCURVE",
"1822.04 1601 OFFCURVE",
"1705.94 1601 CURVE SMOOTH"
);
}
);
width = 2400;
}
);
unicode = E026;
},
{
glyphname = uniE027;
lastChange = "2013-12-04 00:45:22 -0800";
layers = (
{
layerId = "06D35582-4FA2-40C1-8C5B-DEFCD1A2473F";
name = Regular;
paths = (
{
closed = 1;
nodes = (
"537.252 1969 OFFCURVE",
"0 1431.75 OFFCURVE",
"0 769 CURVE SMOOTH",
"0 114.272 OFFCURVE",
"524.333 -418 OFFCURVE",
"1176 -431 CURVE",
"1176 496.599 LINE",
"864 496.599 LINE",
"864 850.599 LINE",
"1176 850.599 LINE",
"1176 1139.6 LINE SMOOTH",
"1176 1296.6 OFFCURVE",
"1227.02 1417.31 OFFCURVE",
"1291 1478.6 CURVE SMOOTH",
"1374.36 1558.45 OFFCURVE",
"1508.97 1605.6 OFFCURVE",
"1641.94 1605.6 CURVE SMOOTH",
"1758.04 1605.6 OFFCURVE",
"1860.05 1593.92 OFFCURVE",
"1909.54 1586.6 CURVE",
"1909.54 1271.6 LINE",
"1871.35 1273.73 OFFCURVE",
"1790.46 1278.25 OFFCURVE",
"1701.67 1278.25 CURVE SMOOTH",
"1604.71 1278.25 OFFCURVE",
"1532 1224.35 OFFCURVE",
"1532 1134.89 CURVE SMOOTH",
"1532 850.598 LINE",
"1910 850.598 LINE",
"1852 496.598 LINE",
"1532 496.598 LINE",
"1532 -384 LINE",
"2033.26 -240 OFFCURVE",
"2400 221.431 OFFCURVE",
"2400 768.999 CURVE SMOOTH",
"2400 1431.75 OFFCURVE",
"1862.75 1969 OFFCURVE",
"1200 1969 CURVE SMOOTH"
);
}
);
width = 2400;
}
);
unicode = E027;
},
{
glyphname = uniE028;
lastChange = "2013-12-04 00:46:03 -0800";
layers = (
{
layerId = "06D35582-4FA2-40C1-8C5B-DEFCD1A2473F";
name = Regular;
paths = (
{
closed = 1;
nodes = (
"1508.97 1605.6 OFFCURVE",
"1374.36 1558.45 OFFCURVE",
"1291 1478.6 CURVE SMOOTH",
"1227.02 1417.31 OFFCURVE",
"1176 1296.6 OFFCURVE",
"1176 1139.6 CURVE SMOOTH",
"1176 850.598 LINE",
"864 850.598 LINE",
"864 496.598 LINE",
"1176 496.598 LINE",
"1176 -431 LINE",
"1200 -431 LINE SMOOTH",
"1315.18 -431 OFFCURVE",
"1426.56 -415 OFFCURVE",
"1532 -384 CURVE",
"1532 496.598 LINE",
"1852 496.598 LINE",
"1910 850.598 LINE",
"1532 850.598 LINE",
"1532 1134.89 LINE SMOOTH",
"1532 1224.35 OFFCURVE",
"1604.71 1278.25 OFFCURVE",
"1701.67 1278.25 CURVE SMOOTH",
"1790.46 1278.25 OFFCURVE",
"1871.35 1273.73 OFFCURVE",
"1909.54 1271.6 CURVE",
"1909.54 1586.6 LINE",
"1860.05 1593.92 OFFCURVE",
"1758.04 1605.6 OFFCURVE",
"1641.94 1605.6 CURVE SMOOTH"
);
}
);
width = 2400;
}
);
unicode = E028;
},
{
glyphname = uniE02A;
lastChange = "2014-01-12 16:45:08 -0800";
layers = (
{
layerId = "06D35582-4FA2-40C1-8C5B-DEFCD1A2473F";
name = Regular;
paths = (
{
closed = 1;
nodes = (
"2400 1969 LINE",
"0 1969 LINE",
"0 -431 LINE",
"2400 -431 LINE"
);
},
{
closed = 1;
nodes = (
"1535.39 1626.12 OFFCURVE",
"1621.66 1616.69 OFFCURVE",
"1663.53 1610.5 CURVE",
"1663.53 1343.92 LINE",
"1631.22 1345.71 OFFCURVE",
"1562.81 1349.26 OFFCURVE",
"1487.72 1349.26 CURVE SMOOTH",
"1405.7 1349.26 OFFCURVE",
"1344.21 1303.67 OFFCURVE",
"1344.21 1228.01 CURVE SMOOTH",
"1344.21 986.523 LINE",
"1664.5 986.523 LINE",
"1614.7 687.718 LINE",
"1344.21 687.718 LINE",
"1344.21 -92 LINE",
"1043.46 -92 LINE",
"1043.46 687.718 LINE",
"779.805 687.718 LINE",
"779.805 986.523 LINE",
"1043.46 986.523 LINE",
"1043.46 1231.99 LINE SMOOTH",
"1043.46 1364.78 OFFCURVE",
"1086.61 1466.87 OFFCURVE",
"1140.72 1518.71 CURVE SMOOTH",
"1211.23 1586.24 OFFCURVE",
"1324.73 1626.12 OFFCURVE",
"1437.19 1626.12 CURVE SMOOTH"
);
}
);
width = 2400;
}
);
unicode = E02A;
},
{
glyphname = uniE02B;
lastChange = "2014-01-12 16:45:08 -0800";
layers = (
{
layerId = "06D35582-4FA2-40C1-8C5B-DEFCD1A2473F";
name = Regular;
paths = (
{
closed = 1;
nodes = (
"256 1969 LINE SMOOTH",
"114.615 1969 OFFCURVE",
"0 1854.39 OFFCURVE",
"0 1713 CURVE SMOOTH",
"0 -175 LINE SMOOTH",
"0 -316 OFFCURVE",
"114.615 -431 OFFCURVE",
"256 -431 CURVE SMOOTH",
"2144 -431 LINE SMOOTH",
"2285.38 -431 OFFCURVE",
"2400 -316 OFFCURVE",
"2400 -175 CURVE SMOOTH",
"2400 1713 LINE SMOOTH",
"2400 1854.39 OFFCURVE",
"2285.38 1969 OFFCURVE",
"2144 1969 CURVE SMOOTH"
);
},
{
closed = 1;
nodes = (
"1535.39 1626.12 OFFCURVE",
"1621.66 1616.69 OFFCURVE",
"1663.53 1610.5 CURVE",
"1663.53 1343.92 LINE",
"1631.22 1345.71 OFFCURVE",
"1562.81 1349.26 OFFCURVE",
"1487.72 1349.26 CURVE SMOOTH",
"1405.7 1349.26 OFFCURVE",
"1344.21 1303.67 OFFCURVE",
"1344.21 1228.01 CURVE SMOOTH",
"1344.21 986.523 LINE",
"1664.5 986.523 LINE",
"1614.7 687.718 LINE",
"1344.21 687.718 LINE",
"1344.21 -92 LINE",
"1043.46 -92 LINE",
"1043.46 687.718 LINE",
"779.805 687.718 LINE",
"779.805 986.523 LINE",
"1043.46 986.523 LINE",
"1043.46 1231.99 LINE SMOOTH",
"1043.46 1364.78 OFFCURVE",
"1086.61 1466.87 OFFCURVE",
"1140.72 1518.71 CURVE SMOOTH",
"1211.23 1586.24 OFFCURVE",
"1324.73 1626.12 OFFCURVE",
"1437.19 1626.12 CURVE SMOOTH"
);
}
);
width = 2400;
}
);
unicode = E02B;
},
{
glyphname = uniE02C;
lastChange = "2014-01-12 16:45:08 -0800";
layers = (
{
layerId = "06D35582-4FA2-40C1-8C5B-DEFCD1A2473F";
name = Regular;
paths = (
{
closed = 1;
nodes = (
"352 1969 LINE SMOOTH",
"157.596 1969 OFFCURVE",
"0 1811.4 OFFCURVE",
"0 1617 CURVE SMOOTH",
"0 -79 LINE SMOOTH",
"0 -273 OFFCURVE",
"157.596 -431 OFFCURVE",
"352 -431 CURVE SMOOTH",
"2048 -431 LINE SMOOTH",
"2242.4 -431 OFFCURVE",
"2400 -273 OFFCURVE",
"2400 -79 CURVE SMOOTH",
"2400 1617 LINE SMOOTH",
"2400 1811.4 OFFCURVE",
"2242.4 1969 OFFCURVE",
"2048 1969 CURVE SMOOTH"
);
},
{
closed = 1;
nodes = (
"1535.39 1626.12 OFFCURVE",
"1621.66 1616.69 OFFCURVE",
"1663.53 1610.5 CURVE",
"1663.53 1343.92 LINE",
"1631.22 1345.71 OFFCURVE",
"1562.81 1349.26 OFFCURVE",
"1487.72 1349.26 CURVE SMOOTH",
"1405.7 1349.26 OFFCURVE",
"1344.21 1303.67 OFFCURVE",
"1344.21 1228.01 CURVE SMOOTH",
"1344.21 986.523 LINE",
"1664.5 986.523 LINE",
"1614.7 687.718 LINE",
"1344.21 687.718 LINE",
"1344.21 -92 LINE",
"1043.46 -92 LINE",
"1043.46 687.718 LINE",
"779.805 687.718 LINE",
"779.805 986.523 LINE",
"1043.46 986.523 LINE",
"1043.46 1231.99 LINE SMOOTH",
"1043.46 1364.78 OFFCURVE",
"1086.61 1466.87 OFFCURVE",
"1140.72 1518.71 CURVE SMOOTH",
"1211.23 1586.24 OFFCURVE",
"1324.73 1626.12 OFFCURVE",
"1437.19 1626.12 CURVE SMOOTH"
);
}
);
width = 2400;
}
);
unicode = E02C;
},
{
glyphname = uniE02D;
lastChange = "2014-01-12 16:45:08 -0800";
layers = (
{
layerId = "06D35582-4FA2-40C1-8C5B-DEFCD1A2473F";
name = Regular;
paths = (
{
closed = 1;
nodes = (
"836.742 1969 LINE SMOOTH",
"595.804 1969 OFFCURVE",
"475.34 1969 OFFCURVE",
"345.66 1928 CURVE",
"204.07 1876.46 OFFCURVE",
"92.539 1764.93 OFFCURVE",
"41.004 1623.34 CURVE",
"0 1493.66 OFFCURVE",
"0 1373.2 OFFCURVE",
"0 1132.26 CURVE SMOOTH",
"0 405.743 LINE SMOOTH",
"0 164.805 OFFCURVE",
"0 44.344 OFFCURVE",
"41.004 -85 CURVE",
"92.539 -227 OFFCURVE",
"204.07 -338 OFFCURVE",
"345.66 -390 CURVE",
"475.34 -431 OFFCURVE",
"595.804 -431 OFFCURVE",
"836.742 -431 CURVE SMOOTH",
"1563.26 -431 LINE SMOOTH",
"1804.2 -431 OFFCURVE",
"1924.66 -431 OFFCURVE",
"2054.34 -390 CURVE",
"2195.93 -338 OFFCURVE",
"2307.46 -227 OFFCURVE",
"2359 -85 CURVE",
"2400 44.344 OFFCURVE",
"2400 164.805 OFFCURVE",
"2400 405.743 CURVE SMOOTH",
"2400 1132.26 LINE SMOOTH",
"2400 1373.2 OFFCURVE",
"2400 1493.66 OFFCURVE",
"2359 1623.34 CURVE",
"2307.46 1764.93 OFFCURVE",
"2195.93 1876.46 OFFCURVE",
"2054.34 1928 CURVE",
"1924.66 1969 OFFCURVE",
"1804.2 1969 OFFCURVE",
"1563.26 1969 CURVE SMOOTH"
);
},
{
closed = 1;
nodes = (
"1535.39 1626.12 OFFCURVE",
"1621.66 1616.69 OFFCURVE",
"1663.53 1610.5 CURVE",
"1663.53 1343.92 LINE",
"1631.22 1345.71 OFFCURVE",
"1562.81 1349.26 OFFCURVE",
"1487.72 1349.26 CURVE SMOOTH",
"1405.7 1349.26 OFFCURVE",
"1344.21 1303.67 OFFCURVE",
"1344.21 1228.01 CURVE SMOOTH",
"1344.21 986.523 LINE",
"1664.5 986.523 LINE",
"1614.7 687.718 LINE",
"1344.21 687.718 LINE",
"1344.21 -92 LINE",
"1043.46 -92 LINE",
"1043.46 687.718 LINE",
"779.805 687.718 LINE",
"779.805 986.523 LINE",
"1043.46 986.523 LINE",
"1043.46 1231.99 LINE SMOOTH",
"1043.46 1364.78 OFFCURVE",
"1086.61 1466.87 OFFCURVE",
"1140.72 1518.71 CURVE SMOOTH",
"1211.23 1586.24 OFFCURVE",
"1324.73 1626.12 OFFCURVE",
"1437.19 1626.12 CURVE SMOOTH"
);
}
);
width = 2400;
}
);
unicode = E02D;
},
{
glyphname = uniE02E;
lastChange = "2014-01-12 16:45:08 -0800";
layers = (
{
layerId = "06D35582-4FA2-40C1-8C5B-DEFCD1A2473F";
name = Regular;
paths = (
{
closed = 1;
nodes = (
"537.252 1969 OFFCURVE",
"0 1431.75 OFFCURVE",
"0 769 CURVE SMOOTH",
"0 106.252 OFFCURVE",
"537.252 -431 OFFCURVE",
"1200 -431 CURVE SMOOTH",
"1862.75 -431 OFFCURVE",
"2400 106.252 OFFCURVE",
"2400 769 CURVE SMOOTH",
"2400 1431.75 OFFCURVE",
"1862.75 1969 OFFCURVE",
"1200 1969 CURVE SMOOTH"
);
},
{
closed = 1;
nodes = (
"1535.39 1626.12 OFFCURVE",
"1621.66 1616.69 OFFCURVE",
"1663.53 1610.5 CURVE",
"1663.53 1343.92 LINE",
"1631.22 1345.71 OFFCURVE",
"1562.81 1349.26 OFFCURVE",
"1487.72 1349.26 CURVE SMOOTH",
"1405.7 1349.26 OFFCURVE",
"1344.21 1303.67 OFFCURVE",
"1344.21 1228.01 CURVE SMOOTH",
"1344.21 986.524 LINE",
"1664.5 986.524 LINE",
"1614.7 687.719 LINE",
"1344.21 687.719 LINE",
"1344.21 -92 LINE",
"1043.45 -92 LINE",
"1043.45 687.719 LINE",
"779.804 687.719 LINE",
"779.804 986.524 LINE",
"1043.45 986.524 LINE",
"1043.45 1231.99 LINE SMOOTH",
"1043.45 1364.78 OFFCURVE",
"1086.61 1466.87 OFFCURVE",
"1140.72 1518.71 CURVE SMOOTH",
"1211.22 1586.24 OFFCURVE",
"1324.73 1626.12 OFFCURVE",
"1437.19 1626.12 CURVE SMOOTH"
);
}
);
width = 2400;
}
);
unicode = E02E;
},
{
glyphname = uniE02F;
lastChange = "2014-01-12 16:45:08 -0800";
layers = (
{
layerId = "06D35582-4FA2-40C1-8C5B-DEFCD1A2473F";
name = Regular;
paths = (
{
closed = 1;
nodes = (
"1324.73 1626.12 OFFCURVE",
"1211.23 1586.24 OFFCURVE",
"1140.72 1518.71 CURVE SMOOTH",
"1086.61 1466.87 OFFCURVE",
"1043.46 1364.78 OFFCURVE",
"1043.46 1231.99 CURVE SMOOTH",
"1043.46 986.523 LINE",
"779.805 986.523 LINE",
"779.805 687.718 LINE",
"1043.46 687.718 LINE",
"1043.46 -92 LINE",
"1344.21 -92 LINE",
"1344.21 687.718 LINE",
"1614.7 687.718 LINE",
"1664.5 986.523 LINE",
"1344.21 986.523 LINE",
"1344.21 1228.01 LINE SMOOTH",
"1344.21 1303.67 OFFCURVE",
"1405.7 1349.26 OFFCURVE",
"1487.72 1349.26 CURVE SMOOTH",
"1562.81 1349.26 OFFCURVE",
"1631.22 1345.71 OFFCURVE",
"1663.53 1343.92 CURVE",
"1663.53 1610.5 LINE",
"1621.66 1616.69 OFFCURVE",
"1535.39 1626.12 OFFCURVE",
"1437.19 1626.12 CURVE SMOOTH"
);
}
);
width = 2400;
}
);
unicode = E02F;
},
{
glyphname = uniE031;
lastChange = "2013-10-29 20:23:06 -0800";
layers = (
{
layerId = "06D35582-4FA2-40C1-8C5B-DEFCD1A2473F";
name = Regular;
paths = (
{
closed = 1;
nodes = (
"2400 1969 LINE",
"0 1969 LINE",
"0 -431 LINE",
"2400 -431 LINE"
);
},
{
closed = 1;
nodes = (
"1648.82 1392.4 OFFCURVE",
"1731.4 1353.83 OFFCURVE",
"1789.36 1292.06 CURVE",
"1861.76 1306.31 OFFCURVE",
"1929.77 1332.76 OFFCURVE",
"1991.17 1369.18 CURVE",
"1967.44 1294.96 OFFCURVE",
"1917.05 1232.69 OFFCURVE",
"1851.45 1193.36 CURVE",
"1915.72 1201.04 OFFCURVE",
"1976.96 1218.11 OFFCURVE",
"2033.97 1243.39 CURVE",
"1991.36 1179.67 OFFCURVE",
"1937.48 1123.69 OFFCURVE",
"1875.4 1078.89 CURVE",
"1875.4 1037.77 LINE SMOOTH",
"1876.32 617.83 OFFCURVE",
"1556.67 133.592 OFFCURVE",
"972.14 133.592 CURVE SMOOTH",
"792.676 133.592 OFFCURVE",
"625.634 186.211 OFFCURVE",
"485 276.379 CURVE",
"509.863 273.433 OFFCURVE",
"535.166 271.927 OFFCURVE",
"560.811 271.927 CURVE SMOOTH",
"709.699 271.927 OFFCURVE",
"846.721 322.732 OFFCURVE",
"955.48 407.964 CURVE",
"816.424 410.533 OFFCURVE",
"699.059 502.417 OFFCURVE",
"658.623 628.662 CURVE",
"678.039 624.954 OFFCURVE",
"697.941 622.955 OFFCURVE",
"718.415 622.955 CURVE SMOOTH",
"747.398 622.955 OFFCURVE",
"775.471 626.845 OFFCURVE",
"802.132 634.108 CURVE",
"656.768 663.308 OFFCURVE",
"547.22 791.751 OFFCURVE",
"547.22 945.716 CURVE SMOOTH",
"547.251 949.716 LINE",
"590.091 925.918 OFFCURVE",
"639.101 911.623 OFFCURVE",
"691.187 909.972 CURVE",
"605.911 966.962 OFFCURVE",
"549.815 1064.22 OFFCURVE",
"549.815 1174.48 CURVE SMOOTH",
"549.815 1232.72 OFFCURVE",
"565.48 1287.31 OFFCURVE",
"592.844 1334.25 CURVE",
"749.578 1141.98 OFFCURVE",
"983.748 1015.46 OFFCURVE",
"1247.86 1002.2 CURVE",
"1242.43 1025.48 OFFCURVE",
"1239.62 1049.72 OFFCURVE",
"1239.62 1074.63 CURVE SMOOTH",
"1239.62 1250.13 OFFCURVE",
"1381.92 1392.4 OFFCURVE",
"1557.41 1392.4 CURVE SMOOTH"
);
}
);
width = 2400;
}
);
unicode = E031;
},
{
glyphname = uniE032;
lastChange = "2013-10-29 20:22:55 -0800";
layers = (
{
layerId = "06D35582-4FA2-40C1-8C5B-DEFCD1A2473F";
name = Regular;
paths = (
{
closed = 1;
nodes = (
"256 1969 LINE SMOOTH",
"114.615 1969 OFFCURVE",
"0 1854.39 OFFCURVE",
"0 1713 CURVE SMOOTH",
"0 -175 LINE SMOOTH",
"0 -316 OFFCURVE",
"114.615 -431 OFFCURVE",
"256 -431 CURVE SMOOTH",
"2144 -431 LINE SMOOTH",
"2285.38 -431 OFFCURVE",
"2400 -316 OFFCURVE",
"2400 -175 CURVE SMOOTH",
"2400 1713 LINE SMOOTH",
"2400 1854.39 OFFCURVE",
"2285.38 1969 OFFCURVE",
"2144 1969 CURVE SMOOTH"
);
},
{
closed = 1;
nodes = (
"1648.82 1392.4 OFFCURVE",
"1731.4 1353.83 OFFCURVE",
"1789.36 1292.06 CURVE",
"1861.76 1306.31 OFFCURVE",
"1929.77 1332.76 OFFCURVE",
"1991.17 1369.18 CURVE",
"1967.44 1294.96 OFFCURVE",
"1917.05 1232.69 OFFCURVE",
"1851.45 1193.36 CURVE",
"1915.72 1201.04 OFFCURVE",
"1976.96 1218.11 OFFCURVE",
"2033.97 1243.39 CURVE",
"1991.36 1179.67 OFFCURVE",
"1937.48 1123.69 OFFCURVE",
"1875.4 1078.89 CURVE",
"1875.4 1037.77 LINE SMOOTH",
"1876.32 617.83 OFFCURVE",
"1556.67 133.592 OFFCURVE",
"972.14 133.592 CURVE SMOOTH",
"792.676 133.592 OFFCURVE",
"625.634 186.211 OFFCURVE",
"485 276.379 CURVE",
"509.863 273.433 OFFCURVE",
"535.166 271.927 OFFCURVE",
"560.811 271.927 CURVE SMOOTH",
"709.699 271.927 OFFCURVE",
"846.721 322.732 OFFCURVE",
"955.48 407.964 CURVE",
"816.424 410.533 OFFCURVE",
"699.059 502.417 OFFCURVE",
"658.623 628.662 CURVE",
"678.039 624.954 OFFCURVE",
"697.941 622.955 OFFCURVE",
"718.415 622.955 CURVE SMOOTH",
"747.398 622.955 OFFCURVE",
"775.471 626.845 OFFCURVE",
"802.132 634.108 CURVE",
"656.768 663.308 OFFCURVE",
"547.22 791.751 OFFCURVE",
"547.22 945.716 CURVE SMOOTH",
"547.251 949.716 LINE",
"590.091 925.918 OFFCURVE",
"639.101 911.623 OFFCURVE",
"691.187 909.972 CURVE",
"605.911 966.962 OFFCURVE",
"549.815 1064.22 OFFCURVE",
"549.815 1174.48 CURVE SMOOTH",
"549.815 1232.72 OFFCURVE",
"565.48 1287.31 OFFCURVE",
"592.844 1334.25 CURVE",
"749.578 1141.98 OFFCURVE",
"983.748 1015.46 OFFCURVE",
"1247.86 1002.2 CURVE",
"1242.43 1025.48 OFFCURVE",
"1239.62 1049.72 OFFCURVE",
"1239.62 1074.63 CURVE SMOOTH",
"1239.62 1250.13 OFFCURVE",
"1381.92 1392.4 OFFCURVE",
"1557.41 1392.4 CURVE SMOOTH"
);
}
);
width = 2400;
}
);
unicode = E032;
},
{
glyphname = uniE033;
lastChange = "2013-10-29 20:22:53 -0800";
layers = (
{
layerId = "06D35582-4FA2-40C1-8C5B-DEFCD1A2473F";
name = Regular;
paths = (
{
closed = 1;
nodes = (
"352 1969 LINE SMOOTH",
"157.596 1969 OFFCURVE",
"0 1811.4 OFFCURVE",
"0 1617 CURVE SMOOTH",
"0 -79 LINE SMOOTH",
"0 -273 OFFCURVE",
"157.596 -431 OFFCURVE",
"352 -431 CURVE SMOOTH",
"2048 -431 LINE SMOOTH",
"2242.4 -431 OFFCURVE",
"2400 -273 OFFCURVE",
"2400 -79 CURVE SMOOTH",
"2400 1617 LINE SMOOTH",
"2400 1811.4 OFFCURVE",
"2242.4 1969 OFFCURVE",
"2048 1969 CURVE SMOOTH"
);
},
{
closed = 1;
nodes = (
"1648.82 1392.4 OFFCURVE",
"1731.4 1353.83 OFFCURVE",
"1789.36 1292.06 CURVE",
"1861.76 1306.31 OFFCURVE",
"1929.77 1332.76 OFFCURVE",
"1991.17 1369.19 CURVE",
"1967.44 1294.96 OFFCURVE",
"1917.05 1232.69 OFFCURVE",
"1851.45 1193.36 CURVE",
"1915.72 1201.04 OFFCURVE",
"1976.96 1218.11 OFFCURVE",
"2033.97 1243.39 CURVE",
"1991.36 1179.67 OFFCURVE",
"1937.48 1123.69 OFFCURVE",
"1875.4 1078.89 CURVE",
"1875.4 1037.77 LINE SMOOTH",
"1876.32 617.83 OFFCURVE",
"1556.67 133.592 OFFCURVE",
"972.14 133.592 CURVE SMOOTH",
"792.676 133.592 OFFCURVE",
"625.634 186.211 OFFCURVE",
"485 276.378 CURVE",
"509.863 273.433 OFFCURVE",
"535.166 271.927 OFFCURVE",
"560.811 271.927 CURVE SMOOTH",
"709.699 271.927 OFFCURVE",
"846.721 322.732 OFFCURVE",
"955.48 407.964 CURVE",
"816.424 410.533 OFFCURVE",
"699.059 502.417 OFFCURVE",
"658.623 628.662 CURVE",
"678.039 624.954 OFFCURVE",
"697.941 622.955 OFFCURVE",
"718.415 622.955 CURVE SMOOTH",
"747.398 622.955 OFFCURVE",
"775.471 626.845 OFFCURVE",
"802.132 634.108 CURVE",
"656.768 663.308 OFFCURVE",
"547.22 791.751 OFFCURVE",
"547.22 945.716 CURVE SMOOTH",
"547.251 949.716 LINE",
"590.091 925.918 OFFCURVE",
"639.101 911.623 OFFCURVE",
"691.187 909.972 CURVE",
"605.911 966.962 OFFCURVE",
"549.815 1064.22 OFFCURVE",
"549.815 1174.48 CURVE SMOOTH",
"549.815 1232.72 OFFCURVE",
"565.48 1287.31 OFFCURVE",
"592.844 1334.25 CURVE",
"749.578 1141.98 OFFCURVE",
"983.748 1015.46 OFFCURVE",
"1247.86 1002.2 CURVE",
"1242.44 1025.48 OFFCURVE",
"1239.63 1049.72 OFFCURVE",
"1239.63 1074.63 CURVE SMOOTH",
"1239.63 1250.13 OFFCURVE",
"1381.92 1392.4 OFFCURVE",
"1557.41 1392.4 CURVE SMOOTH"
);
}
);
width = 2400;
}
);
unicode = E033;
},
{
glyphname = uniE034;
lastChange = "2013-10-29 20:22:50 -0800";
layers = (
{
layerId = "06D35582-4FA2-40C1-8C5B-DEFCD1A2473F";
name = Regular;
paths = (
{
closed = 1;
nodes = (
"836.742 1969 LINE SMOOTH",
"595.804 1969 OFFCURVE",
"475.34 1969 OFFCURVE",
"345.66 1928 CURVE",
"204.07 1876.46 OFFCURVE",
"92.539 1764.93 OFFCURVE",
"41.004 1623.34 CURVE",
"0 1493.66 OFFCURVE",
"0 1373.2 OFFCURVE",
"0 1132.26 CURVE SMOOTH",
"0 405.743 LINE SMOOTH",
"0 164.805 OFFCURVE",
"0 44.344 OFFCURVE",
"41.004 -85 CURVE",
"92.539 -227 OFFCURVE",
"204.07 -338 OFFCURVE",
"345.66 -390 CURVE",
"475.34 -431 OFFCURVE",
"595.804 -431 OFFCURVE",
"836.742 -431 CURVE SMOOTH",
"1563.26 -431 LINE SMOOTH",
"1804.2 -431 OFFCURVE",
"1924.66 -431 OFFCURVE",
"2054.34 -390 CURVE",
"2195.93 -338 OFFCURVE",
"2307.46 -227 OFFCURVE",
"2359 -85 CURVE",
"2400 44.344 OFFCURVE",
"2400 164.805 OFFCURVE",
"2400 405.743 CURVE SMOOTH",
"2400 1132.26 LINE SMOOTH",
"2400 1373.2 OFFCURVE",
"2400 1493.66 OFFCURVE",
"2359 1623.34 CURVE",
"2307.46 1764.93 OFFCURVE",
"2195.93 1876.46 OFFCURVE",
"2054.34 1928 CURVE",
"1924.66 1969 OFFCURVE",
"1804.2 1969 OFFCURVE",
"1563.26 1969 CURVE SMOOTH"
);
},
{
closed = 1;
nodes = (
"1648.82 1392.4 OFFCURVE",
"1731.4 1353.83 OFFCURVE",
"1789.36 1292.06 CURVE",
"1861.76 1306.31 OFFCURVE",
"1929.77 1332.76 OFFCURVE",
"1991.17 1369.19 CURVE",
"1967.44 1294.96 OFFCURVE",
"1917.05 1232.69 OFFCURVE",
"1851.45 1193.36 CURVE",
"1915.72 1201.04 OFFCURVE",
"1976.96 1218.11 OFFCURVE",
"2033.97 1243.39 CURVE",
"1991.36 1179.67 OFFCURVE",
"1937.48 1123.69 OFFCURVE",
"1875.4 1078.89 CURVE",
"1875.4 1037.77 LINE SMOOTH",
"1876.32 617.83 OFFCURVE",
"1556.67 133.592 OFFCURVE",
"972.14 133.592 CURVE SMOOTH",
"792.676 133.592 OFFCURVE",
"625.634 186.211 OFFCURVE",
"485 276.378 CURVE",
"509.863 273.433 OFFCURVE",
"535.166 271.927 OFFCURVE",
"560.811 271.927 CURVE SMOOTH",
"709.699 271.927 OFFCURVE",
"846.721 322.732 OFFCURVE",
"955.48 407.964 CURVE",
"816.424 410.533 OFFCURVE",
"699.059 502.417 OFFCURVE",
"658.623 628.662 CURVE",
"678.039 624.954 OFFCURVE",
"697.941 622.955 OFFCURVE",
"718.415 622.955 CURVE SMOOTH",
"747.398 622.955 OFFCURVE",
"775.471 626.845 OFFCURVE",
"802.132 634.108 CURVE",
"656.768 663.308 OFFCURVE",
"547.22 791.751 OFFCURVE",
"547.22 945.716 CURVE SMOOTH",
"547.251 949.716 LINE",
"590.091 925.918 OFFCURVE",
"639.101 911.623 OFFCURVE",
"691.187 909.972 CURVE",
"605.911 966.962 OFFCURVE",
"549.815 1064.22 OFFCURVE",
"549.815 1174.48 CURVE SMOOTH",
"549.815 1232.72 OFFCURVE",
"565.48 1287.31 OFFCURVE",
"592.844 1334.25 CURVE",
"749.578 1141.98 OFFCURVE",
"983.748 1015.46 OFFCURVE",
"1247.86 1002.2 CURVE",
"1242.44 1025.48 OFFCURVE",
"1239.63 1049.72 OFFCURVE",
"1239.63 1074.63 CURVE SMOOTH",
"1239.63 1250.13 OFFCURVE",
"1381.92 1392.4 OFFCURVE",
"1557.41 1392.4 CURVE SMOOTH"
);
}
);
width = 2400;
}
);
unicode = E034;
},
{
glyphname = uniE035;
lastChange = "2013-10-29 20:22:47 -0800";
layers = (
{
layerId = "06D35582-4FA2-40C1-8C5B-DEFCD1A2473F";
name = Regular;
paths = (
{
closed = 1;
nodes = (
"537.252 1969 OFFCURVE",
"0 1431.75 OFFCURVE",
"0 769 CURVE SMOOTH",
"0 106.252 OFFCURVE",
"537.252 -431 OFFCURVE",
"1200 -431 CURVE SMOOTH",
"1862.75 -431 OFFCURVE",
"2400 106.252 OFFCURVE",
"2400 769 CURVE SMOOTH",
"2400 1431.75 OFFCURVE",
"1862.75 1969 OFFCURVE",
"1200 1969 CURVE SMOOTH"
);
},
{
closed = 1;
nodes = (
"1648.82 1392.4 OFFCURVE",
"1731.4 1353.83 OFFCURVE",
"1789.36 1292.06 CURVE",
"1861.76 1306.31 OFFCURVE",
"1929.77 1332.76 OFFCURVE",
"1991.17 1369.18 CURVE",
"1967.44 1294.96 OFFCURVE",
"1917.05 1232.69 OFFCURVE",
"1851.45 1193.36 CURVE",
"1915.72 1201.04 OFFCURVE",
"1976.96 1218.11 OFFCURVE",
"2033.97 1243.39 CURVE",
"1991.36 1179.67 OFFCURVE",
"1937.48 1123.69 OFFCURVE",
"1875.4 1078.89 CURVE",
"1875.4 1037.77 LINE SMOOTH",
"1876.32 617.831 OFFCURVE",
"1556.67 133.593 OFFCURVE",
"972.14 133.593 CURVE SMOOTH",
"792.676 133.593 OFFCURVE",
"625.634 186.212 OFFCURVE",
"485 276.38 CURVE",
"509.863 273.434 OFFCURVE",
"535.166 271.928 OFFCURVE",
"560.811 271.928 CURVE SMOOTH",
"709.699 271.928 OFFCURVE",
"846.721 322.733 OFFCURVE",
"955.48 407.965 CURVE",
"816.424 410.534 OFFCURVE",
"699.059 502.418 OFFCURVE",
"658.623 628.663 CURVE",
"678.039 624.955 OFFCURVE",
"697.941 622.956 OFFCURVE",
"718.415 622.956 CURVE SMOOTH",
"747.398 622.956 OFFCURVE",
"775.471 626.846 OFFCURVE",
"802.132 634.109 CURVE",
"656.768 663.309 OFFCURVE",
"547.22 791.752 OFFCURVE",
"547.22 945.717 CURVE SMOOTH",
"547.251 949.717 LINE",
"590.091 925.919 OFFCURVE",
"639.101 911.624 OFFCURVE",
"691.187 909.973 CURVE",
"605.911 966.963 OFFCURVE",
"549.815 1064.22 OFFCURVE",
"549.815 1174.48 CURVE SMOOTH",
"549.815 1232.72 OFFCURVE",
"565.48 1287.31 OFFCURVE",
"592.844 1334.25 CURVE",
"749.578 1141.98 OFFCURVE",
"983.748 1015.46 OFFCURVE",
"1247.86 1002.2 CURVE",
"1242.43 1025.48 OFFCURVE",
"1239.62 1049.72 OFFCURVE",
"1239.62 1074.63 CURVE SMOOTH",
"1239.62 1250.13 OFFCURVE",
"1381.92 1392.4 OFFCURVE",
"1557.41 1392.4 CURVE SMOOTH"
);
}
);
width = 2400;
}
);
unicode = E035;
},
{
glyphname = uniE036;
lastChange = "2013-10-29 20:22:44 -0800";
layers = (
{
layerId = "06D35582-4FA2-40C1-8C5B-DEFCD1A2473F";
name = Regular;
paths = (
{
closed = 1;
nodes = (
"1648.82 1392.4 OFFCURVE",
"1731.4 1353.83 OFFCURVE",
"1789.36 1292.06 CURVE",
"1861.76 1306.31 OFFCURVE",
"1929.77 1332.76 OFFCURVE",
"1991.17 1369.18 CURVE",
"1967.44 1294.96 OFFCURVE",
"1917.05 1232.69 OFFCURVE",
"1851.45 1193.36 CURVE",
"1915.72 1201.04 OFFCURVE",
"1976.96 1218.11 OFFCURVE",
"2033.97 1243.39 CURVE",
"1991.36 1179.67 OFFCURVE",
"1937.48 1123.69 OFFCURVE",
"1875.4 1078.89 CURVE",
"1875.4 1037.77 LINE SMOOTH",
"1876.32 617.83 OFFCURVE",
"1556.67 133.592 OFFCURVE",
"972.14 133.592 CURVE SMOOTH",
"792.676 133.592 OFFCURVE",
"625.634 186.211 OFFCURVE",
"485 276.379 CURVE",
"509.863 273.433 OFFCURVE",
"535.166 271.927 OFFCURVE",
"560.811 271.927 CURVE SMOOTH",
"709.699 271.927 OFFCURVE",
"846.721 322.732 OFFCURVE",
"955.48 407.964 CURVE",
"816.424 410.533 OFFCURVE",
"699.059 502.417 OFFCURVE",
"658.623 628.662 CURVE",
"678.039 624.954 OFFCURVE",
"697.941 622.955 OFFCURVE",
"718.415 622.955 CURVE SMOOTH",
"747.398 622.955 OFFCURVE",
"775.471 626.845 OFFCURVE",
"802.132 634.108 CURVE",
"656.768 663.308 OFFCURVE",
"547.22 791.751 OFFCURVE",
"547.22 945.716 CURVE SMOOTH",
"547.251 949.715 LINE",
"590.091 925.917 OFFCURVE",
"639.101 911.622 OFFCURVE",
"691.187 909.971 CURVE",
"605.911 966.961 OFFCURVE",
"549.815 1064.22 OFFCURVE",
"549.815 1174.48 CURVE SMOOTH",
"549.815 1232.72 OFFCURVE",
"565.48 1287.31 OFFCURVE",
"592.844 1334.25 CURVE",
"749.578 1141.98 OFFCURVE",
"983.748 1015.46 OFFCURVE",
"1247.86 1002.2 CURVE",
"1242.43 1025.48 OFFCURVE",
"1239.62 1049.72 OFFCURVE",
"1239.62 1074.63 CURVE SMOOTH",
"1239.62 1250.13 OFFCURVE",
"1381.92 1392.4 OFFCURVE",
"1557.41 1392.4 CURVE SMOOTH"
);
}
);
width = 2400;
}
);
unicode = E036;
},
{
glyphname = uniE037;
lastChange = "2014-01-08 19:15:44 -0800";
layers = (
{
layerId = "06D35582-4FA2-40C1-8C5B-DEFCD1A2473F";
name = Regular;
paths = (
{
closed = 1;
nodes = (
"2076 1303 LINE",
"324 1303 LINE",
"324 235 LINE",
"2076 235 LINE"
);
}
);
width = 2400;
}
);
unicode = E037;
},
{
glyphname = uniE03A;
lastChange = "2013-12-03 05:50:48 -0800";
layers = (
{
layerId = "06D35582-4FA2-40C1-8C5B-DEFCD1A2473F";
name = Regular;
paths = (
{
closed = 1;
nodes = (
"2400 1969 LINE",
"0 1969 LINE",
"0 -431 LINE",
"2400 -431 LINE"
);
},
{
closed = 1;
nodes = (
"1546.77 1562 LINE",
"1490.6 1532.98 OFFCURVE",
"1436.2 1503.98 OFFCURVE",
"1381.76 1474.94 CURVE SMOOTH",
"1374.93 1471.52 OFFCURVE",
"1369.01 1473 OFFCURVE",
"1365 1473 CURVE SMOOTH",
"1264.69 1473 LINE",
"1317.08 1428.72 OFFCURVE",
"1358.76 1373.83 OFFCURVE",
"1383.48 1308.84 CURVE SMOOTH",
"1411 1236.47 OFFCURVE",
"1411 1147.46 OFFCURVE",
"1382.43 1076.03 CURVE SMOOTH",
"1352.77 998.31 OFFCURVE",
"1290.08 942.816 OFFCURVE",
"1226.85 894.638 CURVE SMOOTH",
"1211.48 883.115 OFFCURVE",
"1199.05 868.762 OFFCURVE",
"1186.05 853.762 CURVE SMOOTH",
"1174.43 840.213 OFFCURVE",
"1166.62 828.061 OFFCURVE",
"1163.89 811.686 CURVE SMOOTH",
"1161.02 796.385 OFFCURVE",
"1161 780.254 OFFCURVE",
"1164.67 765.313 CURVE",
"1170.15 750.043 OFFCURVE",
"1179.77 739.563 OFFCURVE",
"1192.43 727.878 CURVE SMOOTH",
"1220.08 701.217 OFFCURVE",
"1251.72 679.463 OFFCURVE",
"1282.9 655.325 CURVE SMOOTH",
"1304.19 639.099 OFFCURVE",
"1324.35 619.952 OFFCURVE",
"1344.18 603.095 CURVE SMOOTH",
"1375.41 575.897 OFFCURVE",
"1405.22 547.116 OFFCURVE",
"1427.72 512.345 CURVE SMOOTH",
"1519.66 374.422 OFFCURVE",
"1471.11 193.646 OFFCURVE",
"1354.37 88.065 CURVE SMOOTH",
"1239.9 -16 OFFCURVE",
"1078.1 -57 OFFCURVE",
"927.212 -61 CURVE SMOOTH",
"781.52 -65 OFFCURVE",
"609.109 -40 OFFCURVE",
"502.211 72.475 CURVE SMOOTH",
"450.049 126.682 OFFCURVE",
"421.786 205.191 OFFCURVE",
"433.087 280.19 CURVE SMOOTH",
"443.276 350.496 OFFCURVE",
"478.61 418.047 OFFCURVE",
"532.753 465.039 CURVE SMOOTH",
"657.525 573.581 OFFCURVE",
"834.171 598.961 OFFCURVE",
"990.485 608.981 CURVE SMOOTH",
"1000.02 609.81 LINE",
"977.817 637.213 OFFCURVE",
"955.392 668.707 OFFCURVE",
"947.202 704.198 CURVE SMOOTH",
"937.893 745.158 OFFCURVE",
"944.586 782.772 OFFCURVE",
"959.952 819.429 CURVE",
"885.418 811.676 OFFCURVE",
"807.665 818.099 OFFCURVE",
"738.663 849.725 CURVE SMOOTH",
"669.47 880.25 OFFCURVE",
"614.509 933.137 OFFCURVE",
"578.905 1001.29 CURVE SMOOTH",
"510.714 1135.64 OFFCURVE",
"536.452 1312.71 OFFCURVE",
"640.258 1419.57 CURVE SMOOTH",
"696.008 1477.35 OFFCURVE",
"757.827 1513.41 OFFCURVE",
"838.786 1536.69 CURVE SMOOTH",
"912.671 1557.94 OFFCURVE",
"992.794 1562 OFFCURVE",
"1070 1562 CURVE SMOOTH"
);
},
{
closed = 1;
nodes = (
"905.844 1479 OFFCURVE",
"879.607 1473.38 OFFCURVE",
"853.467 1460.79 CURVE SMOOTH",
"826.179 1448.12 OFFCURVE",
"805.627 1432.24 OFFCURVE",
"789.215 1411.97 CURVE SMOOTH",
"770.745 1389.61 OFFCURVE",
"759.529 1367.18 OFFCURVE",
"752.741 1340.99 CURVE",
"746.9 1314.69 OFFCURVE",
"743.997 1288.56 OFFCURVE",
"743.997 1260 CURVE SMOOTH",
"743.997 1225.51 OFFCURVE",
"748.872 1187.48 OFFCURVE",
"759.758 1143.94 CURVE SMOOTH",
"770.635 1100.43 OFFCURVE",
"786.227 1060.48 OFFCURVE",
"807.92 1023.01 CURVE SMOOTH",
"830.478 985.74 OFFCURVE",
"857.529 954.824 OFFCURVE",
"889.947 929.282 CURVE SMOOTH",
"922.769 904.184 OFFCURVE",
"960.263 891.998 OFFCURVE",
"1005 891.998 CURVE SMOOTH",
"1031.26 891.998 OFFCURVE",
"1056.74 896.715 OFFCURVE",
"1082.98 907.406 CURVE",
"1108.16 919.035 OFFCURVE",
"1129.06 932.337 OFFCURVE",
"1146.51 948.813 CURVE SMOOTH",
"1169.55 971.86 OFFCURVE",
"1183.41 996.81 OFFCURVE",
"1189.16 1024.62 CURVE SMOOTH",
"1195.06 1054.1 OFFCURVE",
"1197 1078.32 OFFCURVE",
"1197 1097 CURVE SMOOTH",
"1197 1134.52 OFFCURVE",
"1192.12 1175.48 OFFCURVE",
"1180.27 1219.93 CURVE SMOOTH",
"1169.38 1264.49 OFFCURVE",
"1151.83 1306.4 OFFCURVE",
"1129.11 1344.93 CURVE SMOOTH",
"1106.43 1384.38 OFFCURVE",
"1079.46 1416.16 OFFCURVE",
"1046.14 1441.64 CURVE SMOOTH",
"1014.17 1466.83 OFFCURVE",
"976.732 1479 OFFCURVE",
"933.996 1479 CURVE SMOOTH"
);
},
{
closed = 1;
nodes = (
"1842 1062 LINE",
"1842 854.997 LINE",
"2048 854.997 LINE",
"2048 723.997 LINE",
"1842 723.997 LINE",
"1842 517.997 LINE",
"1710 517.997 LINE",
"1710 723.997 LINE",
"1504 723.997 LINE",
"1504 854.997 LINE",
"1710 854.997 LINE",
"1710 1062 LINE"
);
},
{
closed = 1;
nodes = (
"1039 535.997 LINE SMOOTH",
"1035.4 535.997 OFFCURVE",
"1025.4 534.997 OFFCURVE",
"1009 534.997 CURVE",
"993.498 534.013 OFFCURVE",
"975.583 533.018 OFFCURVE",
"953.723 531.031 CURVE",
"933.082 528.072 OFFCURVE",
"910.302 525.101 OFFCURVE",
"885.568 520.154 CURVE SMOOTH",
"861.786 515.199 OFFCURVE",
"838.135 509.286 OFFCURVE",
"815.328 502.345 CURVE",
"804.89 498.537 OFFCURVE",
"788.164 491.65 OFFCURVE",
"768.282 482.703 CURVE SMOOTH",
"747.701 473.881 OFFCURVE",
"727.722 461.513 OFFCURVE",
"708.181 444.903 CURVE SMOOTH",
"688.749 428.386 OFFCURVE",
"672.498 408.311 OFFCURVE",
"656.738 383.686 CURVE",
"642.536 359.052 OFFCURVE",
"635.999 330.106 OFFCURVE",
"635.999 292.998 CURVE SMOOTH",
"635.999 219.048 OFFCURVE",
"668.125 160.467 OFFCURVE",
"734.614 113.534 CURVE SMOOTH",
"801.418 66.379 OFFCURVE",
"892.017 42.999 OFFCURVE",
"1007 42.999 CURVE SMOOTH",
"1109.89 42.999 OFFCURVE",
"1185.28 64.261 OFFCURVE",
"1238.02 106.257 CURVE SMOOTH",
"1290.64 148.157 OFFCURVE",
"1316 198.888 OFFCURVE",
"1316 262.999 CURVE SMOOTH",
"1316 289.175 OFFCURVE",
"1311.32 311.65 OFFCURVE",
"1302.6 332.971 CURVE SMOOTH",
"1293.9 354.229 OFFCURVE",
"1280.67 374.071 OFFCURVE",
"1262.07 394.633 CURVE SMOOTH",
"1243.32 415.356 OFFCURVE",
"1219.85 436.866 OFFCURVE",
"1190.13 459.652 CURVE",
"1159.73 481.22 OFFCURVE",
"1125.3 506.788 OFFCURVE",
"1086.08 534.28 CURVE",
"1077.99 535.201 OFFCURVE",
"1071.94 536 OFFCURVE",
"1066 535.997 CURVE SMOOTH"
);
}
);
width = 2400;
}
);
unicode = E03A;
},
{
glyphname = uniE03B;
lastChange = "2013-12-03 05:51:00 -0800";
layers = (
{
layerId = "06D35582-4FA2-40C1-8C5B-DEFCD1A2473F";
name = Regular;
paths = (
{
closed = 1;
nodes = (
"256 1969 LINE SMOOTH",
"114.615 1969 OFFCURVE",
"0 1854.39 OFFCURVE",
"0 1713 CURVE SMOOTH",
"0 -175 LINE SMOOTH",
"0 -316 OFFCURVE",
"114.615 -431 OFFCURVE",
"256 -431 CURVE SMOOTH",
"2144 -431 LINE SMOOTH",
"2285.38 -431 OFFCURVE",
"2400 -316 OFFCURVE",
"2400 -175 CURVE SMOOTH",
"2400 1713 LINE SMOOTH",
"2400 1854.39 OFFCURVE",
"2285.38 1969 OFFCURVE",
"2144 1969 CURVE SMOOTH"
);
},
{
closed = 1;
nodes = (
"1546.77 1562 LINE",
"1490.6 1532.98 OFFCURVE",
"1436.2 1503.98 OFFCURVE",
"1381.76 1474.94 CURVE SMOOTH",
"1374.93 1471.52 OFFCURVE",
"1369.01 1473 OFFCURVE",
"1365 1473 CURVE SMOOTH",
"1264.69 1473 LINE",
"1317.08 1428.72 OFFCURVE",
"1358.76 1373.83 OFFCURVE",
"1383.48 1308.84 CURVE SMOOTH",
"1411 1236.47 OFFCURVE",
"1411 1147.46 OFFCURVE",
"1382.43 1076.03 CURVE SMOOTH",
"1352.77 998.31 OFFCURVE",
"1290.08 942.816 OFFCURVE",
"1226.85 894.638 CURVE SMOOTH",
"1211.48 883.115 OFFCURVE",
"1199.05 868.762 OFFCURVE",
"1186.05 853.762 CURVE SMOOTH",
"1174.43 840.213 OFFCURVE",
"1166.62 828.061 OFFCURVE",
"1163.89 811.686 CURVE SMOOTH",
"1161.02 796.385 OFFCURVE",
"1161 780.254 OFFCURVE",
"1164.67 765.313 CURVE",
"1170.15 750.043 OFFCURVE",
"1179.77 739.563 OFFCURVE",
"1192.43 727.878 CURVE SMOOTH",
"1220.08 701.217 OFFCURVE",
"1251.72 679.463 OFFCURVE",
"1282.9 655.325 CURVE SMOOTH",
"1304.19 639.099 OFFCURVE",
"1324.35 619.952 OFFCURVE",
"1344.18 603.095 CURVE SMOOTH",
"1375.41 575.897 OFFCURVE",
"1405.22 547.116 OFFCURVE",
"1427.72 512.345 CURVE SMOOTH",
"1519.66 374.422 OFFCURVE",
"1471.11 193.646 OFFCURVE",
"1354.37 88.065 CURVE SMOOTH",
"1239.9 -16 OFFCURVE",
"1078.1 -57 OFFCURVE",
"927.212 -61 CURVE SMOOTH",
"781.52 -65 OFFCURVE",
"609.109 -40 OFFCURVE",
"502.211 72.475 CURVE SMOOTH",
"450.049 126.682 OFFCURVE",
"421.786 205.191 OFFCURVE",
"433.087 280.19 CURVE SMOOTH",
"443.276 350.496 OFFCURVE",
"478.61 418.047 OFFCURVE",
"532.753 465.039 CURVE SMOOTH",
"657.525 573.581 OFFCURVE",
"834.171 598.961 OFFCURVE",
"990.485 608.981 CURVE SMOOTH",
"1000.02 609.81 LINE",
"977.817 637.213 OFFCURVE",
"955.392 668.707 OFFCURVE",
"947.202 704.198 CURVE SMOOTH",
"937.893 745.158 OFFCURVE",
"944.586 782.772 OFFCURVE",
"959.952 819.429 CURVE",
"885.418 811.676 OFFCURVE",
"807.665 818.099 OFFCURVE",
"738.663 849.725 CURVE SMOOTH",
"669.47 880.25 OFFCURVE",
"614.509 933.137 OFFCURVE",
"578.905 1001.29 CURVE SMOOTH",
"510.714 1135.64 OFFCURVE",
"536.452 1312.71 OFFCURVE",
"640.258 1419.57 CURVE SMOOTH",
"696.008 1477.35 OFFCURVE",
"757.827 1513.41 OFFCURVE",
"838.786 1536.69 CURVE SMOOTH",
"912.671 1557.94 OFFCURVE",
"992.794 1562 OFFCURVE",
"1070 1562 CURVE SMOOTH"
);
},
{
closed = 1;
nodes = (
"905.844 1479 OFFCURVE",
"879.607 1473.38 OFFCURVE",
"853.467 1460.79 CURVE SMOOTH",
"826.179 1448.12 OFFCURVE",
"805.627 1432.24 OFFCURVE",
"789.215 1411.97 CURVE SMOOTH",
"770.745 1389.61 OFFCURVE",
"759.529 1367.18 OFFCURVE",
"752.741 1340.99 CURVE",
"746.9 1314.69 OFFCURVE",
"743.997 1288.56 OFFCURVE",
"743.997 1260 CURVE SMOOTH",
"743.997 1225.51 OFFCURVE",
"748.872 1187.48 OFFCURVE",
"759.758 1143.94 CURVE SMOOTH",
"770.635 1100.43 OFFCURVE",
"786.227 1060.48 OFFCURVE",
"807.92 1023.01 CURVE SMOOTH",
"830.478 985.74 OFFCURVE",
"857.529 954.824 OFFCURVE",
"889.947 929.282 CURVE SMOOTH",
"922.769 904.184 OFFCURVE",
"960.263 891.998 OFFCURVE",
"1005 891.998 CURVE SMOOTH",
"1031.26 891.998 OFFCURVE",
"1056.74 896.715 OFFCURVE",
"1082.98 907.406 CURVE",
"1108.16 919.035 OFFCURVE",
"1129.06 932.337 OFFCURVE",
"1146.51 948.813 CURVE SMOOTH",
"1169.55 971.86 OFFCURVE",
"1183.41 996.81 OFFCURVE",
"1189.16 1024.62 CURVE SMOOTH",
"1195.06 1054.1 OFFCURVE",
"1197 1078.32 OFFCURVE",
"1197 1097 CURVE SMOOTH",
"1197 1134.52 OFFCURVE",
"1192.12 1175.48 OFFCURVE",
"1180.27 1219.93 CURVE SMOOTH",
"1169.38 1264.49 OFFCURVE",
"1151.83 1306.4 OFFCURVE",
"1129.11 1344.93 CURVE SMOOTH",
"1106.43 1384.38 OFFCURVE",
"1079.46 1416.16 OFFCURVE",
"1046.14 1441.64 CURVE SMOOTH",
"1014.17 1466.83 OFFCURVE",
"976.732 1479 OFFCURVE",
"933.996 1479 CURVE SMOOTH"
);
},
{
closed = 1;
nodes = (
"1842 1062 LINE",
"1842 854.997 LINE",
"2048 854.997 LINE",
"2048 723.997 LINE",
"1842 723.997 LINE",
"1842 517.997 LINE",
"1710 517.997 LINE",
"1710 723.997 LINE",
"1504 723.997 LINE",
"1504 854.997 LINE",
"1710 854.997 LINE",
"1710 1062 LINE"
);
},
{
closed = 1;
nodes = (
"1039 535.997 LINE SMOOTH",
"1035.4 535.997 OFFCURVE",
"1025.4 534.997 OFFCURVE",
"1009 534.997 CURVE",
"993.498 534.013 OFFCURVE",
"975.583 533.018 OFFCURVE",
"953.723 531.031 CURVE",
"933.082 528.072 OFFCURVE",
"910.302 525.101 OFFCURVE",
"885.568 520.154 CURVE SMOOTH",
"861.786 515.199 OFFCURVE",
"838.135 509.286 OFFCURVE",
"815.328 502.345 CURVE",
"804.89 498.537 OFFCURVE",
"788.164 491.65 OFFCURVE",
"768.282 482.703 CURVE SMOOTH",
"747.701 473.881 OFFCURVE",
"727.722 461.513 OFFCURVE",
"708.181 444.903 CURVE SMOOTH",
"688.749 428.386 OFFCURVE",
"672.498 408.311 OFFCURVE",
"656.738 383.686 CURVE",
"642.536 359.052 OFFCURVE",
"635.999 330.106 OFFCURVE",
"635.999 292.998 CURVE SMOOTH",
"635.999 219.048 OFFCURVE",
"668.125 160.467 OFFCURVE",
"734.614 113.534 CURVE SMOOTH",
"801.418 66.379 OFFCURVE",
"892.017 42.999 OFFCURVE",
"1007 42.999 CURVE SMOOTH",
"1109.89 42.999 OFFCURVE",
"1185.28 64.261 OFFCURVE",
"1238.02 106.257 CURVE SMOOTH",
"1290.64 148.157 OFFCURVE",
"1316 198.888 OFFCURVE",
"1316 262.999 CURVE SMOOTH",
"1316 289.175 OFFCURVE",
"1311.32 311.65 OFFCURVE",
"1302.6 332.971 CURVE SMOOTH",
"1293.9 354.229 OFFCURVE",
"1280.67 374.071 OFFCURVE",
"1262.07 394.633 CURVE SMOOTH",
"1243.32 415.356 OFFCURVE",
"1219.85 436.866 OFFCURVE",
"1190.13 459.652 CURVE",
"1159.73 481.22 OFFCURVE",
"1125.3 506.788 OFFCURVE",
"1086.08 534.28 CURVE",
"1077.99 535.201 OFFCURVE",
"1071.94 536 OFFCURVE",
"1066 535.997 CURVE SMOOTH"
);
}
);
width = 2400;
}
);
unicode = E03B;
},
{
glyphname = uniE03C;
lastChange = "2013-12-03 05:51:03 -0800";
layers = (
{
layerId = "06D35582-4FA2-40C1-8C5B-DEFCD1A2473F";
name = Regular;
paths = (
{
closed = 1;
nodes = (
"352 1969 LINE SMOOTH",
"157.596 1969 OFFCURVE",
"0 1811.4 OFFCURVE",
"0 1617 CURVE SMOOTH",
"0 -79 LINE SMOOTH",
"0 -273 OFFCURVE",
"157.596 -431 OFFCURVE",
"352 -431 CURVE SMOOTH",
"2048 -431 LINE SMOOTH",
"2242.4 -431 OFFCURVE",
"2400 -273 OFFCURVE",
"2400 -79 CURVE SMOOTH",
"2400 1617 LINE SMOOTH",
"2400 1811.4 OFFCURVE",
"2242.4 1969 OFFCURVE",
"2048 1969 CURVE SMOOTH"
);
},
{
closed = 1;
nodes = (
"1546.77 1562 LINE",
"1490.6 1532.98 OFFCURVE",
"1436.2 1503.98 OFFCURVE",
"1381.76 1474.94 CURVE SMOOTH",
"1374.93 1471.52 OFFCURVE",
"1369.01 1473 OFFCURVE",
"1365 1473 CURVE SMOOTH",
"1264.69 1473 LINE",
"1317.08 1428.72 OFFCURVE",
"1358.76 1373.83 OFFCURVE",
"1383.48 1308.84 CURVE SMOOTH",
"1411 1236.47 OFFCURVE",
"1411 1147.46 OFFCURVE",
"1382.43 1076.03 CURVE SMOOTH",
"1352.77 998.31 OFFCURVE",
"1290.08 942.816 OFFCURVE",
"1226.85 894.638 CURVE SMOOTH",
"1211.48 883.115 OFFCURVE",
"1199.05 868.762 OFFCURVE",
"1186.05 853.762 CURVE SMOOTH",
"1174.43 840.213 OFFCURVE",
"1166.62 828.061 OFFCURVE",
"1163.89 811.686 CURVE SMOOTH",
"1161.02 796.385 OFFCURVE",
"1161 780.254 OFFCURVE",
"1164.67 765.313 CURVE",
"1170.15 750.043 OFFCURVE",
"1179.77 739.563 OFFCURVE",
"1192.43 727.878 CURVE SMOOTH",
"1220.08 701.217 OFFCURVE",
"1251.72 679.463 OFFCURVE",
"1282.9 655.325 CURVE SMOOTH",
"1304.19 639.099 OFFCURVE",
"1324.35 619.952 OFFCURVE",
"1344.18 603.095 CURVE SMOOTH",
"1375.41 575.897 OFFCURVE",
"1405.22 547.116 OFFCURVE",
"1427.72 512.345 CURVE SMOOTH",
"1519.66 374.422 OFFCURVE",
"1471.11 193.646 OFFCURVE",
"1354.37 88.065 CURVE SMOOTH",
"1239.9 -16 OFFCURVE",
"1078.1 -57 OFFCURVE",
"927.212 -61 CURVE SMOOTH",
"781.52 -65 OFFCURVE",
"609.109 -40 OFFCURVE",
"502.211 72.475 CURVE SMOOTH",
"450.049 126.682 OFFCURVE",
"421.786 205.191 OFFCURVE",
"433.087 280.19 CURVE SMOOTH",
"443.276 350.496 OFFCURVE",
"478.61 418.047 OFFCURVE",
"532.753 465.039 CURVE SMOOTH",
"657.525 573.581 OFFCURVE",
"834.171 598.961 OFFCURVE",
"990.485 608.981 CURVE SMOOTH",
"1000.02 609.81 LINE",
"977.817 637.213 OFFCURVE",
"955.392 668.707 OFFCURVE",
"947.202 704.198 CURVE SMOOTH",
"937.893 745.158 OFFCURVE",
"944.586 782.772 OFFCURVE",
"959.952 819.429 CURVE",
"885.418 811.676 OFFCURVE",
"807.665 818.099 OFFCURVE",
"738.663 849.725 CURVE SMOOTH",
"669.47 880.25 OFFCURVE",
"614.509 933.137 OFFCURVE",
"578.905 1001.29 CURVE SMOOTH",
"510.714 1135.64 OFFCURVE",
"536.452 1312.71 OFFCURVE",
"640.258 1419.57 CURVE SMOOTH",
"696.008 1477.35 OFFCURVE",
"757.827 1513.41 OFFCURVE",
"838.786 1536.69 CURVE SMOOTH",
"912.671 1557.94 OFFCURVE",
"992.794 1562 OFFCURVE",
"1070 1562 CURVE SMOOTH"
);
},
{
closed = 1;
nodes = (
"905.844 1479 OFFCURVE",
"879.607 1473.38 OFFCURVE",
"853.467 1460.79 CURVE SMOOTH",
"826.179 1448.12 OFFCURVE",
"805.627 1432.24 OFFCURVE",
"789.215 1411.97 CURVE SMOOTH",
"770.745 1389.61 OFFCURVE",
"759.529 1367.18 OFFCURVE",
"752.741 1340.99 CURVE",
"746.9 1314.69 OFFCURVE",
"743.997 1288.56 OFFCURVE",
"743.997 1260 CURVE SMOOTH",
"743.997 1225.51 OFFCURVE",
"748.872 1187.48 OFFCURVE",
"759.758 1143.94 CURVE SMOOTH",
"770.635 1100.43 OFFCURVE",
"786.227 1060.48 OFFCURVE",
"807.92 1023.01 CURVE SMOOTH",
"830.478 985.74 OFFCURVE",
"857.529 954.824 OFFCURVE",
"889.947 929.282 CURVE SMOOTH",
"922.769 904.184 OFFCURVE",
"960.263 891.998 OFFCURVE",
"1005 891.998 CURVE SMOOTH",
"1031.26 891.998 OFFCURVE",
"1056.74 896.715 OFFCURVE",
"1082.98 907.406 CURVE",
"1108.16 919.035 OFFCURVE",
"1129.06 932.337 OFFCURVE",
"1146.51 948.813 CURVE SMOOTH",
"1169.55 971.86 OFFCURVE",
"1183.41 996.81 OFFCURVE",
"1189.16 1024.62 CURVE SMOOTH",
"1195.06 1054.1 OFFCURVE",
"1197 1078.32 OFFCURVE",
"1197 1097 CURVE SMOOTH",
"1197 1134.52 OFFCURVE",
"1192.12 1175.48 OFFCURVE",
"1180.27 1219.93 CURVE SMOOTH",
"1169.38 1264.49 OFFCURVE",
"1151.83 1306.4 OFFCURVE",
"1129.11 1344.93 CURVE SMOOTH",
"1106.43 1384.38 OFFCURVE",
"1079.46 1416.16 OFFCURVE",
"1046.14 1441.64 CURVE SMOOTH",
"1014.17 1466.83 OFFCURVE",
"976.732 1479 OFFCURVE",
"933.996 1479 CURVE SMOOTH"
);
},
{
closed = 1;
nodes = (
"1842 1062 LINE",
"1842 854.997 LINE",
"2048 854.997 LINE",
"2048 723.997 LINE",
"1842 723.997 LINE",
"1842 517.997 LINE",
"1710 517.997 LINE",
"1710 723.997 LINE",
"1504 723.997 LINE",
"1504 854.997 LINE",
"1710 854.997 LINE",
"1710 1062 LINE"
);
},
{
closed = 1;
nodes = (
"1039 535.997 LINE SMOOTH",
"1035.4 535.997 OFFCURVE",
"1025.4 534.997 OFFCURVE",
"1009 534.997 CURVE",
"993.498 534.013 OFFCURVE",
"975.583 533.018 OFFCURVE",
"953.723 531.031 CURVE",
"933.082 528.072 OFFCURVE",
"910.302 525.101 OFFCURVE",
"885.568 520.154 CURVE SMOOTH",
"861.786 515.199 OFFCURVE",
"838.135 509.286 OFFCURVE",
"815.328 502.345 CURVE",
"804.89 498.537 OFFCURVE",
"788.164 491.65 OFFCURVE",
"768.282 482.703 CURVE SMOOTH",
"747.701 473.881 OFFCURVE",
"727.722 461.513 OFFCURVE",
"708.181 444.903 CURVE SMOOTH",
"688.749 428.386 OFFCURVE",
"672.498 408.311 OFFCURVE",
"656.738 383.686 CURVE",
"642.536 359.052 OFFCURVE",
"635.999 330.106 OFFCURVE",
"635.999 292.998 CURVE SMOOTH",
"635.999 219.048 OFFCURVE",
"668.125 160.467 OFFCURVE",
"734.614 113.534 CURVE SMOOTH",
"801.418 66.379 OFFCURVE",
"892.017 42.999 OFFCURVE",
"1007 42.999 CURVE SMOOTH",
"1109.89 42.999 OFFCURVE",
"1185.28 64.261 OFFCURVE",
"1238.02 106.257 CURVE SMOOTH",
"1290.64 148.157 OFFCURVE",
"1316 198.888 OFFCURVE",
"1316 262.999 CURVE SMOOTH",
"1316 289.175 OFFCURVE",
"1311.32 311.65 OFFCURVE",
"1302.6 332.971 CURVE SMOOTH",
"1293.9 354.229 OFFCURVE",
"1280.67 374.071 OFFCURVE",
"1262.07 394.633 CURVE SMOOTH",
"1243.32 415.356 OFFCURVE",
"1219.85 436.866 OFFCURVE",
"1190.13 459.652 CURVE",
"1159.73 481.22 OFFCURVE",
"1125.3 506.788 OFFCURVE",
"1086.08 534.28 CURVE",
"1077.99 535.201 OFFCURVE",
"1071.94 536 OFFCURVE",
"1066 535.997 CURVE SMOOTH"
);
}
);
width = 2400;
}
);
unicode = E03C;
},
{
glyphname = uniE03D;
lastChange = "2013-12-03 05:51:08 -0800";
layers = (
{
layerId = "06D35582-4FA2-40C1-8C5B-DEFCD1A2473F";
name = Regular;
paths = (
{
closed = 1;
nodes = (
"836.742 1969 LINE SMOOTH",
"595.804 1969 OFFCURVE",
"475.34 1969 OFFCURVE",
"345.66 1928 CURVE",
"204.07 1876.46 OFFCURVE",
"92.539 1764.93 OFFCURVE",
"41.004 1623.34 CURVE",
"0 1493.66 OFFCURVE",
"0 1373.2 OFFCURVE",
"0 1132.26 CURVE SMOOTH",
"0 405.743 LINE SMOOTH",
"0 164.805 OFFCURVE",
"0 44.344 OFFCURVE",
"41.004 -85 CURVE",
"92.539 -227 OFFCURVE",
"204.07 -338 OFFCURVE",
"345.66 -390 CURVE",
"475.34 -431 OFFCURVE",
"595.804 -431 OFFCURVE",
"836.742 -431 CURVE SMOOTH",
"1563.26 -431 LINE SMOOTH",
"1804.2 -431 OFFCURVE",
"1924.66 -431 OFFCURVE",
"2054.34 -390 CURVE",
"2195.93 -338 OFFCURVE",
"2307.46 -227 OFFCURVE",
"2359 -85 CURVE",
"2400 44.344 OFFCURVE",
"2400 164.805 OFFCURVE",
"2400 405.743 CURVE SMOOTH",
"2400 1132.26 LINE SMOOTH",
"2400 1373.2 OFFCURVE",
"2400 1493.66 OFFCURVE",
"2359 1623.34 CURVE",
"2307.46 1764.93 OFFCURVE",
"2195.93 1876.46 OFFCURVE",
"2054.34 1928 CURVE",
"1924.66 1969 OFFCURVE",
"1804.2 1969 OFFCURVE",
"1563.26 1969 CURVE SMOOTH"
);
},
{
closed = 1;
nodes = (
"1546.77 1562 LINE",
"1490.6 1532.98 OFFCURVE",
"1436.2 1503.98 OFFCURVE",
"1381.76 1474.94 CURVE SMOOTH",
"1374.93 1471.52 OFFCURVE",
"1369.01 1473 OFFCURVE",
"1365 1473 CURVE SMOOTH",
"1264.69 1473 LINE",
"1317.08 1428.72 OFFCURVE",
"1358.76 1373.83 OFFCURVE",
"1383.48 1308.84 CURVE SMOOTH",
"1411 1236.47 OFFCURVE",
"1411 1147.46 OFFCURVE",
"1382.43 1076.03 CURVE SMOOTH",
"1352.77 998.31 OFFCURVE",
"1290.08 942.816 OFFCURVE",
"1226.85 894.638 CURVE SMOOTH",
"1211.48 883.115 OFFCURVE",
"1199.05 868.762 OFFCURVE",
"1186.05 853.762 CURVE SMOOTH",
"1174.43 840.213 OFFCURVE",
"1166.62 828.061 OFFCURVE",
"1163.89 811.686 CURVE SMOOTH",
"1161.02 796.385 OFFCURVE",
"1161 780.254 OFFCURVE",
"1164.67 765.313 CURVE",
"1170.15 750.043 OFFCURVE",
"1179.77 739.563 OFFCURVE",
"1192.43 727.878 CURVE SMOOTH",
"1220.08 701.217 OFFCURVE",
"1251.72 679.463 OFFCURVE",
"1282.9 655.325 CURVE SMOOTH",
"1304.19 639.099 OFFCURVE",
"1324.35 619.952 OFFCURVE",
"1344.18 603.095 CURVE SMOOTH",
"1375.41 575.897 OFFCURVE",
"1405.22 547.116 OFFCURVE",
"1427.72 512.345 CURVE SMOOTH",
"1519.66 374.422 OFFCURVE",
"1471.11 193.646 OFFCURVE",
"1354.37 88.065 CURVE SMOOTH",
"1239.9 -16 OFFCURVE",
"1078.1 -57 OFFCURVE",
"927.212 -61 CURVE SMOOTH",
"781.52 -65 OFFCURVE",
"609.109 -40 OFFCURVE",
"502.211 72.475 CURVE SMOOTH",
"450.049 126.682 OFFCURVE",
"421.786 205.191 OFFCURVE",
"433.087 280.19 CURVE SMOOTH",
"443.276 350.496 OFFCURVE",
"478.61 418.047 OFFCURVE",
"532.753 465.039 CURVE SMOOTH",
"657.525 573.581 OFFCURVE",
"834.171 598.961 OFFCURVE",
"990.485 608.981 CURVE SMOOTH",
"1000.02 609.81 LINE",
"977.817 637.213 OFFCURVE",
"955.392 668.707 OFFCURVE",
"947.202 704.198 CURVE SMOOTH",
"937.893 745.158 OFFCURVE",
"944.586 782.772 OFFCURVE",
"959.952 819.429 CURVE",
"885.418 811.676 OFFCURVE",
"807.665 818.099 OFFCURVE",
"738.663 849.725 CURVE SMOOTH",
"669.47 880.25 OFFCURVE",
"614.509 933.137 OFFCURVE",
"578.905 1001.29 CURVE SMOOTH",
"510.714 1135.64 OFFCURVE",
"536.452 1312.71 OFFCURVE",
"640.258 1419.57 CURVE SMOOTH",
"696.008 1477.35 OFFCURVE",
"757.827 1513.41 OFFCURVE",
"838.786 1536.69 CURVE SMOOTH",
"912.671 1557.94 OFFCURVE",
"992.794 1562 OFFCURVE",
"1070 1562 CURVE SMOOTH"
);
},
{
closed = 1;
nodes = (
"905.844 1479 OFFCURVE",
"879.607 1473.38 OFFCURVE",
"853.467 1460.79 CURVE SMOOTH",
"826.179 1448.12 OFFCURVE",
"805.627 1432.24 OFFCURVE",
"789.215 1411.97 CURVE SMOOTH",
"770.745 1389.61 OFFCURVE",
"759.529 1367.18 OFFCURVE",
"752.741 1340.99 CURVE",
"746.9 1314.69 OFFCURVE",
"743.997 1288.56 OFFCURVE",
"743.997 1260 CURVE SMOOTH",
"743.997 1225.51 OFFCURVE",
"748.872 1187.48 OFFCURVE",
"759.758 1143.94 CURVE SMOOTH",
"770.635 1100.43 OFFCURVE",
"786.227 1060.48 OFFCURVE",
"807.92 1023.01 CURVE SMOOTH",
"830.478 985.74 OFFCURVE",
"857.529 954.824 OFFCURVE",
"889.947 929.282 CURVE SMOOTH",
"922.769 904.184 OFFCURVE",
"960.263 891.998 OFFCURVE",
"1005 891.998 CURVE SMOOTH",
"1031.26 891.998 OFFCURVE",
"1056.74 896.715 OFFCURVE",
"1082.98 907.406 CURVE",
"1108.16 919.035 OFFCURVE",
"1129.06 932.337 OFFCURVE",
"1146.51 948.813 CURVE SMOOTH",
"1169.55 971.86 OFFCURVE",
"1183.41 996.81 OFFCURVE",
"1189.16 1024.62 CURVE SMOOTH",
"1195.06 1054.1 OFFCURVE",
"1197 1078.32 OFFCURVE",
"1197 1097 CURVE SMOOTH",
"1197 1134.52 OFFCURVE",
"1192.12 1175.48 OFFCURVE",
"1180.27 1219.93 CURVE SMOOTH",
"1169.38 1264.49 OFFCURVE",
"1151.83 1306.4 OFFCURVE",
"1129.11 1344.93 CURVE SMOOTH",
"1106.43 1384.38 OFFCURVE",
"1079.46 1416.16 OFFCURVE",
"1046.14 1441.64 CURVE SMOOTH",
"1014.17 1466.83 OFFCURVE",
"976.732 1479 OFFCURVE",
"933.996 1479 CURVE SMOOTH"
);
},
{
closed = 1;
nodes = (
"1842 1062 LINE",
"1842 854.997 LINE",
"2048 854.997 LINE",
"2048 723.997 LINE",
"1842 723.997 LINE",
"1842 517.997 LINE",
"1710 517.997 LINE",
"1710 723.997 LINE",
"1504 723.997 LINE",
"1504 854.997 LINE",
"1710 854.997 LINE",
"1710 1062 LINE"
);
},
{
closed = 1;
nodes = (
"1039 535.997 LINE SMOOTH",
"1035.4 535.997 OFFCURVE",
"1025.4 534.997 OFFCURVE",
"1009 534.997 CURVE",
"993.498 534.013 OFFCURVE",
"975.583 533.018 OFFCURVE",
"953.723 531.031 CURVE",
"933.082 528.072 OFFCURVE",
"910.302 525.101 OFFCURVE",
"885.568 520.154 CURVE SMOOTH",
"861.786 515.199 OFFCURVE",
"838.135 509.286 OFFCURVE",
"815.328 502.345 CURVE",
"804.89 498.537 OFFCURVE",
"788.164 491.65 OFFCURVE",
"768.282 482.703 CURVE SMOOTH",
"747.701 473.881 OFFCURVE",
"727.722 461.513 OFFCURVE",
"708.181 444.903 CURVE SMOOTH",
"688.749 428.386 OFFCURVE",
"672.498 408.311 OFFCURVE",
"656.738 383.686 CURVE",
"642.536 359.052 OFFCURVE",
"635.999 330.106 OFFCURVE",
"635.999 292.998 CURVE SMOOTH",
"635.999 219.048 OFFCURVE",
"668.125 160.467 OFFCURVE",
"734.614 113.534 CURVE SMOOTH",
"801.418 66.379 OFFCURVE",
"892.017 42.999 OFFCURVE",
"1007 42.999 CURVE SMOOTH",
"1109.89 42.999 OFFCURVE",
"1185.28 64.261 OFFCURVE",
"1238.02 106.257 CURVE SMOOTH",
"1290.64 148.157 OFFCURVE",
"1316 198.888 OFFCURVE",
"1316 262.999 CURVE SMOOTH",
"1316 289.175 OFFCURVE",
"1311.32 311.65 OFFCURVE",
"1302.6 332.971 CURVE SMOOTH",
"1293.9 354.229 OFFCURVE",
"1280.67 374.071 OFFCURVE",
"1262.07 394.633 CURVE SMOOTH",
"1243.32 415.356 OFFCURVE",
"1219.85 436.866 OFFCURVE",
"1190.13 459.652 CURVE",
"1159.73 481.22 OFFCURVE",
"1125.3 506.788 OFFCURVE",
"1086.08 534.28 CURVE",
"1077.99 535.201 OFFCURVE",
"1071.94 536 OFFCURVE",
"1066 535.997 CURVE SMOOTH"
);
}
);
width = 2400;
}
);
unicode = E03D;
},
{
glyphname = uniE03E;
lastChange = "2013-12-03 05:51:11 -0800";
layers = (
{
layerId = "06D35582-4FA2-40C1-8C5B-DEFCD1A2473F";
name = Regular;
paths = (
{
closed = 1;
nodes = (
"537.252 1969 OFFCURVE",
"0 1431.75 OFFCURVE",
"0 769 CURVE SMOOTH",
"0 106.252 OFFCURVE",
"537.252 -431 OFFCURVE",
"1200 -431 CURVE SMOOTH",
"1862.75 -431 OFFCURVE",
"2400 106.252 OFFCURVE",
"2400 769 CURVE SMOOTH",
"2400 1431.75 OFFCURVE",
"1862.75 1969 OFFCURVE",
"1200 1969 CURVE SMOOTH"
);
},
{
closed = 1;
nodes = (
"1546.77 1562 LINE",
"1490.6 1532.98 OFFCURVE",
"1436.2 1503.98 OFFCURVE",
"1381.76 1474.94 CURVE SMOOTH",
"1374.93 1471.52 OFFCURVE",
"1369.01 1473 OFFCURVE",
"1365 1473 CURVE SMOOTH",
"1264.69 1473 LINE",
"1317.08 1428.72 OFFCURVE",
"1358.76 1373.83 OFFCURVE",
"1383.48 1308.84 CURVE SMOOTH",
"1411 1236.47 OFFCURVE",
"1411 1147.46 OFFCURVE",
"1382.43 1076.03 CURVE SMOOTH",
"1352.77 998.31 OFFCURVE",
"1290.08 942.816 OFFCURVE",
"1226.85 894.638 CURVE SMOOTH",
"1211.48 883.115 OFFCURVE",
"1199.05 868.762 OFFCURVE",
"1186.05 853.762 CURVE SMOOTH",
"1174.43 840.213 OFFCURVE",
"1166.62 828.061 OFFCURVE",
"1163.89 811.686 CURVE SMOOTH",
"1161.02 796.385 OFFCURVE",
"1161 780.254 OFFCURVE",
"1164.67 765.313 CURVE",
"1170.15 750.043 OFFCURVE",
"1179.77 739.563 OFFCURVE",
"1192.43 727.878 CURVE SMOOTH",
"1220.08 701.217 OFFCURVE",
"1251.72 679.463 OFFCURVE",
"1282.9 655.325 CURVE SMOOTH",
"1304.19 639.099 OFFCURVE",
"1324.35 619.952 OFFCURVE",
"1344.18 603.095 CURVE SMOOTH",
"1375.41 575.897 OFFCURVE",
"1405.22 547.116 OFFCURVE",
"1427.72 512.345 CURVE SMOOTH",
"1519.66 374.422 OFFCURVE",
"1471.11 193.646 OFFCURVE",
"1354.37 88.065 CURVE SMOOTH",
"1239.9 -16 OFFCURVE",
"1078.1 -57 OFFCURVE",
"927.212 -61 CURVE SMOOTH",
"781.52 -65 OFFCURVE",
"609.109 -40 OFFCURVE",
"502.211 72.475 CURVE SMOOTH",
"450.049 126.682 OFFCURVE",
"421.786 205.191 OFFCURVE",
"433.087 280.19 CURVE SMOOTH",
"443.276 350.496 OFFCURVE",
"478.61 418.047 OFFCURVE",
"532.753 465.039 CURVE SMOOTH",
"657.525 573.581 OFFCURVE",
"834.171 598.961 OFFCURVE",
"990.485 608.981 CURVE SMOOTH",
"1000.02 609.81 LINE",
"977.817 637.213 OFFCURVE",
"955.392 668.707 OFFCURVE",
"947.202 704.198 CURVE SMOOTH",
"937.893 745.158 OFFCURVE",
"944.586 782.772 OFFCURVE",
"959.952 819.429 CURVE",
"885.418 811.676 OFFCURVE",
"807.665 818.099 OFFCURVE",
"738.663 849.725 CURVE SMOOTH",
"669.47 880.25 OFFCURVE",
"614.509 933.137 OFFCURVE",
"578.905 1001.29 CURVE SMOOTH",
"510.714 1135.64 OFFCURVE",
"536.452 1312.71 OFFCURVE",
"640.258 1419.57 CURVE SMOOTH",
"696.008 1477.35 OFFCURVE",
"757.827 1513.41 OFFCURVE",
"838.786 1536.69 CURVE SMOOTH",
"912.671 1557.94 OFFCURVE",
"992.794 1562 OFFCURVE",
"1070 1562 CURVE SMOOTH"
);
},
{
closed = 1;
nodes = (
"905.844 1479 OFFCURVE",
"879.607 1473.38 OFFCURVE",
"853.467 1460.79 CURVE SMOOTH",
"826.179 1448.12 OFFCURVE",
"805.627 1432.24 OFFCURVE",
"789.215 1411.97 CURVE SMOOTH",
"770.745 1389.61 OFFCURVE",
"759.529 1367.18 OFFCURVE",
"752.741 1340.99 CURVE",
"746.9 1314.69 OFFCURVE",
"743.997 1288.56 OFFCURVE",
"743.997 1260 CURVE SMOOTH",
"743.997 1225.51 OFFCURVE",
"748.872 1187.48 OFFCURVE",
"759.758 1143.94 CURVE SMOOTH",
"770.635 1100.43 OFFCURVE",
"786.227 1060.48 OFFCURVE",
"807.92 1023.01 CURVE SMOOTH",
"830.478 985.74 OFFCURVE",
"857.529 954.824 OFFCURVE",
"889.947 929.282 CURVE SMOOTH",
"922.769 904.184 OFFCURVE",
"960.263 891.998 OFFCURVE",
"1005 891.998 CURVE SMOOTH",
"1031.26 891.998 OFFCURVE",
"1056.74 896.715 OFFCURVE",
"1082.98 907.406 CURVE",
"1108.16 919.035 OFFCURVE",
"1129.06 932.337 OFFCURVE",
"1146.51 948.813 CURVE SMOOTH",
"1169.55 971.86 OFFCURVE",
"1183.41 996.81 OFFCURVE",
"1189.16 1024.62 CURVE SMOOTH",
"1195.06 1054.1 OFFCURVE",
"1197 1078.32 OFFCURVE",
"1197 1097 CURVE SMOOTH",
"1197 1134.52 OFFCURVE",
"1192.12 1175.48 OFFCURVE",
"1180.27 1219.93 CURVE SMOOTH",
"1169.38 1264.49 OFFCURVE",
"1151.83 1306.4 OFFCURVE",
"1129.11 1344.93 CURVE SMOOTH",
"1106.43 1384.38 OFFCURVE",
"1079.46 1416.16 OFFCURVE",
"1046.14 1441.64 CURVE SMOOTH",
"1014.17 1466.83 OFFCURVE",
"976.732 1479 OFFCURVE",
"933.996 1479 CURVE SMOOTH"
);
},
{
closed = 1;
nodes = (
"1842 1062 LINE",
"1842 854.997 LINE",
"2048 854.997 LINE",
"2048 723.997 LINE",
"1842 723.997 LINE",
"1842 517.997 LINE",
"1710 517.997 LINE",
"1710 723.997 LINE",
"1504 723.997 LINE",
"1504 854.997 LINE",
"1710 854.997 LINE",
"1710 1062 LINE"
);
},
{
closed = 1;
nodes = (
"1039 535.997 LINE SMOOTH",
"1035.4 535.997 OFFCURVE",
"1025.4 534.997 OFFCURVE",
"1009 534.997 CURVE",
"993.498 534.013 OFFCURVE",
"975.583 533.018 OFFCURVE",
"953.723 531.031 CURVE",
"933.082 528.072 OFFCURVE",
"910.302 525.101 OFFCURVE",
"885.568 520.154 CURVE SMOOTH",
"861.786 515.199 OFFCURVE",
"838.135 509.286 OFFCURVE",
"815.328 502.345 CURVE",
"804.89 498.537 OFFCURVE",
"788.164 491.65 OFFCURVE",
"768.282 482.703 CURVE SMOOTH",
"747.701 473.881 OFFCURVE",
"727.722 461.513 OFFCURVE",
"708.181 444.903 CURVE SMOOTH",
"688.749 428.386 OFFCURVE",
"672.498 408.311 OFFCURVE",
"656.738 383.686 CURVE",
"642.536 359.052 OFFCURVE",
"635.999 330.106 OFFCURVE",
"635.999 292.998 CURVE SMOOTH",
"635.999 219.048 OFFCURVE",
"668.125 160.467 OFFCURVE",
"734.614 113.534 CURVE SMOOTH",
"801.418 66.379 OFFCURVE",
"892.017 42.999 OFFCURVE",
"1007 42.999 CURVE SMOOTH",
"1109.89 42.999 OFFCURVE",
"1185.28 64.261 OFFCURVE",
"1238.02 106.257 CURVE SMOOTH",
"1290.64 148.157 OFFCURVE",
"1316 198.888 OFFCURVE",
"1316 262.999 CURVE SMOOTH",
"1316 289.175 OFFCURVE",
"1311.32 311.65 OFFCURVE",
"1302.6 332.971 CURVE SMOOTH",
"1293.9 354.229 OFFCURVE",
"1280.67 374.071 OFFCURVE",
"1262.07 394.633 CURVE SMOOTH",
"1243.32 415.356 OFFCURVE",
"1219.85 436.866 OFFCURVE",
"1190.13 459.652 CURVE",
"1159.73 481.22 OFFCURVE",
"1125.3 506.788 OFFCURVE",
"1086.08 534.28 CURVE",
"1077.99 535.201 OFFCURVE",
"1071.94 536 OFFCURVE",
"1066 535.997 CURVE SMOOTH"
);
}
);
width = 2400;
}
);
unicode = E03E;
},
{
glyphname = uniE03F;
lastChange = "2013-12-03 05:51:15 -0800";
layers = (
{
layerId = "06D35582-4FA2-40C1-8C5B-DEFCD1A2473F";
name = Regular;
paths = (
{
closed = 1;
nodes = (
"1070 1562 LINE SMOOTH",
"992.794 1562 OFFCURVE",
"912.671 1557.94 OFFCURVE",
"838.786 1536.69 CURVE SMOOTH",
"757.827 1513.41 OFFCURVE",
"696.008 1477.35 OFFCURVE",
"640.258 1419.57 CURVE SMOOTH",
"536.452 1312.71 OFFCURVE",
"510.714 1135.64 OFFCURVE",
"578.905 1001.29 CURVE SMOOTH",
"614.509 933.137 OFFCURVE",
"669.47 880.25 OFFCURVE",
"738.663 849.725 CURVE SMOOTH",
"807.665 818.099 OFFCURVE",
"885.418 811.676 OFFCURVE",
"959.952 819.429 CURVE",
"944.586 782.772 OFFCURVE",
"937.893 745.158 OFFCURVE",
"947.202 704.198 CURVE SMOOTH",
"955.392 668.707 OFFCURVE",
"977.817 637.213 OFFCURVE",
"1000.02 609.81 CURVE",
"990.485 608.981 LINE SMOOTH",
"834.171 598.961 OFFCURVE",
"657.525 573.581 OFFCURVE",
"532.753 465.039 CURVE SMOOTH",
"478.61 418.047 OFFCURVE",
"443.276 350.496 OFFCURVE",
"433.087 280.19 CURVE SMOOTH",
"421.786 205.191 OFFCURVE",
"450.049 126.682 OFFCURVE",
"502.211 72.475 CURVE SMOOTH",
"609.109 -40 OFFCURVE",
"781.52 -65 OFFCURVE",
"927.212 -61 CURVE SMOOTH",
"1078.1 -57 OFFCURVE",
"1239.9 -16 OFFCURVE",
"1354.37 88.065 CURVE SMOOTH",
"1471.11 193.646 OFFCURVE",
"1519.66 374.422 OFFCURVE",
"1427.72 512.345 CURVE SMOOTH",
"1405.22 547.116 OFFCURVE",
"1375.41 575.897 OFFCURVE",
"1344.18 603.095 CURVE SMOOTH",
"1324.35 619.952 OFFCURVE",
"1304.19 639.099 OFFCURVE",
"1282.9 655.325 CURVE SMOOTH",
"1251.72 679.463 OFFCURVE",
"1220.08 701.217 OFFCURVE",
"1192.43 727.878 CURVE SMOOTH",
"1179.77 739.563 OFFCURVE",
"1170.15 750.043 OFFCURVE",
"1164.67 765.313 CURVE",
"1161 780.254 OFFCURVE",
"1161.02 796.385 OFFCURVE",
"1163.89 811.686 CURVE SMOOTH",
"1166.62 828.061 OFFCURVE",
"1174.43 840.213 OFFCURVE",
"1186.05 853.762 CURVE SMOOTH",
"1199.05 868.762 OFFCURVE",
"1211.48 883.115 OFFCURVE",
"1226.85 894.638 CURVE SMOOTH",
"1290.08 942.816 OFFCURVE",
"1352.77 998.31 OFFCURVE",
"1382.43 1076.03 CURVE SMOOTH",
"1411 1147.46 OFFCURVE",
"1411 1236.47 OFFCURVE",
"1383.48 1308.84 CURVE SMOOTH",
"1358.76 1373.83 OFFCURVE",
"1317.08 1428.72 OFFCURVE",
"1264.69 1473 CURVE",
"1365 1473 LINE SMOOTH",
"1369.01 1473 OFFCURVE",
"1374.93 1471.52 OFFCURVE",
"1381.76 1474.94 CURVE SMOOTH",
"1436.2 1503.98 OFFCURVE",
"1490.6 1532.98 OFFCURVE",
"1546.77 1562 CURVE"
);
},
{
closed = 1;
nodes = (
"976.732 1479 OFFCURVE",
"1014.17 1466.83 OFFCURVE",
"1046.14 1441.64 CURVE SMOOTH",
"1079.46 1416.16 OFFCURVE",
"1106.43 1384.38 OFFCURVE",
"1129.11 1344.93 CURVE SMOOTH",
"1151.83 1306.4 OFFCURVE",
"1169.38 1264.49 OFFCURVE",
"1180.27 1219.93 CURVE SMOOTH",
"1192.12 1175.48 OFFCURVE",
"1197 1134.52 OFFCURVE",
"1197 1097 CURVE SMOOTH",
"1197 1078.32 OFFCURVE",
"1195.06 1054.1 OFFCURVE",
"1189.16 1024.62 CURVE SMOOTH",
"1183.41 996.81 OFFCURVE",
"1169.55 971.86 OFFCURVE",
"1146.51 948.813 CURVE SMOOTH",
"1129.06 932.337 OFFCURVE",
"1108.16 919.035 OFFCURVE",
"1082.98 907.406 CURVE",
"1056.74 896.715 OFFCURVE",
"1031.26 891.998 OFFCURVE",
"1005 891.998 CURVE SMOOTH",
"960.263 891.998 OFFCURVE",
"922.769 904.184 OFFCURVE",
"889.947 929.282 CURVE SMOOTH",
"857.529 954.824 OFFCURVE",
"830.478 985.74 OFFCURVE",
"807.92 1023.01 CURVE SMOOTH",
"786.227 1060.48 OFFCURVE",
"770.635 1100.43 OFFCURVE",
"759.758 1143.94 CURVE SMOOTH",
"748.872 1187.48 OFFCURVE",
"743.997 1225.51 OFFCURVE",
"743.997 1260 CURVE SMOOTH",
"743.997 1288.56 OFFCURVE",
"746.9 1314.69 OFFCURVE",
"752.741 1340.99 CURVE",
"759.529 1367.18 OFFCURVE",
"770.745 1389.61 OFFCURVE",
"789.215 1411.97 CURVE SMOOTH",
"805.627 1432.24 OFFCURVE",
"826.179 1448.12 OFFCURVE",
"853.467 1460.79 CURVE SMOOTH",
"879.607 1473.38 OFFCURVE",
"905.844 1479 OFFCURVE",
"933.996 1479 CURVE SMOOTH"
);
},
{
closed = 1;
nodes = (
"1842 1062 LINE",
"1710 1062 LINE",
"1710 854.997 LINE",
"1504 854.997 LINE",
"1504 723.997 LINE",
"1710 723.997 LINE",
"1710 517.997 LINE",
"1842 517.997 LINE",
"1842 723.997 LINE",
"2048 723.997 LINE",
"2048 854.997 LINE",
"1842 854.997 LINE"
);
},
{
closed = 1;
nodes = (
"1066 535.997 LINE SMOOTH",
"1071.94 536 OFFCURVE",
"1077.99 535.201 OFFCURVE",
"1086.08 534.28 CURVE",
"1125.3 506.788 OFFCURVE",
"1159.73 481.22 OFFCURVE",
"1190.13 459.652 CURVE",
"1219.85 436.866 OFFCURVE",
"1243.32 415.356 OFFCURVE",
"1262.07 394.633 CURVE SMOOTH",
"1280.67 374.071 OFFCURVE",
"1293.9 354.229 OFFCURVE",
"1302.6 332.971 CURVE SMOOTH",
"1311.32 311.65 OFFCURVE",
"1316 289.175 OFFCURVE",
"1316 262.999 CURVE SMOOTH",
"1316 198.888 OFFCURVE",
"1290.64 148.157 OFFCURVE",
"1238.02 106.257 CURVE SMOOTH",
"1185.28 64.261 OFFCURVE",
"1109.89 42.999 OFFCURVE",
"1007 42.999 CURVE SMOOTH",
"892.017 42.999 OFFCURVE",
"801.418 66.379 OFFCURVE",
"734.614 113.534 CURVE SMOOTH",
"668.125 160.467 OFFCURVE",
"635.999 219.048 OFFCURVE",
"635.999 292.998 CURVE SMOOTH",
"635.999 330.106 OFFCURVE",
"642.536 359.052 OFFCURVE",
"656.738 383.686 CURVE",
"672.498 408.311 OFFCURVE",
"688.749 428.386 OFFCURVE",
"708.181 444.903 CURVE SMOOTH",
"727.722 461.513 OFFCURVE",
"747.701 473.881 OFFCURVE",
"768.282 482.703 CURVE SMOOTH",
"788.164 491.65 OFFCURVE",
"804.89 498.537 OFFCURVE",
"815.328 502.345 CURVE",
"838.135 509.286 OFFCURVE",
"861.786 515.199 OFFCURVE",
"885.568 520.154 CURVE SMOOTH",
"910.302 525.101 OFFCURVE",
"933.082 528.072 OFFCURVE",
"953.723 531.031 CURVE",
"975.583 533.018 OFFCURVE",
"993.498 534.013 OFFCURVE",
"1009 534.997 CURVE",
"1025.4 534.997 OFFCURVE",
"1035.4 535.997 OFFCURVE",
"1039 535.997 CURVE SMOOTH"
);
}
);
width = 2400;
}
);
unicode = E03F;
},
{
glyphname = uniE041;
lastChange = "2013-10-29 20:27:11 -0800";
layers = (
{
layerId = "06D35582-4FA2-40C1-8C5B-DEFCD1A2473F";
name = Regular;
paths = (
{
closed = 1;
nodes = (
"0 1968 LINE",
"0 -432 LINE",
"2400 -432 LINE",
"2400 1968 LINE"
);
},
{
closed = 1;
nodes = (
"435.233 1555 LINE",
"1293.91 1555 OFFCURVE",
"1990 858.756 OFFCURVE",
"1990 0 CURVE",
"1692.28 0 LINE",
"1692.28 694.293 OFFCURVE",
"1129.48 1257.21 OFFCURVE",
"435.233 1257.21 CURVE"
);
},
{
closed = 1;
nodes = (
"435.233 1025.61 LINE",
"1001.59 1025.61 OFFCURVE",
"1460.72 566.381 OFFCURVE",
"1460.72 0 CURVE",
"1163 0 LINE",
"1163 401.916 OFFCURVE",
"837.167 727.818 OFFCURVE",
"435.233 727.818 CURVE"
);
},
{
closed = 1;
nodes = (
"750.668 410.182 OFFCURVE",
"845.427 315.395 OFFCURVE",
"845.427 198.418 CURVE SMOOTH",
"845.427 81.455 OFFCURVE",
"750.668 -13 OFFCURVE",
"633.702 -13 CURVE SMOOTH",
"516.828 -13 OFFCURVE",
"422 81.455 OFFCURVE",
"422 198.418 CURVE SMOOTH",
"422 315.395 OFFCURVE",
"516.828 410.182 OFFCURVE",
"633.702 410.182 CURVE SMOOTH"
);
}
);
width = 2400;
}
);
unicode = E041;
},
{
glyphname = uniE042;
lastChange = "2013-10-29 20:27:20 -0800";
layers = (
{
layerId = "06D35582-4FA2-40C1-8C5B-DEFCD1A2473F";
name = Regular;
paths = (
{
closed = 1;
nodes = (
"256 1969 LINE SMOOTH",
"114.615 1969 OFFCURVE",
"0 1854.39 OFFCURVE",
"0 1713 CURVE SMOOTH",
"0 -175 LINE SMOOTH",
"0 -316 OFFCURVE",
"114.615 -431 OFFCURVE",
"256 -431 CURVE SMOOTH",
"2144 -431 LINE SMOOTH",
"2285.38 -431 OFFCURVE",
"2400 -316 OFFCURVE",
"2400 -175 CURVE SMOOTH",
"2400 1713 LINE SMOOTH",
"2400 1854.39 OFFCURVE",
"2285.38 1969 OFFCURVE",
"2144 1969 CURVE SMOOTH"
);
},
{
closed = 1;
nodes = (
"435.233 1555 LINE",
"1293.91 1555 OFFCURVE",
"1990 858.756 OFFCURVE",
"1990 0 CURVE",
"1692.28 0 LINE",
"1692.28 694.293 OFFCURVE",
"1129.48 1257.21 OFFCURVE",
"435.233 1257.21 CURVE"
);
},
{
closed = 1;
nodes = (
"435.233 1025.61 LINE",
"1001.59 1025.61 OFFCURVE",
"1460.72 566.381 OFFCURVE",
"1460.72 0 CURVE",
"1163 0 LINE",
"1163 401.916 OFFCURVE",
"837.167 727.818 OFFCURVE",
"435.233 727.818 CURVE"
);
},
{
closed = 1;
nodes = (
"750.668 410.182 OFFCURVE",
"845.427 315.395 OFFCURVE",
"845.427 198.418 CURVE SMOOTH",
"845.427 81.455 OFFCURVE",
"750.668 -13 OFFCURVE",
"633.702 -13 CURVE SMOOTH",
"516.828 -13 OFFCURVE",
"422 81.455 OFFCURVE",
"422 198.418 CURVE SMOOTH",
"422 315.395 OFFCURVE",
"516.828 410.182 OFFCURVE",
"633.702 410.182 CURVE SMOOTH"
);
}
);
width = 2400;
}
);
unicode = E042;
},
{
glyphname = uniE043;
lastChange = "2013-10-29 20:27:27 -0800";
layers = (
{
layerId = "06D35582-4FA2-40C1-8C5B-DEFCD1A2473F";
name = Regular;
paths = (
{
closed = 1;
nodes = (
"352 1969 LINE SMOOTH",
"157.596 1969 OFFCURVE",
"0 1811.4 OFFCURVE",
"0 1617 CURVE SMOOTH",
"0 -79 LINE SMOOTH",
"0 -273 OFFCURVE",
"157.596 -431 OFFCURVE",
"352 -431 CURVE SMOOTH",
"2048 -431 LINE SMOOTH",
"2242.4 -431 OFFCURVE",
"2400 -273 OFFCURVE",
"2400 -79 CURVE SMOOTH",
"2400 1617 LINE SMOOTH",
"2400 1811.4 OFFCURVE",
"2242.4 1969 OFFCURVE",
"2048 1969 CURVE SMOOTH"
);
},
{
closed = 1;
nodes = (
"435.233 1555 LINE",
"1293.91 1555 OFFCURVE",
"1990 858.756 OFFCURVE",
"1990 0 CURVE",
"1692.28 0 LINE",
"1692.28 694.293 OFFCURVE",
"1129.48 1257.21 OFFCURVE",
"435.233 1257.21 CURVE"
);
},
{
closed = 1;
nodes = (
"435.233 1025.61 LINE",
"1001.59 1025.61 OFFCURVE",
"1460.72 566.381 OFFCURVE",
"1460.72 0 CURVE",
"1163 0 LINE",
"1163 401.916 OFFCURVE",
"837.167 727.818 OFFCURVE",
"435.233 727.818 CURVE"
);
},
{
closed = 1;
nodes = (
"750.668 410.182 OFFCURVE",
"845.427 315.395 OFFCURVE",
"845.427 198.418 CURVE SMOOTH",
"845.427 81.455 OFFCURVE",
"750.668 -13 OFFCURVE",
"633.702 -13 CURVE SMOOTH",
"516.828 -13 OFFCURVE",
"422 81.455 OFFCURVE",
"422 198.418 CURVE SMOOTH",
"422 315.395 OFFCURVE",
"516.828 410.182 OFFCURVE",
"633.702 410.182 CURVE SMOOTH"
);
}
);
width = 2400;
}
);
unicode = E043;
},
{
glyphname = uniE044;
lastChange = "2013-10-29 20:27:34 -0800";
layers = (
{
layerId = "06D35582-4FA2-40C1-8C5B-DEFCD1A2473F";
name = Regular;
paths = (
{
closed = 1;
nodes = (
"836.742 1969 LINE SMOOTH",
"595.804 1969 OFFCURVE",
"475.34 1969 OFFCURVE",
"345.66 1928 CURVE",
"204.07 1876.46 OFFCURVE",
"92.539 1764.93 OFFCURVE",
"41.004 1623.34 CURVE",
"0 1493.66 OFFCURVE",
"0 1373.2 OFFCURVE",
"0 1132.26 CURVE SMOOTH",
"0 405.743 LINE SMOOTH",
"0 164.805 OFFCURVE",
"0 44.344 OFFCURVE",
"41.004 -85 CURVE",
"92.539 -227 OFFCURVE",
"204.07 -338 OFFCURVE",
"345.66 -390 CURVE",
"475.34 -431 OFFCURVE",
"595.804 -431 OFFCURVE",
"836.742 -431 CURVE SMOOTH",
"1563.26 -431 LINE SMOOTH",
"1804.2 -431 OFFCURVE",
"1924.66 -431 OFFCURVE",
"2054.34 -390 CURVE",
"2195.93 -338 OFFCURVE",
"2307.46 -227 OFFCURVE",
"2359 -85 CURVE",
"2400 44.344 OFFCURVE",
"2400 164.805 OFFCURVE",
"2400 405.743 CURVE SMOOTH",
"2400 1132.26 LINE SMOOTH",
"2400 1373.2 OFFCURVE",
"2400 1493.66 OFFCURVE",
"2359 1623.34 CURVE",
"2307.46 1764.93 OFFCURVE",
"2195.93 1876.46 OFFCURVE",
"2054.34 1928 CURVE",
"1924.66 1969 OFFCURVE",
"1804.2 1969 OFFCURVE",
"1563.26 1969 CURVE SMOOTH"
);
},
{
closed = 1;
nodes = (
"435.233 1555 LINE",
"1293.91 1555 OFFCURVE",
"1990 858.756 OFFCURVE",
"1990 0 CURVE",
"1692.28 0 LINE",
"1692.28 694.293 OFFCURVE",
"1129.48 1257.21 OFFCURVE",
"435.233 1257.21 CURVE"
);
},
{
closed = 1;
nodes = (
"435.233 1025.61 LINE",
"1001.59 1025.61 OFFCURVE",
"1460.72 566.381 OFFCURVE",
"1460.72 0 CURVE",
"1163 0 LINE",
"1163 401.916 OFFCURVE",
"837.167 727.818 OFFCURVE",
"435.233 727.818 CURVE"
);
},
{
closed = 1;
nodes = (
"750.668 410.182 OFFCURVE",
"845.427 315.395 OFFCURVE",
"845.427 198.418 CURVE SMOOTH",
"845.427 81.455 OFFCURVE",
"750.668 -13 OFFCURVE",
"633.702 -13 CURVE SMOOTH",
"516.828 -13 OFFCURVE",
"422 81.455 OFFCURVE",
"422 198.418 CURVE SMOOTH",
"422 315.395 OFFCURVE",
"516.828 410.182 OFFCURVE",
"633.702 410.182 CURVE SMOOTH"
);
}
);
width = 2400;
}
);
unicode = E044;
},
{
glyphname = uniE045;
lastChange = "2013-10-29 20:26:52 -0800";
layers = (
{
layerId = "06D35582-4FA2-40C1-8C5B-DEFCD1A2473F";
name = Regular;
paths = (
{
closed = 1;
nodes = (
"537.252 1969 OFFCURVE",
"0 1431.75 OFFCURVE",
"0 769 CURVE SMOOTH",
"0 106.252 OFFCURVE",
"537.252 -431 OFFCURVE",
"1200 -431 CURVE SMOOTH",
"1862.75 -431 OFFCURVE",
"2400 106.252 OFFCURVE",
"2400 769 CURVE SMOOTH",
"2400 1431.75 OFFCURVE",
"1862.75 1969 OFFCURVE",
"1200 1969 CURVE SMOOTH"
);
},
{
closed = 1;
nodes = (
"435.233 1555 LINE",
"1293.91 1555 OFFCURVE",
"1990 858.756 OFFCURVE",
"1990 0 CURVE",
"1692.28 0 LINE",
"1692.28 694.293 OFFCURVE",
"1129.48 1257.21 OFFCURVE",
"435.233 1257.21 CURVE"
);
},
{
closed = 1;
nodes = (
"435.233 1025.61 LINE",
"1001.59 1025.61 OFFCURVE",
"1460.72 566.381 OFFCURVE",
"1460.72 0 CURVE",
"1163 0 LINE",
"1163 401.916 OFFCURVE",
"837.167 727.818 OFFCURVE",
"435.233 727.818 CURVE"
);
},
{
closed = 1;
nodes = (
"750.668 410.182 OFFCURVE",
"845.427 315.395 OFFCURVE",
"845.427 198.418 CURVE SMOOTH",
"845.427 81.4552 OFFCURVE",
"750.668 -13 OFFCURVE",
"633.702 -13 CURVE SMOOTH",
"516.828 -13 OFFCURVE",
"422 81.4552 OFFCURVE",
"422 198.418 CURVE SMOOTH",
"422 315.395 OFFCURVE",
"516.828 410.182 OFFCURVE",
"633.702 410.182 CURVE SMOOTH"
);
}
);
width = 2400;
}
);
unicode = E045;
},
{
glyphname = uniE046;
lastChange = "2013-10-29 20:27:43 -0800";
layers = (
{
layerId = "06D35582-4FA2-40C1-8C5B-DEFCD1A2473F";
name = Regular;
paths = (
{
closed = 1;
nodes = (
"435.233 1257.21 LINE",
"1129.48 1257.21 OFFCURVE",
"1692.28 694.293 OFFCURVE",
"1692.28 0 CURVE",
"1990 0 LINE",
"1990 858.756 OFFCURVE",
"1293.91 1555 OFFCURVE",
"435.233 1555 CURVE"
);
},
{
closed = 1;
nodes = (
"435.233 727.818 LINE",
"837.167 727.818 OFFCURVE",
"1163 401.916 OFFCURVE",
"1163 0 CURVE",
"1460.72 0 LINE",
"1460.72 566.381 OFFCURVE",
"1001.59 1025.61 OFFCURVE",
"435.233 1025.61 CURVE"
);
},
{
closed = 1;
nodes = (
"516.828 410.182 OFFCURVE",
"422 315.395 OFFCURVE",
"422 198.418 CURVE SMOOTH",
"422 81.455 OFFCURVE",
"516.828 -13 OFFCURVE",
"633.702 -13 CURVE SMOOTH",
"750.668 -13 OFFCURVE",
"845.427 81.455 OFFCURVE",
"845.427 198.418 CURVE SMOOTH",
"845.427 315.395 OFFCURVE",
"750.668 410.182 OFFCURVE",
"633.702 410.182 CURVE SMOOTH"
);
}
);
width = 2400;
}
);
unicode = E046;
},
{
glyphname = uniE048;
lastChange = "2014-01-10 18:38:46 -0800";
layers = (
{
layerId = "06D35582-4FA2-40C1-8C5B-DEFCD1A2473F";
name = Regular;
paths = (
{
closed = 1;
nodes = (
"2076 1142 LINE",
"1200 509 LINE",
"324 1142 LINE",
"324 235 LINE",
"2076 235 LINE"
);
}
);
width = 2400;
}
);
unicode = E048;
},
{
glyphname = uniE049;
layers = (
{
layerId = "06D35582-4FA2-40C1-8C5B-DEFCD1A2473F";
name = Regular;
paths = (
{
closed = 1;
nodes = (
"2100 1303 LINE",
"300 1303 LINE",
"1200 653 LINE"
);
}
);
width = 2400;
}
);
unicode = E049;
},
{
glyphname = uniE04A;
lastChange = "2013-11-14 02:09:41 -0800";
layers = (
{
layerId = "06D35582-4FA2-40C1-8C5B-DEFCD1A2473F";
name = Regular;
paths = (
{
closed = 1;
nodes = (
"2400 1969 LINE",
"0 1969 LINE",
"0 -431 LINE",
"2400 -431 LINE"
);
},
{
closed = 1;
nodes = (
"2100 1303 LINE",
"1200 653 LINE",
"300 1303 LINE"
);
},
{
closed = 1;
nodes = (
"2076 1142 LINE",
"2076 235 LINE",
"324 235 LINE",
"324 1142 LINE",
"1200 509 LINE"
);
}
);
width = 2400;
}
);
unicode = E04A;
},
{
glyphname = uniE04B;
lastChange = "2013-11-14 02:09:48 -0800";
layers = (
{
layerId = "06D35582-4FA2-40C1-8C5B-DEFCD1A2473F";
name = Regular;
paths = (
{
closed = 1;
nodes = (
"256 1969 LINE SMOOTH",
"114.615 1969 OFFCURVE",
"0 1854.39 OFFCURVE",
"0 1713 CURVE SMOOTH",
"0 -175 LINE SMOOTH",
"0 -316 OFFCURVE",
"114.615 -431 OFFCURVE",
"256 -431 CURVE SMOOTH",
"2144 -431 LINE SMOOTH",
"2285.38 -431 OFFCURVE",
"2400 -316 OFFCURVE",
"2400 -175 CURVE SMOOTH",
"2400 1713 LINE SMOOTH",
"2400 1854.39 OFFCURVE",
"2285.38 1969 OFFCURVE",
"2144 1969 CURVE SMOOTH"
);
},
{
closed = 1;
nodes = (
"2100 1303 LINE",
"1200 653 LINE",
"300 1303 LINE"
);
},
{
closed = 1;
nodes = (
"2076 1142 LINE",
"2076 235 LINE",
"324 235 LINE",
"324 1142 LINE",
"1200 509 LINE"
);
}
);
width = 2400;
}
);
unicode = E04B;
},
{
glyphname = uniE04C;
lastChange = "2013-11-14 02:09:57 -0800";
layers = (
{
layerId = "06D35582-4FA2-40C1-8C5B-DEFCD1A2473F";
name = Regular;
paths = (
{
closed = 1;
nodes = (
"352 1969 LINE SMOOTH",
"157.596 1969 OFFCURVE",
"0 1811.4 OFFCURVE",
"0 1617 CURVE SMOOTH",
"0 -79 LINE SMOOTH",
"0 -273 OFFCURVE",
"157.596 -431 OFFCURVE",
"352 -431 CURVE SMOOTH",
"2048 -431 LINE SMOOTH",
"2242.4 -431 OFFCURVE",
"2400 -273 OFFCURVE",
"2400 -79 CURVE SMOOTH",
"2400 1617 LINE SMOOTH",
"2400 1811.4 OFFCURVE",
"2242.4 1969 OFFCURVE",
"2048 1969 CURVE SMOOTH"
);
},
{
closed = 1;
nodes = (
"2100 1303 LINE",
"1200 653 LINE",
"300 1303 LINE"
);
},
{
closed = 1;
nodes = (
"2076 1142 LINE",
"2076 235 LINE",
"324 235 LINE",
"324 1142 LINE",
"1200 509 LINE"
);
}
);
width = 2400;
}
);
unicode = E04C;
},
{
glyphname = uniE04D;
lastChange = "2013-11-14 02:10:04 -0800";
layers = (
{
layerId = "06D35582-4FA2-40C1-8C5B-DEFCD1A2473F";
name = Regular;
paths = (
{
closed = 1;
nodes = (
"836.742 1969 LINE SMOOTH",
"595.804 1969 OFFCURVE",
"475.34 1969 OFFCURVE",
"345.66 1928 CURVE",
"204.07 1876.46 OFFCURVE",
"92.539 1764.93 OFFCURVE",
"41.004 1623.34 CURVE",
"0 1493.66 OFFCURVE",
"0 1373.2 OFFCURVE",
"0 1132.26 CURVE SMOOTH",
"0 405.743 LINE SMOOTH",
"0 164.805 OFFCURVE",
"0 44.344 OFFCURVE",
"41.004 -85 CURVE",
"92.539 -227 OFFCURVE",
"204.07 -338 OFFCURVE",
"345.66 -390 CURVE",
"475.34 -431 OFFCURVE",
"595.804 -431 OFFCURVE",
"836.742 -431 CURVE SMOOTH",
"1563.26 -431 LINE SMOOTH",
"1804.2 -431 OFFCURVE",
"1924.66 -431 OFFCURVE",
"2054.34 -390 CURVE",
"2195.93 -338 OFFCURVE",
"2307.46 -227 OFFCURVE",
"2359 -85 CURVE",
"2400 44.344 OFFCURVE",
"2400 164.805 OFFCURVE",
"2400 405.743 CURVE SMOOTH",
"2400 1132.26 LINE SMOOTH",
"2400 1373.2 OFFCURVE",
"2400 1493.66 OFFCURVE",
"2359 1623.34 CURVE",
"2307.46 1764.93 OFFCURVE",
"2195.93 1876.46 OFFCURVE",
"2054.34 1928 CURVE",
"1924.66 1969 OFFCURVE",
"1804.2 1969 OFFCURVE",
"1563.26 1969 CURVE SMOOTH"
);
},
{
closed = 1;
nodes = (
"2100 1303 LINE",
"1200 653 LINE",
"300 1303 LINE"
);
},
{
closed = 1;
nodes = (
"2076 1142 LINE",
"2076 235 LINE",
"324 235 LINE",
"324 1142 LINE",
"1200 509 LINE"
);
}
);
width = 2400;
}
);
unicode = E04D;
},
{
glyphname = uniE04E;
lastChange = "2013-11-14 02:10:11 -0800";
layers = (
{
layerId = "06D35582-4FA2-40C1-8C5B-DEFCD1A2473F";
name = Regular;
paths = (
{
closed = 1;
nodes = (
"537.252 1969 OFFCURVE",
"0 1431.75 OFFCURVE",
"0 769 CURVE SMOOTH",
"0 106.252 OFFCURVE",
"537.252 -431 OFFCURVE",
"1200 -431 CURVE SMOOTH",
"1862.75 -431 OFFCURVE",
"2400 106.252 OFFCURVE",
"2400 769 CURVE SMOOTH",
"2400 1431.75 OFFCURVE",
"1862.75 1969 OFFCURVE",
"1200 1969 CURVE SMOOTH"
);
},
{
closed = 1;
nodes = (
"2100 1303 LINE",
"1200 653 LINE",
"300 1303 LINE"
);
},
{
closed = 1;
nodes = (
"2076 1142 LINE",
"2076 235 LINE",
"324 235 LINE",
"324 1142 LINE",
"1200 509 LINE"
);
}
);
width = 2400;
}
);
unicode = E04E;
},
{
glyphname = uniE04F;
lastChange = "2014-01-08 19:14:38 -0800";
layers = (
{
layerId = "06D35582-4FA2-40C1-8C5B-DEFCD1A2473F";
name = Regular;
paths = (
{
closed = 1;
nodes = (
"2100 1303 LINE",
"300 1303 LINE",
"1200 653 LINE"
);
},
{
closed = 1;
nodes = (
"2076 1142 LINE",
"1200 509 LINE",
"324 1142 LINE",
"324 235 LINE",
"2076 235 LINE"
);
}
);
width = 2400;
}
);
unicode = E04F;
},
{
glyphname = uniE050;
lastChange = "2013-12-02 20:51:01 -0800";
layers = (
{
layerId = "06D35582-4FA2-40C1-8C5B-DEFCD1A2473F";
name = Regular;
paths = (
{
closed = 1;
nodes = (
"214 128 LINE",
"2186 128 LINE",
"2186 1410 LINE",
"214 1410 LINE"
);
},
{
closed = 1;
nodes = (
"324 235 LINE",
"324 1142 LINE",
"1200 509 LINE",
"2076 1142 LINE",
"2076 235 LINE"
);
},
{
closed = 1;
nodes = (
"300 1303 LINE",
"2100 1303 LINE",
"1200 653 LINE"
);
}
);
width = 2400;
}
);
unicode = E050;
},
{
glyphname = uniE061;
lastChange = "2013-12-16 06:46:30 -0800";
layers = (
{
layerId = "06D35582-4FA2-40C1-8C5B-DEFCD1A2473F";
name = Regular;
paths = (
{
closed = 1;
nodes = (
"2400 1969 LINE",
"0 1969 LINE",
"0 -431 LINE",
"2400 -431 LINE"
);
},
{
closed = 1;
nodes = (
"1401.46 1561 OFFCURVE",
"1688 1274.46 OFFCURVE",
"1688 920.999 CURVE SMOOTH",
"1688 784.188 OFFCURVE",
"1645.06 657.411 OFFCURVE",
"1571.94 553.387 CURVE",
"1951.94 173.387 LINE SMOOTH",
"1995.68 129.647 OFFCURVE",
"1995.68 58.734 OFFCURVE",
"1951.94 14.995 CURVE SMOOTH",
"1908.2 -29 OFFCURVE",
"1837.29 -29 OFFCURVE",
"1793.55 14.995 CURVE SMOOTH",
"1413.19 395.357 LINE",
"1309.62 323.269 OFFCURVE",
"1183.75 281 OFFCURVE",
"1048 281 CURVE SMOOTH",
"694.538 281 OFFCURVE",
"408 567.538 OFFCURVE",
"408 921 CURVE SMOOTH",
"408 1274.46 OFFCURVE",
"694.538 1561 OFFCURVE",
"1048 1561 CURVE SMOOTH"
);
},
{
closed = 1;
nodes = (
"800.576 1369 OFFCURVE",
"600 1168.42 OFFCURVE",
"600 921 CURVE SMOOTH",
"600 673.576 OFFCURVE",
"800.576 473 OFFCURVE",
"1048 473 CURVE SMOOTH",
"1295.42 473 OFFCURVE",
"1496 673.576 OFFCURVE",
"1496 921 CURVE SMOOTH",
"1496 1168.42 OFFCURVE",
"1295.42 1369 OFFCURVE",
"1048 1369 CURVE SMOOTH"
);
}
);
width = 2400;
}
);
unicode = E061;
},
{
glyphname = uniE062;
lastChange = "2013-12-16 06:46:30 -0800";
layers = (
{
layerId = "06D35582-4FA2-40C1-8C5B-DEFCD1A2473F";
name = Regular;
paths = (
{
closed = 1;
nodes = (
"256 1969 LINE SMOOTH",
"114.615 1969 OFFCURVE",
"0 1854.39 OFFCURVE",
"0 1713 CURVE SMOOTH",
"0 -175 LINE SMOOTH",
"0 -316 OFFCURVE",
"114.615 -431 OFFCURVE",
"256 -431 CURVE SMOOTH",
"2144 -431 LINE SMOOTH",
"2285.38 -431 OFFCURVE",
"2400 -316 OFFCURVE",
"2400 -175 CURVE SMOOTH",
"2400 1713 LINE SMOOTH",
"2400 1854.39 OFFCURVE",
"2285.38 1969 OFFCURVE",
"2144 1969 CURVE SMOOTH"
);
},
{
closed = 1;
nodes = (
"1401.46 1561 OFFCURVE",
"1688 1274.46 OFFCURVE",
"1688 920.999 CURVE SMOOTH",
"1688 784.188 OFFCURVE",
"1645.06 657.411 OFFCURVE",
"1571.94 553.387 CURVE",
"1951.94 173.387 LINE SMOOTH",
"1995.68 129.647 OFFCURVE",
"1995.68 58.734 OFFCURVE",
"1951.94 14.995 CURVE SMOOTH",
"1908.2 -29 OFFCURVE",
"1837.29 -29 OFFCURVE",
"1793.55 14.995 CURVE SMOOTH",
"1413.19 395.357 LINE",
"1309.62 323.269 OFFCURVE",
"1183.75 281 OFFCURVE",
"1048 281 CURVE SMOOTH",
"694.538 281 OFFCURVE",
"408 567.538 OFFCURVE",
"408 921 CURVE SMOOTH",
"408 1274.46 OFFCURVE",
"694.538 1561 OFFCURVE",
"1048 1561 CURVE SMOOTH"
);
},
{
closed = 1;
nodes = (
"800.576 1369 OFFCURVE",
"600 1168.42 OFFCURVE",
"600 921 CURVE SMOOTH",
"600 673.576 OFFCURVE",
"800.576 473 OFFCURVE",
"1048 473 CURVE SMOOTH",
"1295.42 473 OFFCURVE",
"1496 673.576 OFFCURVE",
"1496 921 CURVE SMOOTH",
"1496 1168.42 OFFCURVE",
"1295.42 1369 OFFCURVE",
"1048 1369 CURVE SMOOTH"
);
}
);
width = 2400;
}
);
unicode = E062;
},
{
glyphname = uniE063;
lastChange = "2013-12-16 06:46:30 -0800";
layers = (
{
layerId = "06D35582-4FA2-40C1-8C5B-DEFCD1A2473F";
name = Regular;
paths = (
{
closed = 1;
nodes = (
"352 1969 LINE SMOOTH",
"157.596 1969 OFFCURVE",
"0 1811.4 OFFCURVE",
"0 1617 CURVE SMOOTH",
"0 -79 LINE SMOOTH",
"0 -273 OFFCURVE",
"157.596 -431 OFFCURVE",
"352 -431 CURVE SMOOTH",
"2048 -431 LINE SMOOTH",
"2242.4 -431 OFFCURVE",
"2400 -273 OFFCURVE",
"2400 -79 CURVE SMOOTH",
"2400 1617 LINE SMOOTH",
"2400 1811.4 OFFCURVE",
"2242.4 1969 OFFCURVE",
"2048 1969 CURVE SMOOTH"
);
},
{
closed = 1;
nodes = (
"1401.46 1561 OFFCURVE",
"1688 1274.46 OFFCURVE",
"1688 920.999 CURVE SMOOTH",
"1688 784.188 OFFCURVE",
"1645.06 657.411 OFFCURVE",
"1571.94 553.387 CURVE",
"1951.94 173.387 LINE SMOOTH",
"1995.68 129.647 OFFCURVE",
"1995.68 58.734 OFFCURVE",
"1951.94 14.995 CURVE SMOOTH",
"1908.2 -29 OFFCURVE",
"1837.29 -29 OFFCURVE",
"1793.55 14.995 CURVE SMOOTH",
"1413.19 395.357 LINE",
"1309.62 323.269 OFFCURVE",
"1183.75 281 OFFCURVE",
"1048 281 CURVE SMOOTH",
"694.538 281 OFFCURVE",
"408 567.538 OFFCURVE",
"408 921 CURVE SMOOTH",
"408 1274.46 OFFCURVE",
"694.538 1561 OFFCURVE",
"1048 1561 CURVE SMOOTH"
);
},
{
closed = 1;
nodes = (
"800.576 1369 OFFCURVE",
"600 1168.42 OFFCURVE",
"600 921 CURVE SMOOTH",
"600 673.576 OFFCURVE",
"800.576 473 OFFCURVE",
"1048 473 CURVE SMOOTH",
"1295.42 473 OFFCURVE",
"1496 673.576 OFFCURVE",
"1496 921 CURVE SMOOTH",
"1496 1168.42 OFFCURVE",
"1295.42 1369 OFFCURVE",
"1048 1369 CURVE SMOOTH"
);
}
);
width = 2400;
}
);
unicode = E063;
},
{
glyphname = uniE064;
lastChange = "2013-12-16 06:46:30 -0800";
layers = (
{
layerId = "06D35582-4FA2-40C1-8C5B-DEFCD1A2473F";
name = Regular;
paths = (
{
closed = 1;
nodes = (
"836.742 1969 LINE SMOOTH",
"595.804 1969 OFFCURVE",
"475.34 1969 OFFCURVE",
"345.66 1928 CURVE",
"204.07 1876.46 OFFCURVE",
"92.539 1764.93 OFFCURVE",
"41.004 1623.34 CURVE",
"0 1493.66 OFFCURVE",
"0 1373.2 OFFCURVE",
"0 1132.26 CURVE SMOOTH",
"0 405.743 LINE SMOOTH",
"0 164.805 OFFCURVE",
"0 44.344 OFFCURVE",
"41.004 -85 CURVE",
"92.539 -227 OFFCURVE",
"204.07 -338 OFFCURVE",
"345.66 -390 CURVE",
"475.34 -431 OFFCURVE",
"595.804 -431 OFFCURVE",
"836.742 -431 CURVE SMOOTH",
"1563.26 -431 LINE SMOOTH",
"1804.2 -431 OFFCURVE",
"1924.66 -431 OFFCURVE",
"2054.34 -390 CURVE",
"2195.93 -338 OFFCURVE",
"2307.46 -227 OFFCURVE",
"2359 -85 CURVE",
"2400 44.344 OFFCURVE",
"2400 164.805 OFFCURVE",
"2400 405.743 CURVE SMOOTH",
"2400 1132.26 LINE SMOOTH",
"2400 1373.2 OFFCURVE",
"2400 1493.66 OFFCURVE",
"2359 1623.34 CURVE",
"2307.46 1764.93 OFFCURVE",
"2195.93 1876.46 OFFCURVE",
"2054.34 1928 CURVE",
"1924.66 1969 OFFCURVE",
"1804.2 1969 OFFCURVE",
"1563.26 1969 CURVE SMOOTH"
);
},
{
closed = 1;
nodes = (
"1401.46 1561 OFFCURVE",
"1688 1274.46 OFFCURVE",
"1688 920.999 CURVE SMOOTH",
"1688 784.188 OFFCURVE",
"1645.06 657.411 OFFCURVE",
"1571.94 553.387 CURVE",
"1951.94 173.387 LINE SMOOTH",
"1995.68 129.647 OFFCURVE",
"1995.68 58.734 OFFCURVE",
"1951.94 14.995 CURVE SMOOTH",
"1908.2 -29 OFFCURVE",
"1837.29 -29 OFFCURVE",
"1793.55 14.995 CURVE SMOOTH",
"1413.19 395.357 LINE",
"1309.62 323.269 OFFCURVE",
"1183.75 281 OFFCURVE",
"1048 281 CURVE SMOOTH",
"694.538 281 OFFCURVE",
"408 567.538 OFFCURVE",
"408 921 CURVE SMOOTH",
"408 1274.46 OFFCURVE",
"694.538 1561 OFFCURVE",
"1048 1561 CURVE SMOOTH"
);
},
{
closed = 1;
nodes = (
"800.576 1369 OFFCURVE",
"600 1168.42 OFFCURVE",
"600 921 CURVE SMOOTH",
"600 673.576 OFFCURVE",
"800.576 473 OFFCURVE",
"1048 473 CURVE SMOOTH",
"1295.42 473 OFFCURVE",
"1496 673.576 OFFCURVE",
"1496 921 CURVE SMOOTH",
"1496 1168.42 OFFCURVE",
"1295.42 1369 OFFCURVE",
"1048 1369 CURVE SMOOTH"
);
}
);
width = 2400;
}
);
unicode = E064;
},
{
glyphname = uniE065;
lastChange = "2013-12-16 06:46:30 -0800";
layers = (
{
layerId = "06D35582-4FA2-40C1-8C5B-DEFCD1A2473F";
name = Regular;
paths = (
{
closed = 1;
nodes = (
"537.252 1969 OFFCURVE",
"0 1431.75 OFFCURVE",
"0 769 CURVE SMOOTH",
"0 106.252 OFFCURVE",
"537.252 -431 OFFCURVE",
"1200 -431 CURVE SMOOTH",
"1862.75 -431 OFFCURVE",
"2400 106.252 OFFCURVE",
"2400 769 CURVE SMOOTH",
"2400 1431.75 OFFCURVE",
"1862.75 1969 OFFCURVE",
"1200 1969 CURVE SMOOTH"
);
},
{
closed = 1;
nodes = (
"1401.46 1561 OFFCURVE",
"1688 1274.46 OFFCURVE",
"1688 920.999 CURVE SMOOTH",
"1688 784.188 OFFCURVE",
"1645.06 657.411 OFFCURVE",
"1571.94 553.387 CURVE",
"1951.94 173.387 LINE SMOOTH",
"1995.68 129.647 OFFCURVE",
"1995.68 58.734 OFFCURVE",
"1951.94 14.995 CURVE SMOOTH",
"1908.2 -29 OFFCURVE",
"1837.29 -29 OFFCURVE",
"1793.55 14.995 CURVE SMOOTH",
"1413.19 395.357 LINE",
"1309.62 323.269 OFFCURVE",
"1183.75 281 OFFCURVE",
"1048 281 CURVE SMOOTH",
"694.538 281 OFFCURVE",
"408 567.538 OFFCURVE",
"408 921 CURVE SMOOTH",
"408 1274.46 OFFCURVE",
"694.538 1561 OFFCURVE",
"1048 1561 CURVE SMOOTH"
);
},
{
closed = 1;
nodes = (
"800.576 1369 OFFCURVE",
"600 1168.42 OFFCURVE",
"600 921 CURVE SMOOTH",
"600 673.576 OFFCURVE",
"800.576 473 OFFCURVE",
"1048 473 CURVE SMOOTH",
"1295.42 473 OFFCURVE",
"1496 673.576 OFFCURVE",
"1496 921 CURVE SMOOTH",
"1496 1168.42 OFFCURVE",
"1295.42 1369 OFFCURVE",
"1048 1369 CURVE SMOOTH"
);
}
);
width = 2400;
}
);
unicode = E065;
},
{
glyphname = uniE066;
lastChange = "2013-12-16 06:46:30 -0800";
layers = (
{
layerId = "06D35582-4FA2-40C1-8C5B-DEFCD1A2473F";
name = Regular;
paths = (
{
closed = 1;
nodes = (
"694.538 1561 OFFCURVE",
"408 1274.46 OFFCURVE",
"408 921 CURVE SMOOTH",
"408 567.538 OFFCURVE",
"694.538 281 OFFCURVE",
"1048 281 CURVE SMOOTH",
"1183.75 281 OFFCURVE",
"1309.62 323.269 OFFCURVE",
"1413.19 395.357 CURVE",
"1793.55 14.995 LINE SMOOTH",
"1837.29 -29 OFFCURVE",
"1908.2 -29 OFFCURVE",
"1951.94 14.995 CURVE SMOOTH",
"1995.68 58.734 OFFCURVE",
"1995.68 129.647 OFFCURVE",
"1951.94 173.387 CURVE SMOOTH",
"1571.94 553.387 LINE",
"1645.06 657.411 OFFCURVE",
"1688 784.188 OFFCURVE",
"1688 920.999 CURVE SMOOTH",
"1688 1274.46 OFFCURVE",
"1401.46 1561 OFFCURVE",
"1048 1561 CURVE SMOOTH"
);
},
{
closed = 1;
nodes = (
"1295.42 1369 OFFCURVE",
"1496 1168.42 OFFCURVE",
"1496 921 CURVE SMOOTH",
"1496 673.576 OFFCURVE",
"1295.42 473 OFFCURVE",
"1048 473 CURVE SMOOTH",
"800.576 473 OFFCURVE",
"600 673.576 OFFCURVE",
"600 921 CURVE SMOOTH",
"600 1168.42 OFFCURVE",
"800.576 1369 OFFCURVE",
"1048 1369 CURVE SMOOTH"
);
}
);
width = 2400;
}
);
unicode = E066;
},
{
glyphname = uniE067;
lastChange = "2013-12-16 06:46:30 -0800";
layers = (
{
layerId = "06D35582-4FA2-40C1-8C5B-DEFCD1A2473F";
name = Regular;
paths = (
{
closed = 1;
nodes = (
"800.576 1369 OFFCURVE",
"600 1168.42 OFFCURVE",
"600 921 CURVE SMOOTH",
"600 673.576 OFFCURVE",
"800.576 473 OFFCURVE",
"1048 473 CURVE SMOOTH",
"1295.42 473 OFFCURVE",
"1496 673.576 OFFCURVE",
"1496 921 CURVE SMOOTH",
"1496 1168.42 OFFCURVE",
"1295.42 1369 OFFCURVE",
"1048 1369 CURVE SMOOTH"
);
}
);
width = 2400;
}
);
unicode = E067;
},
{
glyphname = uniE068;
lastChange = "2013-12-16 09:28:52 -0800";
layers = (
{
layerId = "06D35582-4FA2-40C1-8C5B-DEFCD1A2473F";
name = Regular;
paths = (
{
closed = 1;
nodes = (
"800.576 1361 OFFCURVE",
"600 1160.42 OFFCURVE",
"600 912.998 CURVE SMOOTH",
"600 665.574 OFFCURVE",
"800.576 464.998 OFFCURVE",
"1048 464.998 CURVE SMOOTH",
"1295.42 464.998 OFFCURVE",
"1496 665.574 OFFCURVE",
"1496 912.998 CURVE SMOOTH",
"1496 1160.42 OFFCURVE",
"1295.42 1361 OFFCURVE",
"1048 1361 CURVE SMOOTH"
);
},
{
closed = 1;
nodes = (
"1176.42 1269.04 OFFCURVE",
"1183.07 1240.89 OFFCURVE",
"1146 1244 CURVE SMOOTH",
"990.229 1257.07 OFFCURVE",
"799.529 1151.21 OFFCURVE",
"775 885.738 CURVE SMOOTH",
"767.574 805.364 OFFCURVE",
"679.583 841.46 OFFCURVE",
"700 983.353 CURVE SMOOTH",
"729.863 1190.9 OFFCURVE",
"944.258 1329.94 OFFCURVE",
"1127 1282 CURVE SMOOTH"
);
}
);
width = 2400;
}
);
unicode = E068;
},
{
glyphname = uniE069;
lastChange = "2013-12-16 09:29:02 -0800";
layers = (
{
layerId = "06D35582-4FA2-40C1-8C5B-DEFCD1A2473F";
name = Regular;
paths = (
{
closed = 1;
nodes = (
"944.258 1329.94 OFFCURVE",
"729.863 1190.9 OFFCURVE",
"700 983.353 CURVE SMOOTH",
"679.583 841.46 OFFCURVE",
"767.574 805.364 OFFCURVE",
"775 885.738 CURVE SMOOTH",
"799.529 1151.21 OFFCURVE",
"990.229 1257.07 OFFCURVE",
"1146 1244 CURVE SMOOTH",
"1183.07 1240.89 OFFCURVE",
"1176.42 1269.04 OFFCURVE",
"1127 1282 CURVE SMOOTH"
);
}
);
width = 2400;
}
);
unicode = E069;
},
{
glyphname = uniE06A;
lastChange = "2013-12-16 00:39:14 -0800";
layers = (
{
layerId = "06D35582-4FA2-40C1-8C5B-DEFCD1A2473F";
name = Regular;
paths = (
{
closed = 1;
nodes = (
"2400 1969 LINE",
"0 1969 LINE",
"0 -431 LINE",
"2400 -431 LINE"
);
},
{
closed = 1;
nodes = (
"1385 1441 LINE",
"1385 953 LINE",
"1873 953 LINE",
"1873 585 LINE",
"1385 585 LINE",
"1385 97 LINE",
"1017 97 LINE",
"1017 585 LINE",
"529 585 LINE",
"529 953 LINE",
"1017 953 LINE",
"1017 1441 LINE"
);
}
);
width = 2400;
}
);
unicode = E06A;
},
{
glyphname = uniE06B;
lastChange = "2013-12-16 00:39:14 -0800";
layers = (
{
layerId = "06D35582-4FA2-40C1-8C5B-DEFCD1A2473F";
name = Regular;
paths = (
{
closed = 1;
nodes = (
"256 1969 LINE SMOOTH",
"114.615 1969 OFFCURVE",
"0 1854.39 OFFCURVE",
"0 1713 CURVE SMOOTH",
"0 -175 LINE SMOOTH",
"0 -316 OFFCURVE",
"114.615 -431 OFFCURVE",
"256 -431 CURVE SMOOTH",
"2144 -431 LINE SMOOTH",
"2285.38 -431 OFFCURVE",
"2400 -316 OFFCURVE",
"2400 -175 CURVE SMOOTH",
"2400 1713 LINE SMOOTH",
"2400 1854.39 OFFCURVE",
"2285.38 1969 OFFCURVE",
"2144 1969 CURVE SMOOTH"
);
},
{
closed = 1;
nodes = (
"1385 1441 LINE",
"1385 953 LINE",
"1873 953 LINE",
"1873 585 LINE",
"1385 585 LINE",
"1385 97 LINE",
"1017 97 LINE",
"1017 585 LINE",
"529 585 LINE",
"529 953 LINE",
"1017 953 LINE",
"1017 1441 LINE"
);
}
);
width = 2400;
}
);
unicode = E06B;
},
{
glyphname = uniE06C;
lastChange = "2013-12-16 00:39:14 -0800";
layers = (
{
layerId = "06D35582-4FA2-40C1-8C5B-DEFCD1A2473F";
name = Regular;
paths = (
{
closed = 1;
nodes = (
"352 1969 LINE SMOOTH",
"157.596 1969 OFFCURVE",
"0 1811.4 OFFCURVE",
"0 1617 CURVE SMOOTH",
"0 -79 LINE SMOOTH",
"0 -273 OFFCURVE",
"157.596 -431 OFFCURVE",
"352 -431 CURVE SMOOTH",
"2048 -431 LINE SMOOTH",
"2242.4 -431 OFFCURVE",
"2400 -273 OFFCURVE",
"2400 -79 CURVE SMOOTH",
"2400 1617 LINE SMOOTH",
"2400 1811.4 OFFCURVE",
"2242.4 1969 OFFCURVE",
"2048 1969 CURVE SMOOTH"
);
},
{
closed = 1;
nodes = (
"1385 1441 LINE",
"1385 953 LINE",
"1873 953 LINE",
"1873 585 LINE",
"1385 585 LINE",
"1385 97 LINE",
"1017 97 LINE",
"1017 585 LINE",
"529 585 LINE",
"529 953 LINE",
"1017 953 LINE",
"1017 1441 LINE"
);
}
);
width = 2400;
}
);
unicode = E06C;
},
{
glyphname = uniE06D;
lastChange = "2013-12-16 00:39:14 -0800";
layers = (
{
layerId = "06D35582-4FA2-40C1-8C5B-DEFCD1A2473F";
name = Regular;
paths = (
{
closed = 1;
nodes = (
"836.742 1969 LINE SMOOTH",
"595.804 1969 OFFCURVE",
"475.34 1969 OFFCURVE",
"345.66 1928 CURVE",
"204.07 1876.46 OFFCURVE",
"92.539 1764.93 OFFCURVE",
"41.004 1623.34 CURVE",
"0 1493.66 OFFCURVE",
"0 1373.2 OFFCURVE",
"0 1132.26 CURVE SMOOTH",
"0 405.743 LINE SMOOTH",
"0 164.805 OFFCURVE",
"0 44.344 OFFCURVE",
"41.004 -85 CURVE",
"92.539 -227 OFFCURVE",
"204.07 -338 OFFCURVE",
"345.66 -390 CURVE",
"475.34 -431 OFFCURVE",
"595.804 -431 OFFCURVE",
"836.742 -431 CURVE SMOOTH",
"1563.26 -431 LINE SMOOTH",
"1804.2 -431 OFFCURVE",
"1924.66 -431 OFFCURVE",
"2054.34 -390 CURVE",
"2195.93 -338 OFFCURVE",
"2307.46 -227 OFFCURVE",
"2359 -85 CURVE",
"2400 44.344 OFFCURVE",
"2400 164.805 OFFCURVE",
"2400 405.743 CURVE SMOOTH",
"2400 1132.26 LINE SMOOTH",
"2400 1373.2 OFFCURVE",
"2400 1493.66 OFFCURVE",
"2359 1623.34 CURVE",
"2307.46 1764.93 OFFCURVE",
"2195.93 1876.46 OFFCURVE",
"2054.34 1928 CURVE",
"1924.66 1969 OFFCURVE",
"1804.2 1969 OFFCURVE",
"1563.26 1969 CURVE SMOOTH"
);
},
{
closed = 1;
nodes = (
"1385 1441 LINE",
"1385 953 LINE",
"1873 953 LINE",
"1873 585 LINE",
"1385 585 LINE",
"1385 97 LINE",
"1017 97 LINE",
"1017 585 LINE",
"529 585 LINE",
"529 953 LINE",
"1017 953 LINE",
"1017 1441 LINE"
);
}
);
width = 2400;
}
);
unicode = E06D;
},
{
glyphname = uniE06E;
lastChange = "2013-12-16 00:39:14 -0800";
layers = (
{
layerId = "06D35582-4FA2-40C1-8C5B-DEFCD1A2473F";
name = Regular;
paths = (
{
closed = 1;
nodes = (
"537.252 1969 OFFCURVE",
"0 1431.75 OFFCURVE",
"0 769 CURVE SMOOTH",
"0 106.252 OFFCURVE",
"537.252 -431 OFFCURVE",
"1200 -431 CURVE SMOOTH",
"1862.75 -431 OFFCURVE",
"2400 106.252 OFFCURVE",
"2400 769 CURVE SMOOTH",
"2400 1431.75 OFFCURVE",
"1862.75 1969 OFFCURVE",
"1200 1969 CURVE SMOOTH"
);
},
{
closed = 1;
nodes = (
"1385 1441 LINE",
"1385 953 LINE",
"1873 953 LINE",
"1873 585 LINE",
"1385 585 LINE",
"1385 97 LINE",
"1017 97 LINE",
"1017 585 LINE",
"529 585 LINE",
"529 953 LINE",
"1017 953 LINE",
"1017 1441 LINE"
);
}
);
width = 2400;
}
);
unicode = E06E;
},
{
glyphname = uniE06F;
lastChange = "2013-12-16 00:39:14 -0800";
layers = (
{
layerId = "06D35582-4FA2-40C1-8C5B-DEFCD1A2473F";
name = Regular;
paths = (
{
closed = 1;
nodes = (
"1385 1441 LINE",
"1017 1441 LINE",
"1017 953 LINE",
"529 953 LINE",
"529 585 LINE",
"1017 585 LINE",
"1017 97 LINE",
"1385 97 LINE",
"1385 585 LINE",
"1873 585 LINE",
"1873 953 LINE",
"1385 953 LINE"
);
}
);
width = 2400;
}
);
unicode = E06F;
},
{
glyphname = uniE071;
lastChange = "2013-12-16 00:38:42 -0800";
layers = (
{
layerId = "06D35582-4FA2-40C1-8C5B-DEFCD1A2473F";
name = Regular;
paths = (
{
closed = 1;
nodes = (
"2400 1969 LINE",
"0 1969 LINE",
"0 -431 LINE",
"2400 -431 LINE"
);
},
{
closed = 1;
nodes = (
"1199.99 1536 LINE",
"2065 254 LINE",
"1860.97 254.65 LINE",
"1664.7 546.227 LINE",
"735.293 546.227 LINE",
"539.035 254.65 LINE",
"335 254 LINE"
);
},
{
closed = 1;
nodes = (
"1199.99 1234.86 LINE",
"849.295 714.316 LINE",
"1550.7 714.316 LINE"
);
}
);
width = 2400;
}
);
unicode = E071;
},
{
glyphname = uniE072;
lastChange = "2013-12-16 00:38:44 -0800";
layers = (
{
layerId = "06D35582-4FA2-40C1-8C5B-DEFCD1A2473F";
name = Regular;
paths = (
{
closed = 1;
nodes = (
"256 1969 LINE SMOOTH",
"114.615 1969 OFFCURVE",
"0 1854.39 OFFCURVE",
"0 1713 CURVE SMOOTH",
"0 -175 LINE SMOOTH",
"0 -316 OFFCURVE",
"114.615 -431 OFFCURVE",
"256 -431 CURVE SMOOTH",
"2144 -431 LINE SMOOTH",
"2285.38 -431 OFFCURVE",
"2400 -316 OFFCURVE",
"2400 -175 CURVE SMOOTH",
"2400 1713 LINE SMOOTH",
"2400 1854.39 OFFCURVE",
"2285.38 1969 OFFCURVE",
"2144 1969 CURVE SMOOTH"
);
},
{
closed = 1;
nodes = (
"2065 254 LINE",
"1860.97 254.65 LINE",
"1664.7 546.227 LINE",
"735.293 546.227 LINE",
"539.035 254.65 LINE",
"335 254 LINE",
"1199.99 1536 LINE"
);
},
{
closed = 1;
nodes = (
"849.295 714.316 LINE",
"1550.7 714.316 LINE",
"1199.99 1234.86 LINE"
);
}
);
width = 2400;
}
);
unicode = E072;
},
{
glyphname = uniE073;
lastChange = "2013-12-16 00:38:46 -0800";
layers = (
{
layerId = "06D35582-4FA2-40C1-8C5B-DEFCD1A2473F";
name = Regular;
paths = (
{
closed = 1;
nodes = (
"352 1969 LINE SMOOTH",
"157.596 1969 OFFCURVE",
"0 1811.4 OFFCURVE",
"0 1617 CURVE SMOOTH",
"0 -79 LINE SMOOTH",
"0 -273 OFFCURVE",
"157.596 -431 OFFCURVE",
"352 -431 CURVE SMOOTH",
"2048 -431 LINE SMOOTH",
"2242.4 -431 OFFCURVE",
"2400 -273 OFFCURVE",
"2400 -79 CURVE SMOOTH",
"2400 1617 LINE SMOOTH",
"2400 1811.4 OFFCURVE",
"2242.4 1969 OFFCURVE",
"2048 1969 CURVE SMOOTH"
);
},
{
closed = 1;
nodes = (
"2065 254 LINE",
"1860.97 254.65 LINE",
"1664.7 546.227 LINE",
"735.293 546.227 LINE",
"539.035 254.65 LINE",
"335 254 LINE",
"1199.99 1536 LINE"
);
},
{
closed = 1;
nodes = (
"849.295 714.316 LINE",
"1550.7 714.316 LINE",
"1199.99 1234.86 LINE"
);
}
);
width = 2400;
}
);
unicode = E073;
},
{
glyphname = uniE074;
lastChange = "2013-12-16 00:38:48 -0800";
layers = (
{
layerId = "06D35582-4FA2-40C1-8C5B-DEFCD1A2473F";
name = Regular;
paths = (
{
closed = 1;
nodes = (
"836.742 1969 LINE SMOOTH",
"595.804 1969 OFFCURVE",
"475.34 1969 OFFCURVE",
"345.66 1928 CURVE",
"204.07 1876.46 OFFCURVE",
"92.539 1764.93 OFFCURVE",
"41.004 1623.34 CURVE",
"0 1493.66 OFFCURVE",
"0 1373.2 OFFCURVE",
"0 1132.26 CURVE SMOOTH",
"0 405.743 LINE SMOOTH",
"0 164.805 OFFCURVE",
"0 44.344 OFFCURVE",
"41.004 -85 CURVE",
"92.539 -227 OFFCURVE",
"204.07 -338 OFFCURVE",
"345.66 -390 CURVE",
"475.34 -431 OFFCURVE",
"595.804 -431 OFFCURVE",
"836.742 -431 CURVE SMOOTH",
"1563.26 -431 LINE SMOOTH",
"1804.2 -431 OFFCURVE",
"1924.66 -431 OFFCURVE",
"2054.34 -390 CURVE",
"2195.93 -338 OFFCURVE",
"2307.46 -227 OFFCURVE",
"2359 -85 CURVE",
"2400 44.344 OFFCURVE",
"2400 164.805 OFFCURVE",
"2400 405.743 CURVE SMOOTH",
"2400 1132.26 LINE SMOOTH",
"2400 1373.2 OFFCURVE",
"2400 1493.66 OFFCURVE",
"2359 1623.34 CURVE",
"2307.46 1764.93 OFFCURVE",
"2195.93 1876.46 OFFCURVE",
"2054.34 1928 CURVE",
"1924.66 1969 OFFCURVE",
"1804.2 1969 OFFCURVE",
"1563.26 1969 CURVE SMOOTH"
);
},
{
closed = 1;
nodes = (
"2065 254 LINE",
"1860.97 254.65 LINE",
"1664.7 546.227 LINE",
"735.293 546.227 LINE",
"539.035 254.65 LINE",
"335 254 LINE",
"1199.99 1536 LINE"
);
},
{
closed = 1;
nodes = (
"849.295 714.316 LINE",
"1550.7 714.316 LINE",
"1199.99 1234.86 LINE"
);
}
);
width = 2400;
}
);
unicode = E074;
},
{
glyphname = uniE075;
lastChange = "2013-12-16 00:38:50 -0800";
layers = (
{
layerId = "06D35582-4FA2-40C1-8C5B-DEFCD1A2473F";
name = Regular;
paths = (
{
closed = 1;
nodes = (
"537.252 1969 OFFCURVE",
"0 1431.75 OFFCURVE",
"0 769 CURVE SMOOTH",
"0 106.252 OFFCURVE",
"537.252 -431 OFFCURVE",
"1200 -431 CURVE SMOOTH",
"1862.75 -431 OFFCURVE",
"2400 106.252 OFFCURVE",
"2400 769 CURVE SMOOTH",
"2400 1431.75 OFFCURVE",
"1862.75 1969 OFFCURVE",
"1200 1969 CURVE SMOOTH"
);
},
{
closed = 1;
nodes = (
"2065 254 LINE",
"1860.97 254.65 LINE",
"1664.7 546.227 LINE",
"735.293 546.227 LINE",
"539.035 254.65 LINE",
"335 254 LINE",
"1199.99 1536 LINE"
);
},
{
closed = 1;
nodes = (
"849.295 714.316 LINE",
"1550.7 714.316 LINE",
"1199.99 1234.86 LINE"
);
}
);
width = 2400;
}
);
unicode = E075;
},
{
glyphname = uniE076;
lastChange = "2013-12-16 00:38:51 -0800";
layers = (
{
layerId = "06D35582-4FA2-40C1-8C5B-DEFCD1A2473F";
name = Regular;
paths = (
{
closed = 1;
nodes = (
"335 254 LINE",
"539.035 254.65 LINE",
"735.293 546.227 LINE",
"1664.7 546.227 LINE",
"1860.97 254.65 LINE",
"2065 254 LINE",
"1199.99 1536 LINE"
);
},
{
closed = 1;
nodes = (
"1550.7 714.316 LINE",
"849.295 714.316 LINE",
"1199.99 1234.86 LINE"
);
}
);
width = 2400;
}
);
unicode = E076;
},
{
glyphname = uniE078;
lastChange = "2014-02-02 01:27:46 -0800";
layers = (
{
layerId = "06D35582-4FA2-40C1-8C5B-DEFCD1A2473F";
name = Regular;
paths = (
{
closed = 1;
nodes = (
"136.742 537.723 OFFCURVE",
"36.836 504.307 OFFCURVE",
"16 393.68 CURVE SMOOTH",
"14 381.919 OFFCURVE",
"22 375.745 OFFCURVE",
"29.936 374.004 CURVE",
"121.117 364.12 LINE",
"129.655 364.554 OFFCURVE",
"135.83 372.947 OFFCURVE",
"137.467 381.432 CURVE SMOOTH",
"145.278 419.541 OFFCURVE",
"177.213 437.932 OFFCURVE",
"213.094 437.932 CURVE SMOOTH",
"232.439 437.932 OFFCURVE",
"254.447 430.794 OFFCURVE",
"265.905 413.48 CURVE SMOOTH",
"279.106 394.115 OFFCURVE",
"277.323 367.663 OFFCURVE",
"277.323 345.251 CURVE SMOOTH",
"277.323 333.035 LINE",
"222.782 326.912 OFFCURVE",
"151.475 322.838 OFFCURVE",
"100.435 300.428 CURVE SMOOTH",
"41.447 274.97 OFFCURVE",
"0 223.029 OFFCURVE",
"0 146.656 CURVE SMOOTH",
"0 48.895 OFFCURVE",
"61.704 0 OFFCURVE",
"140.918 0 CURVE SMOOTH",
"207.809 0 OFFCURVE",
"244.376 15.791 OFFCURVE",
"296.037 68.406 CURVE",
"313.111 43.673 OFFCURVE",
"318.707 31.675 OFFCURVE",
"349.978 5.699 CURVE",
"356.983 1.928 OFFCURVE",
"365.976 2.301 OFFCURVE",
"372.419 7.678 CURVE SMOOTH",
"391.195 24.402 OFFCURVE",
"425.346 54.056 OFFCURVE",
"444.577 70.167 CURVE SMOOTH",
"452.244 76.436 OFFCURVE",
"450.876 86.601 OFFCURVE",
"444.868 95.18 CURVE SMOOTH",
"427.688 118.928 OFFCURVE",
"409.368 138.262 OFFCURVE",
"409.368 182.371 CURVE SMOOTH",
"409.368 328.931 LINE SMOOTH",
"409.368 391.069 OFFCURVE",
"413.762 448.108 OFFCURVE",
"368.007 490.878 CURVE SMOOTH",
"331.907 525.528 OFFCURVE",
"272.06 537.723 OFFCURVE",
"226.285 537.723 CURVE SMOOTH"
);
},
{
closed = 1;
nodes = (
"1370.18 537.723 OFFCURVE",
"1270.27 504.307 OFFCURVE",
"1249.3 393.68 CURVE SMOOTH",
"1247.08 381.919 OFFCURVE",
"1255.64 375.745 OFFCURVE",
"1263.35 374.004 CURVE",
"1354.55 364.12 LINE",
"1363.07 364.554 OFFCURVE",
"1369.24 372.947 OFFCURVE",
"1370.88 381.432 CURVE SMOOTH",
"1378.73 419.541 OFFCURVE",
"1410.63 437.932 OFFCURVE",
"1446.51 437.932 CURVE SMOOTH",
"1465.87 437.932 OFFCURVE",
"1487.86 430.794 OFFCURVE",
"1499.32 413.48 CURVE SMOOTH",
"1512.53 394.115 OFFCURVE",
"1510.78 367.663 OFFCURVE",
"1510.78 345.251 CURVE SMOOTH",
"1510.78 333.035 LINE",
"1456.2 326.912 OFFCURVE",
"1384.89 322.838 OFFCURVE",
"1333.85 300.428 CURVE SMOOTH",
"1274.87 274.97 OFFCURVE",
"1233.51 223.029 OFFCURVE",
"1233.51 146.656 CURVE SMOOTH",
"1233.51 48.895 OFFCURVE",
"1295.13 0 OFFCURVE",
"1374.33 0 CURVE SMOOTH",
"1441.23 0 OFFCURVE",
"1477.81 15.791 OFFCURVE",
"1529.45 68.406 CURVE",
"1546.55 43.673 OFFCURVE",
"1552.14 31.675 OFFCURVE",
"1583.39 5.699 CURVE",
"1590.42 1.928 OFFCURVE",
"1599.39 2.301 OFFCURVE",
"1605.84 7.678 CURVE SMOOTH",
"1624.63 24.402 OFFCURVE",
"1658.78 54.056 OFFCURVE",
"1677.99 70.167 CURVE SMOOTH",
"1685.66 76.436 OFFCURVE",
"1684.31 86.601 OFFCURVE",
"1678.3 95.18 CURVE SMOOTH",
"1661.11 118.928 OFFCURVE",
"1642.78 138.262 OFFCURVE",
"1642.78 182.371 CURVE SMOOTH",
"1642.78 328.931 LINE SMOOTH",
"1642.78 391.069 OFFCURVE",
"1647.2 448.108 OFFCURVE",
"1601.42 490.878 CURVE SMOOTH",
"1565.32 525.528 OFFCURVE",
"1505.5 537.723 OFFCURVE",
"1459.7 537.723 CURVE SMOOTH"
);
},
{
closed = 1;
nodes = (
"963.536 533.061 OFFCURVE",
"911.729 504.598 OFFCURVE",
"888.871 443.631 CURVE",
"862.533 504.598 OFFCURVE",
"825.636 533.061 OFFCURVE",
"766.794 533.061 CURVE SMOOTH",
"708.833 533.061 OFFCURVE",
"665.802 504.598 OFFCURVE",
"642.976 443.631 CURVE",
"641.193 443.631 LINE",
"641.193 506.67 LINE",
"640.625 515.498 OFFCURVE",
"633.278 522.43 OFFCURVE",
"624.098 522.896 CURVE",
"536.482 522.865 LINE SMOOTH",
"526.431 522.865 OFFCURVE",
"518.33 515.156 OFFCURVE",
"518.33 505.49 CURVE SMOOTH",
"518.246 22.598 LINE",
"518.971 13.988 OFFCURVE",
"526.12 7.273 OFFCURVE",
"535.072 6.684 CURVE",
"629.174 6.684 LINE SMOOTH",
"639.194 6.684 OFFCURVE",
"647.327 14.423 OFFCURVE",
"647.327 24.058 CURVE SMOOTH",
"647.347 280.036 LINE SMOOTH",
"647.347 335.925 OFFCURVE",
"644.716 413.138 OFFCURVE",
"712.356 413.138 CURVE SMOOTH",
"779.084 413.138 OFFCURVE",
"770.306 333.883 OFFCURVE",
"770.306 280.036 CURVE SMOOTH",
"770.399 24.029 LINE SMOOTH",
"770.399 14.765 OFFCURVE",
"777.839 7.293 OFFCURVE",
"787.29 6.684 CURVE",
"881.276 6.684 LINE SMOOTH",
"891.295 6.684 OFFCURVE",
"899.419 14.423 OFFCURVE",
"899.419 24.058 CURVE SMOOTH",
"899.419 280.036 LINE SMOOTH",
"899.419 307.484 OFFCURVE",
"898.548 348.11 OFFCURVE",
"908.196 372.512 CURVE SMOOTH",
"917.863 396.901 OFFCURVE",
"941.581 412.144 OFFCURVE",
"964.427 412.144 CURVE SMOOTH",
"991.634 412.144 OFFCURVE",
"1012.71 402.995 OFFCURVE",
"1019.74 370.46 CURVE SMOOTH",
"1024.14 351.158 OFFCURVE",
"1022.39 300.334 OFFCURVE",
"1022.39 280.036 CURVE SMOOTH",
"1022.41 24.029 LINE SMOOTH",
"1022.41 14.765 OFFCURVE",
"1029.85 7.293 OFFCURVE",
"1039.3 6.684 CURVE",
"1133.25 6.684 LINE SMOOTH",
"1143.31 6.684 OFFCURVE",
"1151.41 14.423 OFFCURVE",
"1151.41 24.058 CURVE SMOOTH",
"1151.51 328.807 LINE SMOOTH",
"1151.51 380.634 OFFCURVE",
"1157.62 439.56 OFFCURVE",
"1127.77 480.218 CURVE SMOOTH",
"1101.42 516.803 OFFCURVE",
"1058.39 533.061 OFFCURVE",
"1018.86 533.061 CURVE SMOOTH"
);
},
{
closed = 1;
nodes = (
"2232 533.061 OFFCURVE",
"2156.47 416.195 OFFCURVE",
"2156.47 265.8 CURVE SMOOTH",
"2156.47 116.442 OFFCURVE",
"2231.13 -4 OFFCURVE",
"2368.15 -4 CURVE SMOOTH",
"2499.89 -4 OFFCURVE",
"2583.31 113.394 OFFCURVE",
"2583.31 260.712 CURVE SMOOTH",
"2583.31 413.138 OFFCURVE",
"2507.79 533.061 OFFCURVE",
"2368.15 533.061 CURVE SMOOTH"
);
},
{
closed = 1;
nodes = (
"2840.7 533.061 OFFCURVE",
"2803.84 501.573 OFFCURVE",
"2777.47 435.507 CURVE",
"2775.71 435.507 LINE",
"2775.71 509.375 LINE",
"2773.99 516.867 OFFCURVE",
"2767.21 522.461 OFFCURVE",
"2758.99 522.896 CURVE",
"2671.72 522.865 LINE SMOOTH",
"2662.24 522.865 OFFCURVE",
"2654.44 515.955 OFFCURVE",
"2653.64 507.105 CURVE",
"2653.8 24.029 LINE SMOOTH",
"2653.8 14.765 OFFCURVE",
"2661.26 7.293 OFFCURVE",
"2670.67 6.684 CURVE",
"2764.42 6.684 LINE SMOOTH",
"2774.45 6.684 OFFCURVE",
"2782.57 14.423 OFFCURVE",
"2782.74 24.058 CURVE SMOOTH",
"2782.74 284.078 LINE SMOOTH",
"2782.74 316.623 OFFCURVE",
"2784.5 346.07 OFFCURVE",
"2797.68 375.558 CURVE SMOOTH",
"2808.23 398.912 OFFCURVE",
"2829.3 414.165 OFFCURVE",
"2852.14 414.165 CURVE SMOOTH",
"2917.15 414.165 OFFCURVE",
"2910.99 336.919 OFFCURVE",
"2910.99 284.078 CURVE SMOOTH",
"2910.99 21.884 LINE",
"2912 13.646 OFFCURVE",
"2919.02 7.244 OFFCURVE",
"2927.74 6.684 CURVE",
"3022.05 6.684 LINE SMOOTH",
"3031.35 6.684 OFFCURVE",
"3039.04 13.334 OFFCURVE",
"3040.07 21.884 CURVE",
"3040.07 325.761 LINE SMOOTH",
"3040.07 372.512 OFFCURVE",
"3040.07 437.539 OFFCURVE",
"3015.5 476.145 CURVE SMOOTH",
"2989.15 517.829 OFFCURVE",
"2947.86 533.061 OFFCURVE",
"2905.71 533.061 CURVE SMOOTH"
);
},
{
closed = 1;
nodes = (
"1774.81 524.14 LINE SMOOTH",
"1765.25 524.169 OFFCURVE",
"1757.36 517.176 OFFCURVE",
"1757.3 506.67 CURVE SMOOTH",
"1757.3 437.664 LINE SMOOTH",
"1757.36 427.322 OFFCURVE",
"1765.3 420.287 OFFCURVE",
"1775.18 420.287 CURVE SMOOTH",
"1936.78 420.278 LINE",
"1751.18 153.991 LINE SMOOTH",
"1739.88 136.925 OFFCURVE",
"1739.66 117.777 OFFCURVE",
"1739.66 106.578 CURVE SMOOTH",
"1739.66 36.586 LINE SMOOTH",
"1739.66 26.421 OFFCURVE",
"1750.91 14.858 OFFCURVE",
"1761.67 20.579 CURVE SMOOTH",
"1866.94 76.498 OFFCURVE",
"1993.27 71.058 OFFCURVE",
"2088.45 21.2 CURVE SMOOTH",
"2100.11 15.077 OFFCURVE",
"2111.22 26.827 OFFCURVE",
"2111.22 36.959 CURVE SMOOTH",
"2111.22 110.596 LINE",
"2110.27 120.544 OFFCURVE",
"2106.99 130.677 OFFCURVE",
"2094.81 137.517 CURVE SMOOTH",
"2040.78 167.885 OFFCURVE",
"1977.87 176.805 OFFCURVE",
"1918.42 175.407 CURVE",
"2078.62 404.134 LINE SMOOTH",
"2093.44 424.702 OFFCURVE",
"2101.81 437.643 OFFCURVE",
"2101.89 447.58 CURVE SMOOTH",
"2101.89 506.763 LINE SMOOTH",
"2101.89 516.969 OFFCURVE",
"2093.96 524.169 OFFCURVE",
"2084.07 524.169 CURVE SMOOTH"
);
},
{
closed = 1;
nodes = (
"2398.86 434.472 OFFCURVE",
"2419.95 421.283 OFFCURVE",
"2430.49 387.742 CURVE SMOOTH",
"2442.8 349.115 OFFCURVE",
"2444.55 300.334 OFFCURVE",
"2444.55 259.698 CURVE SMOOTH",
"2444.55 197.726 OFFCURVE",
"2441.06 96.113 OFFCURVE",
"2368.15 96.113 CURVE SMOOTH",
"2294.37 96.113 OFFCURVE",
"2295.24 222.106 OFFCURVE",
"2295.24 281.042 CURVE SMOOTH",
"2295.24 339.997 OFFCURVE",
"2299.63 434.472 OFFCURVE",
"2369.01 434.472 CURVE SMOOTH"
);
},
{
closed = 1;
nodes = (
"277.323 237.296 LINE SMOOTH",
"277.323 200.617 OFFCURVE",
"278.214 170.091 OFFCURVE",
"259.73 137.485 CURVE SMOOTH",
"244.79 111.01 OFFCURVE",
"220.999 94.714 OFFCURVE",
"194.599 94.714 CURVE SMOOTH",
"158.52 94.714 OFFCURVE",
"137.383 122.223 OFFCURVE",
"137.383 162.963 CURVE SMOOTH",
"137.383 243.098 OFFCURVE",
"209.292 257.655 OFFCURVE",
"277.323 257.655 CURVE"
);
},
{
closed = 1;
nodes = (
"1510.78 237.296 LINE SMOOTH",
"1510.78 200.617 OFFCURVE",
"1511.65 170.091 OFFCURVE",
"1493.14 137.485 CURVE SMOOTH",
"1478.2 111.01 OFFCURVE",
"1454.41 94.714 OFFCURVE",
"1428.03 94.714 CURVE SMOOTH",
"1391.94 94.714 OFFCURVE",
"1370.82 122.223 OFFCURVE",
"1370.82 162.963 CURVE SMOOTH",
"1370.82 243.098 OFFCURVE",
"1442.71 257.655 OFFCURVE",
"1510.78 257.655 CURVE"
);
},
{
closed = 1;
nodes = (
"2015.69 -13 OFFCURVE",
"1850.03 7.004 OFFCURVE",
"1748.9 -64 CURVE SMOOTH",
"1733.36 -75 OFFCURVE",
"1736.04 -90 OFFCURVE",
"1753.3 -88 CURVE SMOOTH",
"1810.24 -81 OFFCURVE",
"1936.96 -66 OFFCURVE",
"1959.57 -95 CURVE SMOOTH",
"1982.18 -124 OFFCURVE",
"1934.46 -243 OFFCURVE",
"1913.13 -296 CURVE SMOOTH",
"1906.67 -312 OFFCURVE",
"1920.53 -319 OFFCURVE",
"1935.1 -307 CURVE SMOOTH",
"2029.84 -227 OFFCURVE",
"2054.34 -61 OFFCURVE",
"2034.94 -37 CURVE SMOOTH"
);
},
{
closed = 1;
nodes = (
"433.138 -39 OFFCURVE",
"418.383 -59 OFFCURVE",
"434.919 -74 CURVE SMOOTH",
"645.526 -264 OFFCURVE",
"923.81 -378 OFFCURVE",
"1232.85 -378 CURVE SMOOTH",
"1453.36 -378 OFFCURVE",
"1709.43 -309 OFFCURVE",
"1886.07 -179 CURVE SMOOTH",
"1915.29 -157 OFFCURVE",
"1890.25 -125 OFFCURVE",
"1860.39 -137 CURVE SMOOTH",
"1662.37 -221 OFFCURVE",
"1447.18 -262 OFFCURVE",
"1251.41 -262 CURVE SMOOTH",
"961.213 -262 OFFCURVE",
"680.224 -182 OFFCURVE",
"453.01 -50 CURVE SMOOTH"
);
}
);
width = 3040;
}
);
unicode = E078;
},
{
glyphname = uniE079;
lastChange = "2014-01-17 19:01:11 -0800";
layers = (
{
layerId = "06D35582-4FA2-40C1-8C5B-DEFCD1A2473F";
name = Regular;
paths = (
{
closed = 1;
nodes = (
"1283.22 1349.12 OFFCURVE",
"1231.03 1366.03 OFFCURVE",
"1185.15 1366.03 CURVE SMOOTH",
"1100.06 1366.03 OFFCURVE",
"1024.32 1322.48 OFFCURVE",
"1005.79 1232.24 CURVE SMOOTH",
"1001.91 1212.14 OFFCURVE",
"987.263 1192.27 OFFCURVE",
"967.017 1191.24 CURVE",
"750.771 1214.65 LINE",
"732.487 1218.77 OFFCURVE",
"712.165 1233.39 OFFCURVE",
"717.447 1261.24 CURVE SMOOTH",
"767.135 1523.21 OFFCURVE",
"1004.07 1602.33 OFFCURVE",
"1216.43 1602.33 CURVE SMOOTH",
"1325 1602.33 OFFCURVE",
"1466.93 1573.45 OFFCURVE",
"1552.54 1491.41 CURVE SMOOTH",
"1661.06 1390.13 OFFCURVE",
"1650.64 1255.06 OFFCURVE",
"1650.64 1107.92 CURVE SMOOTH",
"1650.64 760.854 LINE SMOOTH",
"1650.64 656.406 OFFCURVE",
"1694.08 610.619 OFFCURVE",
"1734.83 554.381 CURVE SMOOTH",
"1749.08 534.064 OFFCURVE",
"1752.32 509.994 OFFCURVE",
"1734.14 495.146 CURVE SMOOTH",
"1688.53 456.995 OFFCURVE",
"1607.54 386.783 OFFCURVE",
"1563.01 347.182 CURVE SMOOTH",
"1547.73 334.44 OFFCURVE",
"1526.4 333.562 OFFCURVE",
"1509.79 342.496 CURVE",
"1435.62 403.998 OFFCURVE",
"1422.36 432.416 OFFCURVE",
"1381.86 490.979 CURVE",
"1259.33 366.393 OFFCURVE",
"1172.62 329 OFFCURVE",
"1013.97 329 CURVE SMOOTH",
"826.113 329 OFFCURVE",
"679.999 444.782 OFFCURVE",
"679.999 676.276 CURVE SMOOTH",
"679.999 857.137 OFFCURVE",
"778.073 980.127 OFFCURVE",
"917.967 1040.41 CURVE SMOOTH",
"1039.01 1093.49 OFFCURVE",
"1208.12 1103.13 OFFCURVE",
"1337.48 1117.63 CURVE",
"1337.48 1146.56 LINE SMOOTH",
"1337.48 1199.63 OFFCURVE",
"1341.7 1262.27 OFFCURVE",
"1310.4 1308.13 CURVE SMOOTH"
);
},
{
closed = 1;
nodes = (
"1337.48 939.128 LINE",
"1176.13 939.128 OFFCURVE",
"1005.6 904.654 OFFCURVE",
"1005.6 714.896 CURVE SMOOTH",
"1005.6 618.424 OFFCURVE",
"1055.73 553.281 OFFCURVE",
"1141.28 553.281 CURVE SMOOTH",
"1203.9 553.281 OFFCURVE",
"1260.32 591.876 OFFCURVE",
"1295.75 654.566 CURVE SMOOTH",
"1339.6 731.776 OFFCURVE",
"1337.48 804.056 OFFCURVE",
"1337.48 890.915 CURVE SMOOTH"
);
}
);
width = 2400;
}
);
unicode = E079;
},
{
glyphname = uniE07A;
lastChange = "2014-01-17 19:01:11 -0800";
layers = (
{
layerId = "06D35582-4FA2-40C1-8C5B-DEFCD1A2473F";
name = Regular;
paths = (
{
closed = 1;
nodes = (
"2400 1969 LINE",
"0 1969 LINE",
"0 -431 LINE",
"2400 -431 LINE"
);
},
{
closed = 1;
nodes = (
"1325 1602.33 OFFCURVE",
"1466.93 1573.45 OFFCURVE",
"1552.54 1491.41 CURVE SMOOTH",
"1661.06 1390.13 OFFCURVE",
"1650.64 1255.06 OFFCURVE",
"1650.64 1107.92 CURVE SMOOTH",
"1650.64 760.854 LINE SMOOTH",
"1650.64 656.406 OFFCURVE",
"1694.08 610.619 OFFCURVE",
"1734.83 554.381 CURVE SMOOTH",
"1749.08 534.064 OFFCURVE",
"1752.32 509.994 OFFCURVE",
"1734.14 495.146 CURVE SMOOTH",
"1688.53 456.995 OFFCURVE",
"1607.54 386.783 OFFCURVE",
"1563.01 347.182 CURVE SMOOTH",
"1547.73 334.44 OFFCURVE",
"1526.4 333.562 OFFCURVE",
"1509.79 342.496 CURVE",
"1435.62 403.998 OFFCURVE",
"1422.36 432.416 OFFCURVE",
"1381.86 490.979 CURVE",
"1259.33 366.393 OFFCURVE",
"1172.62 329 OFFCURVE",
"1013.97 329 CURVE SMOOTH",
"826.113 329 OFFCURVE",
"679.999 444.782 OFFCURVE",
"679.999 676.276 CURVE SMOOTH",
"679.999 857.137 OFFCURVE",
"778.073 980.127 OFFCURVE",
"917.967 1040.41 CURVE SMOOTH",
"1039.01 1093.49 OFFCURVE",
"1208.12 1103.13 OFFCURVE",
"1337.48 1117.63 CURVE",
"1337.48 1146.56 LINE SMOOTH",
"1337.48 1199.63 OFFCURVE",
"1341.7 1262.27 OFFCURVE",
"1310.4 1308.13 CURVE SMOOTH",
"1283.22 1349.12 OFFCURVE",
"1231.03 1366.03 OFFCURVE",
"1185.15 1366.03 CURVE SMOOTH",
"1100.06 1366.03 OFFCURVE",
"1024.32 1322.48 OFFCURVE",
"1005.79 1232.24 CURVE SMOOTH",
"1001.91 1212.14 OFFCURVE",
"987.263 1192.27 OFFCURVE",
"967.017 1191.24 CURVE",
"750.771 1214.65 LINE",
"732.487 1218.77 OFFCURVE",
"712.165 1233.39 OFFCURVE",
"717.447 1261.24 CURVE SMOOTH",
"767.135 1523.21 OFFCURVE",
"1004.07 1602.33 OFFCURVE",
"1216.43 1602.33 CURVE SMOOTH"
);
},
{
closed = 1;
nodes = (
"1337.48 939.128 LINE",
"1176.13 939.128 OFFCURVE",
"1005.6 904.654 OFFCURVE",
"1005.6 714.896 CURVE SMOOTH",
"1005.6 618.424 OFFCURVE",
"1055.73 553.281 OFFCURVE",
"1141.28 553.281 CURVE SMOOTH",
"1203.9 553.281 OFFCURVE",
"1260.32 591.876 OFFCURVE",
"1295.75 654.566 CURVE SMOOTH",
"1339.6 731.776 OFFCURVE",
"1337.48 804.056 OFFCURVE",
"1337.48 890.915 CURVE SMOOTH"
);
},
{
closed = 1;
nodes = (
"2027.03 297.299 OFFCURVE",
"2001.66 111.442 OFFCURVE",
"1903.51 22.738 CURVE SMOOTH",
"1888.41 9.104 OFFCURVE",
"1874.05 16.377 OFFCURVE",
"1880.75 34.394 CURVE SMOOTH",
"1902.84 93.981 OFFCURVE",
"1952.29 227.376 OFFCURVE",
"1928.86 259.755 CURVE SMOOTH",
"1905.44 292.127 OFFCURVE",
"1774.16 275.097 OFFCURVE",
"1715.17 267.459 CURVE SMOOTH",
"1697.28 265.15 OFFCURVE",
"1694.52 282.016 OFFCURVE",
"1710.62 294.229 CURVE SMOOTH",
"1815.38 373.685 OFFCURVE",
"1986.99 350.746 OFFCURVE",
"2006.94 324.138 CURVE SMOOTH"
);
},
{
closed = 1;
nodes = (
"637.507 163.307 OFFCURVE",
"938.784 62.701 OFFCURVE",
"1213.58 62.701 CURVE SMOOTH",
"1390.67 62.701 OFFCURVE",
"1635.8 115.101 OFFCURVE",
"1815.12 210.29 CURVE SMOOTH",
"1844.62 225.941 OFFCURVE",
"1869.35 185.967 OFFCURVE",
"1840.48 159.28 CURVE SMOOTH",
"1666 -2 OFFCURVE",
"1413.06 -84 OFFCURVE",
"1195.24 -84 CURVE SMOOTH",
"889.976 -84 OFFCURVE",
"615.087 53.652 OFFCURVE",
"407.053 288.737 CURVE SMOOTH",
"390.72 307.211 OFFCURVE",
"405.295 332.418 OFFCURVE",
"424.924 318.121 CURVE SMOOTH"
);
}
);
width = 2400;
}
);
unicode = E07A;
},
{
glyphname = uniE07B;
lastChange = "2014-01-17 19:01:11 -0800";
layers = (
{
layerId = "06D35582-4FA2-40C1-8C5B-DEFCD1A2473F";
name = Regular;
paths = (
{
closed = 1;
nodes = (
"256 1969 LINE SMOOTH",
"114.615 1969 OFFCURVE",
"0 1854.39 OFFCURVE",
"0 1713 CURVE SMOOTH",
"0 -175 LINE SMOOTH",
"0 -316 OFFCURVE",
"114.615 -431 OFFCURVE",
"256 -431 CURVE SMOOTH",
"2144 -431 LINE SMOOTH",
"2285.38 -431 OFFCURVE",
"2400 -316 OFFCURVE",
"2400 -175 CURVE SMOOTH",
"2400 1713 LINE SMOOTH",
"2400 1854.39 OFFCURVE",
"2285.38 1969 OFFCURVE",
"2144 1969 CURVE SMOOTH"
);
},
{
closed = 1;
nodes = (
"1325 1602.33 OFFCURVE",
"1466.93 1573.45 OFFCURVE",
"1552.54 1491.41 CURVE SMOOTH",
"1661.06 1390.13 OFFCURVE",
"1650.64 1255.06 OFFCURVE",
"1650.64 1107.92 CURVE SMOOTH",
"1650.64 760.854 LINE SMOOTH",
"1650.64 656.406 OFFCURVE",
"1694.08 610.619 OFFCURVE",
"1734.83 554.381 CURVE SMOOTH",
"1749.08 534.064 OFFCURVE",
"1752.32 509.994 OFFCURVE",
"1734.14 495.146 CURVE SMOOTH",
"1688.53 456.995 OFFCURVE",
"1607.54 386.783 OFFCURVE",
"1563.01 347.182 CURVE SMOOTH",
"1547.73 334.44 OFFCURVE",
"1526.4 333.562 OFFCURVE",
"1509.79 342.496 CURVE",
"1435.62 403.998 OFFCURVE",
"1422.36 432.416 OFFCURVE",
"1381.86 490.979 CURVE",
"1259.33 366.393 OFFCURVE",
"1172.62 329 OFFCURVE",
"1013.97 329 CURVE SMOOTH",
"826.113 329 OFFCURVE",
"679.999 444.782 OFFCURVE",
"679.999 676.276 CURVE SMOOTH",
"679.999 857.137 OFFCURVE",
"778.073 980.127 OFFCURVE",
"917.967 1040.41 CURVE SMOOTH",
"1039.01 1093.49 OFFCURVE",
"1208.12 1103.13 OFFCURVE",
"1337.48 1117.63 CURVE",
"1337.48 1146.56 LINE SMOOTH",
"1337.48 1199.63 OFFCURVE",
"1341.7 1262.27 OFFCURVE",
"1310.4 1308.13 CURVE SMOOTH",
"1283.22 1349.12 OFFCURVE",
"1231.03 1366.03 OFFCURVE",
"1185.15 1366.03 CURVE SMOOTH",
"1100.06 1366.03 OFFCURVE",
"1024.32 1322.48 OFFCURVE",
"1005.79 1232.24 CURVE SMOOTH",
"1001.91 1212.14 OFFCURVE",
"987.263 1192.27 OFFCURVE",
"967.017 1191.24 CURVE",
"750.771 1214.65 LINE",
"732.487 1218.77 OFFCURVE",
"712.165 1233.39 OFFCURVE",
"717.447 1261.24 CURVE SMOOTH",
"767.135 1523.21 OFFCURVE",
"1004.07 1602.33 OFFCURVE",
"1216.43 1602.33 CURVE SMOOTH"
);
},
{
closed = 1;
nodes = (
"1337.48 939.128 LINE",
"1176.13 939.128 OFFCURVE",
"1005.6 904.654 OFFCURVE",
"1005.6 714.896 CURVE SMOOTH",
"1005.6 618.424 OFFCURVE",
"1055.73 553.281 OFFCURVE",
"1141.28 553.281 CURVE SMOOTH",
"1203.9 553.281 OFFCURVE",
"1260.32 591.876 OFFCURVE",
"1295.75 654.566 CURVE SMOOTH",
"1339.6 731.776 OFFCURVE",
"1337.48 804.056 OFFCURVE",
"1337.48 890.915 CURVE SMOOTH"
);
},
{
closed = 1;
nodes = (
"2027.03 297.299 OFFCURVE",
"2001.66 111.442 OFFCURVE",
"1903.51 22.738 CURVE SMOOTH",
"1888.41 9.104 OFFCURVE",
"1874.05 16.377 OFFCURVE",
"1880.75 34.394 CURVE SMOOTH",
"1902.84 93.981 OFFCURVE",
"1952.29 227.376 OFFCURVE",
"1928.86 259.755 CURVE SMOOTH",
"1905.44 292.127 OFFCURVE",
"1774.16 275.097 OFFCURVE",
"1715.17 267.459 CURVE SMOOTH",
"1697.28 265.15 OFFCURVE",
"1694.52 282.016 OFFCURVE",
"1710.62 294.229 CURVE SMOOTH",
"1815.38 373.685 OFFCURVE",
"1986.99 350.746 OFFCURVE",
"2006.94 324.138 CURVE SMOOTH"
);
},
{
closed = 1;
nodes = (
"637.507 163.307 OFFCURVE",
"938.784 62.701 OFFCURVE",
"1213.58 62.701 CURVE SMOOTH",
"1390.67 62.701 OFFCURVE",
"1635.8 115.101 OFFCURVE",
"1815.12 210.29 CURVE SMOOTH",
"1844.62 225.941 OFFCURVE",
"1869.35 185.967 OFFCURVE",
"1840.48 159.28 CURVE SMOOTH",
"1666 -2 OFFCURVE",
"1413.06 -84 OFFCURVE",
"1195.24 -84 CURVE SMOOTH",
"889.976 -84 OFFCURVE",
"615.087 53.652 OFFCURVE",
"407.053 288.737 CURVE SMOOTH",
"390.72 307.211 OFFCURVE",
"405.295 332.418 OFFCURVE",
"424.924 318.121 CURVE SMOOTH"
);
}
);
width = 2400;
}
);
unicode = E07B;
},
{
glyphname = uniE07C;
lastChange = "2014-01-17 19:01:11 -0800";
layers = (
{
layerId = "06D35582-4FA2-40C1-8C5B-DEFCD1A2473F";
name = Regular;
paths = (
{
closed = 1;
nodes = (
"352 1969 LINE SMOOTH",
"157.596 1969 OFFCURVE",
"0 1811.4 OFFCURVE",
"0 1617 CURVE SMOOTH",
"0 -79 LINE SMOOTH",
"0 -273 OFFCURVE",
"157.596 -431 OFFCURVE",
"352 -431 CURVE SMOOTH",
"2048 -431 LINE SMOOTH",
"2242.4 -431 OFFCURVE",
"2400 -273 OFFCURVE",
"2400 -79 CURVE SMOOTH",
"2400 1617 LINE SMOOTH",
"2400 1811.4 OFFCURVE",
"2242.4 1969 OFFCURVE",
"2048 1969 CURVE SMOOTH"
);
},
{
closed = 1;
nodes = (
"1325 1602.33 OFFCURVE",
"1466.93 1573.45 OFFCURVE",
"1552.54 1491.41 CURVE SMOOTH",
"1661.06 1390.13 OFFCURVE",
"1650.64 1255.06 OFFCURVE",
"1650.64 1107.92 CURVE SMOOTH",
"1650.64 760.854 LINE SMOOTH",
"1650.64 656.406 OFFCURVE",
"1694.08 610.619 OFFCURVE",
"1734.83 554.381 CURVE SMOOTH",
"1749.08 534.064 OFFCURVE",
"1752.32 509.994 OFFCURVE",
"1734.14 495.146 CURVE SMOOTH",
"1688.53 456.995 OFFCURVE",
"1607.54 386.783 OFFCURVE",
"1563.01 347.182 CURVE SMOOTH",
"1547.73 334.44 OFFCURVE",
"1526.4 333.562 OFFCURVE",
"1509.79 342.496 CURVE",
"1435.62 403.998 OFFCURVE",
"1422.36 432.416 OFFCURVE",
"1381.86 490.979 CURVE",
"1259.33 366.393 OFFCURVE",
"1172.62 329 OFFCURVE",
"1013.97 329 CURVE SMOOTH",
"826.113 329 OFFCURVE",
"679.999 444.782 OFFCURVE",
"679.999 676.276 CURVE SMOOTH",
"679.999 857.137 OFFCURVE",
"778.073 980.127 OFFCURVE",
"917.967 1040.41 CURVE SMOOTH",
"1039.01 1093.49 OFFCURVE",
"1208.12 1103.13 OFFCURVE",
"1337.48 1117.63 CURVE",
"1337.48 1146.56 LINE SMOOTH",
"1337.48 1199.63 OFFCURVE",
"1341.7 1262.27 OFFCURVE",
"1310.4 1308.13 CURVE SMOOTH",
"1283.22 1349.12 OFFCURVE",
"1231.03 1366.03 OFFCURVE",
"1185.15 1366.03 CURVE SMOOTH",
"1100.06 1366.03 OFFCURVE",
"1024.32 1322.48 OFFCURVE",
"1005.79 1232.24 CURVE SMOOTH",
"1001.91 1212.14 OFFCURVE",
"987.263 1192.27 OFFCURVE",
"967.017 1191.24 CURVE",
"750.771 1214.65 LINE",
"732.487 1218.77 OFFCURVE",
"712.165 1233.39 OFFCURVE",
"717.447 1261.24 CURVE SMOOTH",
"767.135 1523.21 OFFCURVE",
"1004.07 1602.33 OFFCURVE",
"1216.43 1602.33 CURVE SMOOTH"
);
},
{
closed = 1;
nodes = (
"1337.48 939.128 LINE",
"1176.13 939.128 OFFCURVE",
"1005.6 904.654 OFFCURVE",
"1005.6 714.896 CURVE SMOOTH",
"1005.6 618.424 OFFCURVE",
"1055.73 553.281 OFFCURVE",
"1141.28 553.281 CURVE SMOOTH",
"1203.9 553.281 OFFCURVE",
"1260.32 591.876 OFFCURVE",
"1295.75 654.566 CURVE SMOOTH",
"1339.6 731.776 OFFCURVE",
"1337.48 804.056 OFFCURVE",
"1337.48 890.915 CURVE SMOOTH"
);
},
{
closed = 1;
nodes = (
"2027.03 297.299 OFFCURVE",
"2001.66 111.442 OFFCURVE",
"1903.51 22.738 CURVE SMOOTH",
"1888.41 9.104 OFFCURVE",
"1874.05 16.377 OFFCURVE",
"1880.75 34.394 CURVE SMOOTH",
"1902.84 93.981 OFFCURVE",
"1952.29 227.376 OFFCURVE",
"1928.86 259.755 CURVE SMOOTH",
"1905.44 292.127 OFFCURVE",
"1774.16 275.097 OFFCURVE",
"1715.17 267.459 CURVE SMOOTH",
"1697.28 265.15 OFFCURVE",
"1694.52 282.016 OFFCURVE",
"1710.62 294.229 CURVE SMOOTH",
"1815.38 373.685 OFFCURVE",
"1986.99 350.746 OFFCURVE",
"2006.94 324.138 CURVE SMOOTH"
);
},
{
closed = 1;
nodes = (
"637.507 163.307 OFFCURVE",
"938.784 62.701 OFFCURVE",
"1213.58 62.701 CURVE SMOOTH",
"1390.67 62.701 OFFCURVE",
"1635.8 115.101 OFFCURVE",
"1815.12 210.29 CURVE SMOOTH",
"1844.62 225.941 OFFCURVE",
"1869.35 185.967 OFFCURVE",
"1840.48 159.28 CURVE SMOOTH",
"1666 -2 OFFCURVE",
"1413.06 -84 OFFCURVE",
"1195.24 -84 CURVE SMOOTH",
"889.976 -84 OFFCURVE",
"615.087 53.652 OFFCURVE",
"407.053 288.737 CURVE SMOOTH",
"390.72 307.211 OFFCURVE",
"405.295 332.418 OFFCURVE",
"424.924 318.121 CURVE SMOOTH"
);
}
);
width = 2400;
}
);
unicode = E07C;
},
{
glyphname = uniE07D;
lastChange = "2014-01-17 19:01:11 -0800";
layers = (
{
layerId = "06D35582-4FA2-40C1-8C5B-DEFCD1A2473F";
name = Regular;
paths = (
{
closed = 1;
nodes = (
"836.742 1969 LINE SMOOTH",
"595.804 1969 OFFCURVE",
"475.34 1969 OFFCURVE",
"345.66 1928 CURVE",
"204.07 1876.46 OFFCURVE",
"92.539 1764.93 OFFCURVE",
"41.004 1623.34 CURVE",
"0 1493.66 OFFCURVE",
"0 1373.2 OFFCURVE",
"0 1132.26 CURVE SMOOTH",
"0 405.743 LINE SMOOTH",
"0 164.805 OFFCURVE",
"0 44.344 OFFCURVE",
"41.004 -85 CURVE",
"92.539 -227 OFFCURVE",
"204.07 -338 OFFCURVE",
"345.66 -390 CURVE",
"475.34 -431 OFFCURVE",
"595.804 -431 OFFCURVE",
"836.742 -431 CURVE SMOOTH",
"1563.26 -431 LINE SMOOTH",
"1804.2 -431 OFFCURVE",
"1924.66 -431 OFFCURVE",
"2054.34 -390 CURVE",
"2195.93 -338 OFFCURVE",
"2307.46 -227 OFFCURVE",
"2359 -85 CURVE",
"2400 44.344 OFFCURVE",
"2400 164.805 OFFCURVE",
"2400 405.743 CURVE SMOOTH",
"2400 1132.26 LINE SMOOTH",
"2400 1373.2 OFFCURVE",
"2400 1493.66 OFFCURVE",
"2359 1623.34 CURVE",
"2307.46 1764.93 OFFCURVE",
"2195.93 1876.46 OFFCURVE",
"2054.34 1928 CURVE",
"1924.66 1969 OFFCURVE",
"1804.2 1969 OFFCURVE",
"1563.26 1969 CURVE SMOOTH"
);
},
{
closed = 1;
nodes = (
"1325 1602.33 OFFCURVE",
"1466.93 1573.45 OFFCURVE",
"1552.54 1491.41 CURVE SMOOTH",
"1661.06 1390.13 OFFCURVE",
"1650.64 1255.06 OFFCURVE",
"1650.64 1107.92 CURVE SMOOTH",
"1650.64 760.854 LINE SMOOTH",
"1650.64 656.406 OFFCURVE",
"1694.08 610.619 OFFCURVE",
"1734.83 554.381 CURVE SMOOTH",
"1749.08 534.064 OFFCURVE",
"1752.32 509.994 OFFCURVE",
"1734.14 495.146 CURVE SMOOTH",
"1688.53 456.995 OFFCURVE",
"1607.54 386.783 OFFCURVE",
"1563.01 347.182 CURVE SMOOTH",
"1547.73 334.44 OFFCURVE",
"1526.4 333.562 OFFCURVE",
"1509.79 342.496 CURVE",
"1435.62 403.998 OFFCURVE",
"1422.36 432.416 OFFCURVE",
"1381.86 490.979 CURVE",
"1259.33 366.393 OFFCURVE",
"1172.62 329 OFFCURVE",
"1013.97 329 CURVE SMOOTH",
"826.113 329 OFFCURVE",
"679.999 444.782 OFFCURVE",
"679.999 676.276 CURVE SMOOTH",
"679.999 857.137 OFFCURVE",
"778.073 980.127 OFFCURVE",
"917.967 1040.41 CURVE SMOOTH",
"1039.01 1093.49 OFFCURVE",
"1208.12 1103.13 OFFCURVE",
"1337.48 1117.63 CURVE",
"1337.48 1146.56 LINE SMOOTH",
"1337.48 1199.63 OFFCURVE",
"1341.7 1262.27 OFFCURVE",
"1310.4 1308.13 CURVE SMOOTH",
"1283.22 1349.12 OFFCURVE",
"1231.03 1366.03 OFFCURVE",
"1185.15 1366.03 CURVE SMOOTH",
"1100.06 1366.03 OFFCURVE",
"1024.32 1322.48 OFFCURVE",
"1005.79 1232.24 CURVE SMOOTH",
"1001.91 1212.14 OFFCURVE",
"987.263 1192.27 OFFCURVE",
"967.017 1191.24 CURVE",
"750.771 1214.65 LINE",
"732.487 1218.77 OFFCURVE",
"712.165 1233.39 OFFCURVE",
"717.447 1261.24 CURVE SMOOTH",
"767.135 1523.21 OFFCURVE",
"1004.07 1602.33 OFFCURVE",
"1216.43 1602.33 CURVE SMOOTH"
);
},
{
closed = 1;
nodes = (
"1337.48 939.128 LINE",
"1176.13 939.128 OFFCURVE",
"1005.6 904.654 OFFCURVE",
"1005.6 714.896 CURVE SMOOTH",
"1005.6 618.424 OFFCURVE",
"1055.73 553.281 OFFCURVE",
"1141.28 553.281 CURVE SMOOTH",
"1203.9 553.281 OFFCURVE",
"1260.32 591.876 OFFCURVE",
"1295.75 654.566 CURVE SMOOTH",
"1339.6 731.776 OFFCURVE",
"1337.48 804.056 OFFCURVE",
"1337.48 890.915 CURVE SMOOTH"
);
},
{
closed = 1;
nodes = (
"2027.03 297.299 OFFCURVE",
"2001.66 111.442 OFFCURVE",
"1903.51 22.738 CURVE SMOOTH",
"1888.41 9.104 OFFCURVE",
"1874.05 16.377 OFFCURVE",
"1880.75 34.394 CURVE SMOOTH",
"1902.84 93.981 OFFCURVE",
"1952.29 227.376 OFFCURVE",
"1928.86 259.755 CURVE SMOOTH",
"1905.44 292.127 OFFCURVE",
"1774.16 275.097 OFFCURVE",
"1715.17 267.459 CURVE SMOOTH",
"1697.28 265.15 OFFCURVE",
"1694.52 282.016 OFFCURVE",
"1710.62 294.229 CURVE SMOOTH",
"1815.38 373.685 OFFCURVE",
"1986.99 350.746 OFFCURVE",
"2006.94 324.138 CURVE SMOOTH"
);
},
{
closed = 1;
nodes = (
"637.507 163.307 OFFCURVE",
"938.784 62.701 OFFCURVE",
"1213.58 62.701 CURVE SMOOTH",
"1390.67 62.701 OFFCURVE",
"1635.8 115.101 OFFCURVE",
"1815.12 210.29 CURVE SMOOTH",
"1844.62 225.941 OFFCURVE",
"1869.35 185.967 OFFCURVE",
"1840.48 159.28 CURVE SMOOTH",
"1666 -2 OFFCURVE",
"1413.06 -84 OFFCURVE",
"1195.24 -84 CURVE SMOOTH",
"889.976 -84 OFFCURVE",
"615.087 53.652 OFFCURVE",
"407.053 288.737 CURVE SMOOTH",
"390.72 307.211 OFFCURVE",
"405.295 332.418 OFFCURVE",
"424.924 318.121 CURVE SMOOTH"
);
}
);
width = 2400;
}
);
unicode = E07D;
},
{
glyphname = uniE07E;
lastChange = "2014-01-17 19:01:11 -0800";
layers = (
{
layerId = "06D35582-4FA2-40C1-8C5B-DEFCD1A2473F";
name = Regular;
paths = (
{
closed = 1;
nodes = (
"537.252 1969 OFFCURVE",
"0 1431.75 OFFCURVE",
"0 769 CURVE SMOOTH",
"0 106.252 OFFCURVE",
"537.252 -431 OFFCURVE",
"1200 -431 CURVE SMOOTH",
"1862.75 -431 OFFCURVE",
"2400 106.252 OFFCURVE",
"2400 769 CURVE SMOOTH",
"2400 1431.75 OFFCURVE",
"1862.75 1969 OFFCURVE",
"1200 1969 CURVE SMOOTH"
);
},
{
closed = 1;
nodes = (
"1325 1602.33 OFFCURVE",
"1466.93 1573.45 OFFCURVE",
"1552.54 1491.41 CURVE SMOOTH",
"1661.06 1390.13 OFFCURVE",
"1650.64 1255.06 OFFCURVE",
"1650.64 1107.92 CURVE SMOOTH",
"1650.64 760.854 LINE SMOOTH",
"1650.64 656.406 OFFCURVE",
"1694.08 610.619 OFFCURVE",
"1734.83 554.381 CURVE SMOOTH",
"1749.08 534.064 OFFCURVE",
"1752.32 509.994 OFFCURVE",
"1734.14 495.146 CURVE SMOOTH",
"1688.53 456.995 OFFCURVE",
"1607.54 386.783 OFFCURVE",
"1563.01 347.182 CURVE SMOOTH",
"1547.73 334.44 OFFCURVE",
"1526.4 333.562 OFFCURVE",
"1509.79 342.496 CURVE",
"1435.62 403.998 OFFCURVE",
"1422.36 432.416 OFFCURVE",
"1381.86 490.979 CURVE",
"1259.33 366.393 OFFCURVE",
"1172.62 329 OFFCURVE",
"1013.97 329 CURVE SMOOTH",
"826.113 329 OFFCURVE",
"679.999 444.782 OFFCURVE",
"679.999 676.276 CURVE SMOOTH",
"679.999 857.137 OFFCURVE",
"778.073 980.127 OFFCURVE",
"917.967 1040.41 CURVE SMOOTH",
"1039.01 1093.49 OFFCURVE",
"1208.12 1103.13 OFFCURVE",
"1337.48 1117.63 CURVE",
"1337.48 1146.56 LINE SMOOTH",
"1337.48 1199.63 OFFCURVE",
"1341.7 1262.27 OFFCURVE",
"1310.4 1308.13 CURVE SMOOTH",
"1283.22 1349.12 OFFCURVE",
"1231.03 1366.03 OFFCURVE",
"1185.15 1366.03 CURVE SMOOTH",
"1100.06 1366.03 OFFCURVE",
"1024.32 1322.48 OFFCURVE",
"1005.79 1232.24 CURVE SMOOTH",
"1001.91 1212.14 OFFCURVE",
"987.263 1192.27 OFFCURVE",
"967.017 1191.24 CURVE",
"750.771 1214.65 LINE",
"732.487 1218.77 OFFCURVE",
"712.165 1233.39 OFFCURVE",
"717.447 1261.24 CURVE SMOOTH",
"767.135 1523.21 OFFCURVE",
"1004.07 1602.33 OFFCURVE",
"1216.43 1602.33 CURVE SMOOTH"
);
},
{
closed = 1;
nodes = (
"1337.48 939.128 LINE",
"1176.13 939.128 OFFCURVE",
"1005.6 904.654 OFFCURVE",
"1005.6 714.896 CURVE SMOOTH",
"1005.6 618.424 OFFCURVE",
"1055.73 553.281 OFFCURVE",
"1141.28 553.281 CURVE SMOOTH",
"1203.9 553.281 OFFCURVE",
"1260.32 591.876 OFFCURVE",
"1295.75 654.566 CURVE SMOOTH",
"1339.6 731.776 OFFCURVE",
"1337.48 804.056 OFFCURVE",
"1337.48 890.915 CURVE SMOOTH"
);
},
{
closed = 1;
nodes = (
"2027.03 297.299 OFFCURVE",
"2001.66 111.442 OFFCURVE",
"1903.51 22.738 CURVE SMOOTH",
"1888.41 9.104 OFFCURVE",
"1874.05 16.377 OFFCURVE",
"1880.75 34.394 CURVE SMOOTH",
"1902.84 93.981 OFFCURVE",
"1952.29 227.376 OFFCURVE",
"1928.86 259.755 CURVE SMOOTH",
"1905.44 292.127 OFFCURVE",
"1774.16 275.097 OFFCURVE",
"1715.17 267.459 CURVE SMOOTH",
"1697.28 265.15 OFFCURVE",
"1694.52 282.016 OFFCURVE",
"1710.62 294.229 CURVE SMOOTH",
"1815.38 373.685 OFFCURVE",
"1986.99 350.746 OFFCURVE",
"2006.94 324.138 CURVE SMOOTH"
);
},
{
closed = 1;
nodes = (
"637.507 163.307 OFFCURVE",
"938.784 62.701 OFFCURVE",
"1213.58 62.701 CURVE SMOOTH",
"1390.67 62.701 OFFCURVE",
"1635.8 115.101 OFFCURVE",
"1815.12 210.29 CURVE SMOOTH",
"1844.62 225.941 OFFCURVE",
"1869.35 185.967 OFFCURVE",
"1840.48 159.28 CURVE SMOOTH",
"1666 -2 OFFCURVE",
"1413.06 -84 OFFCURVE",
"1195.24 -84 CURVE SMOOTH",
"889.976 -84 OFFCURVE",
"615.087 53.652 OFFCURVE",
"407.053 288.737 CURVE SMOOTH",
"390.72 307.211 OFFCURVE",
"405.295 332.418 OFFCURVE",
"424.924 318.121 CURVE SMOOTH"
);
}
);
width = 2400;
}
);
unicode = E07E;
},
{
glyphname = uniE07F;
lastChange = "2014-01-17 19:01:11 -0800";
layers = (
{
layerId = "06D35582-4FA2-40C1-8C5B-DEFCD1A2473F";
name = Regular;
paths = (
{
closed = 1;
nodes = (
"1283.22 1349.12 OFFCURVE",
"1231.03 1366.03 OFFCURVE",
"1185.15 1366.03 CURVE SMOOTH",
"1100.06 1366.03 OFFCURVE",
"1024.32 1322.48 OFFCURVE",
"1005.79 1232.24 CURVE SMOOTH",
"1001.91 1212.14 OFFCURVE",
"987.263 1192.27 OFFCURVE",
"967.017 1191.24 CURVE",
"750.771 1214.65 LINE",
"732.487 1218.77 OFFCURVE",
"712.165 1233.39 OFFCURVE",
"717.447 1261.24 CURVE SMOOTH",
"767.135 1523.21 OFFCURVE",
"1004.07 1602.33 OFFCURVE",
"1216.43 1602.33 CURVE SMOOTH",
"1325 1602.33 OFFCURVE",
"1466.93 1573.45 OFFCURVE",
"1552.54 1491.41 CURVE SMOOTH",
"1661.06 1390.13 OFFCURVE",
"1650.64 1255.06 OFFCURVE",
"1650.64 1107.92 CURVE SMOOTH",
"1650.64 760.854 LINE SMOOTH",
"1650.64 656.406 OFFCURVE",
"1694.08 610.619 OFFCURVE",
"1734.83 554.381 CURVE SMOOTH",
"1749.08 534.064 OFFCURVE",
"1752.32 509.994 OFFCURVE",
"1734.14 495.146 CURVE SMOOTH",
"1688.53 456.995 OFFCURVE",
"1607.54 386.783 OFFCURVE",
"1563.01 347.182 CURVE SMOOTH",
"1547.73 334.44 OFFCURVE",
"1526.4 333.562 OFFCURVE",
"1509.79 342.496 CURVE",
"1435.62 403.998 OFFCURVE",
"1422.36 432.416 OFFCURVE",
"1381.86 490.979 CURVE",
"1259.33 366.393 OFFCURVE",
"1172.62 329 OFFCURVE",
"1013.97 329 CURVE SMOOTH",
"826.113 329 OFFCURVE",
"679.999 444.782 OFFCURVE",
"679.999 676.276 CURVE SMOOTH",
"679.999 857.137 OFFCURVE",
"778.073 980.127 OFFCURVE",
"917.967 1040.41 CURVE SMOOTH",
"1039.01 1093.49 OFFCURVE",
"1208.12 1103.13 OFFCURVE",
"1337.48 1117.63 CURVE",
"1337.48 1146.56 LINE SMOOTH",
"1337.48 1199.63 OFFCURVE",
"1341.7 1262.27 OFFCURVE",
"1310.4 1308.13 CURVE SMOOTH"
);
},
{
closed = 1;
nodes = (
"1337.48 939.128 LINE",
"1176.13 939.128 OFFCURVE",
"1005.6 904.654 OFFCURVE",
"1005.6 714.896 CURVE SMOOTH",
"1005.6 618.424 OFFCURVE",
"1055.73 553.281 OFFCURVE",
"1141.28 553.281 CURVE SMOOTH",
"1203.9 553.281 OFFCURVE",
"1260.32 591.876 OFFCURVE",
"1295.75 654.566 CURVE SMOOTH",
"1339.6 731.776 OFFCURVE",
"1337.48 804.056 OFFCURVE",
"1337.48 890.915 CURVE SMOOTH"
);
},
{
closed = 1;
nodes = (
"1888.41 9.104 OFFCURVE",
"1874.05 16.377 OFFCURVE",
"1880.75 34.394 CURVE SMOOTH",
"1902.84 93.981 OFFCURVE",
"1952.29 227.376 OFFCURVE",
"1928.86 259.755 CURVE SMOOTH",
"1905.44 292.127 OFFCURVE",
"1774.16 275.097 OFFCURVE",
"1715.17 267.459 CURVE SMOOTH",
"1697.28 265.15 OFFCURVE",
"1694.52 282.016 OFFCURVE",
"1710.62 294.229 CURVE SMOOTH",
"1815.38 373.685 OFFCURVE",
"1986.99 350.746 OFFCURVE",
"2006.94 324.138 CURVE SMOOTH",
"2027.03 297.299 OFFCURVE",
"2001.66 111.442 OFFCURVE",
"1903.51 22.738 CURVE SMOOTH"
);
},
{
closed = 1;
nodes = (
"1666 -2 OFFCURVE",
"1413.06 -84 OFFCURVE",
"1195.24 -84 CURVE SMOOTH",
"889.976 -84 OFFCURVE",
"615.087 53.652 OFFCURVE",
"407.053 288.737 CURVE SMOOTH",
"390.72 307.211 OFFCURVE",
"405.295 332.418 OFFCURVE",
"424.924 318.121 CURVE SMOOTH",
"637.507 163.307 OFFCURVE",
"938.784 62.701 OFFCURVE",
"1213.58 62.701 CURVE SMOOTH",
"1390.67 62.701 OFFCURVE",
"1635.8 115.101 OFFCURVE",
"1815.12 210.29 CURVE SMOOTH",
"1844.62 225.941 OFFCURVE",
"1869.35 185.967 OFFCURVE",
"1840.48 159.28 CURVE SMOOTH"
);
}
);
width = 2400;
}
);
unicode = E07F;
},
{
glyphname = uniE080;
lastChange = "2014-01-17 19:01:11 -0800";
layers = (
{
layerId = "06D35582-4FA2-40C1-8C5B-DEFCD1A2473F";
name = Regular;
paths = (
{
closed = 1;
nodes = (
"1888.41 9.104 OFFCURVE",
"1874.05 16.377 OFFCURVE",
"1880.75 34.394 CURVE SMOOTH",
"1902.84 93.981 OFFCURVE",
"1952.29 227.376 OFFCURVE",
"1928.86 259.755 CURVE SMOOTH",
"1905.44 292.127 OFFCURVE",
"1774.16 275.097 OFFCURVE",
"1715.17 267.459 CURVE SMOOTH",
"1697.28 265.15 OFFCURVE",
"1694.52 282.016 OFFCURVE",
"1710.62 294.229 CURVE SMOOTH",
"1815.38 373.685 OFFCURVE",
"1986.99 350.746 OFFCURVE",
"2006.94 324.138 CURVE SMOOTH",
"2027.03 297.299 OFFCURVE",
"2001.66 111.442 OFFCURVE",
"1903.51 22.738 CURVE SMOOTH"
);
},
{
closed = 1;
nodes = (
"1666 -2 OFFCURVE",
"1413.06 -84 OFFCURVE",
"1195.24 -84 CURVE SMOOTH",
"889.976 -84 OFFCURVE",
"615.087 53.652 OFFCURVE",
"407.053 288.737 CURVE SMOOTH",
"390.72 307.211 OFFCURVE",
"405.295 332.418 OFFCURVE",
"424.924 318.121 CURVE SMOOTH",
"637.507 163.307 OFFCURVE",
"938.784 62.701 OFFCURVE",
"1213.58 62.701 CURVE SMOOTH",
"1390.67 62.701 OFFCURVE",
"1635.8 115.101 OFFCURVE",
"1815.12 210.29 CURVE SMOOTH",
"1844.62 225.941 OFFCURVE",
"1869.35 185.967 OFFCURVE",
"1840.48 159.28 CURVE SMOOTH"
);
}
);
width = 2400;
}
);
unicode = E080;
},
{
glyphname = uniE081;
lastChange = "2014-02-02 01:27:58 -0800";
layers = (
{
layerId = "06D35582-4FA2-40C1-8C5B-DEFCD1A2473F";
name = Regular;
paths = (
{
closed = 1;
nodes = (
"2400 1969 LINE",
"0 1969 LINE",
"0 -431 LINE",
"2400 -431 LINE"
);
},
{
closed = 1;
nodes = (
"1539.6 1683.81 OFFCURVE",
"1544.56 1666.48 OFFCURVE",
"1536.94 1652.74 CURVE SMOOTH",
"1457.89 1510.12 LINE",
"1605.48 1430.85 OFFCURVE",
"1710 1286.74 OFFCURVE",
"1710 1114 CURVE",
"696 1113 LINE",
"696 1285.25 OFFCURVE",
"797.345 1430.01 OFFCURVE",
"942.497 1509.43 CURVE",
"863.062 1652.74 LINE SMOOTH",
"855.441 1666.48 OFFCURVE",
"860.403 1683.81 OFFCURVE",
"874.157 1691.43 CURVE SMOOTH",
"887.902 1699.05 OFFCURVE",
"905.227 1694.08 OFFCURVE",
"912.844 1680.33 CURVE SMOOTH",
"993.926 1534.06 LINE",
"1057.63 1560.45 OFFCURVE",
"1127.66 1575 OFFCURVE",
"1200 1575 CURVE SMOOTH",
"1272.02 1575 OFFCURVE",
"1342.17 1560.59 OFFCURVE",
"1406.28 1534.42 CURVE",
"1487.16 1680.33 LINE SMOOTH",
"1494.78 1694.08 OFFCURVE",
"1512.1 1699.05 OFFCURVE",
"1525.84 1691.43 CURVE SMOOTH"
);
},
{
closed = 1;
nodes = (
"948.865 1398 OFFCURVE",
"922 1371.14 OFFCURVE",
"922 1338 CURVE SMOOTH",
"922 1304.86 OFFCURVE",
"948.865 1278 OFFCURVE",
"982 1278 CURVE SMOOTH",
"1015.14 1278 OFFCURVE",
"1042 1304.86 OFFCURVE",
"1042 1338 CURVE SMOOTH",
"1042 1371.14 OFFCURVE",
"1015.14 1398 OFFCURVE",
"982 1398 CURVE SMOOTH"
);
},
{
closed = 1;
nodes = (
"1384.86 1398 OFFCURVE",
"1358 1371.14 OFFCURVE",
"1358 1338 CURVE SMOOTH",
"1358 1304.86 OFFCURVE",
"1384.86 1278 OFFCURVE",
"1418 1278 CURVE SMOOTH",
"1451.14 1278 OFFCURVE",
"1478 1304.86 OFFCURVE",
"1478 1338 CURVE SMOOTH",
"1478 1371.14 OFFCURVE",
"1451.14 1398 OFFCURVE",
"1418 1398 CURVE SMOOTH"
);
},
{
closed = 1;
nodes = (
"601.304 1081 OFFCURVE",
"651 1031.3 OFFCURVE",
"651 970 CURVE SMOOTH",
"651 496 LINE SMOOTH",
"651 434.696 OFFCURVE",
"601.304 385 OFFCURVE",
"540 385 CURVE SMOOTH",
"478.696 385 OFFCURVE",
"429 434.696 OFFCURVE",
"429 496 CURVE SMOOTH",
"429 970 LINE SMOOTH",
"429 1031.3 OFFCURVE",
"478.696 1081 OFFCURVE",
"540 1081 CURVE SMOOTH"
);
},
{
closed = 1;
nodes = (
"1927.3 1081 OFFCURVE",
"1977 1031.3 OFFCURVE",
"1977 970 CURVE SMOOTH",
"1977 496 LINE SMOOTH",
"1977 434.696 OFFCURVE",
"1927.3 385 OFFCURVE",
"1866 385 CURVE SMOOTH",
"1804.7 385 OFFCURVE",
"1755 434.696 OFFCURVE",
"1755 496 CURVE SMOOTH",
"1755 970 LINE SMOOTH",
"1755 1031.3 OFFCURVE",
"1804.7 1081 OFFCURVE",
"1866 1081 CURVE SMOOTH"
);
},
{
closed = 1;
nodes = (
"1707 1057 LINE",
"1707 337 LINE SMOOTH",
"1707 260.093 OFFCURVE",
"1651.91 205 OFFCURVE",
"1575 205 CURVE SMOOTH",
"1500 205 LINE",
"1500 -44 LINE SMOOTH",
"1500 -105 OFFCURVE",
"1450.3 -155 OFFCURVE",
"1389 -155 CURVE SMOOTH",
"1327.7 -155 OFFCURVE",
"1278 -105 OFFCURVE",
"1278 -44 CURVE SMOOTH",
"1278 205 LINE",
"1122 205 LINE",
"1122 -44 LINE SMOOTH",
"1122 -105 OFFCURVE",
"1072.3 -155 OFFCURVE",
"1011 -155 CURVE SMOOTH",
"949.696 -155 OFFCURVE",
"900 -105 OFFCURVE",
"900 -44 CURVE SMOOTH",
"900 205 LINE",
"831.002 205 LINE SMOOTH",
"754.104 205 OFFCURVE",
"699.002 260.093 OFFCURVE",
"699.002 337 CURVE",
"699 1057 LINE"
);
}
);
width = 2400;
}
);
unicode = E081;
},
{
glyphname = uniE082;
lastChange = "2014-02-02 01:27:58 -0800";
layers = (
{
layerId = "06D35582-4FA2-40C1-8C5B-DEFCD1A2473F";
name = Regular;
paths = (
{
closed = 1;
nodes = (
"256 1969 LINE SMOOTH",
"114.615 1969 OFFCURVE",
"0 1854.39 OFFCURVE",
"0 1713 CURVE SMOOTH",
"0 -175 LINE SMOOTH",
"0 -316 OFFCURVE",
"114.615 -431 OFFCURVE",
"256 -431 CURVE SMOOTH",
"2144 -431 LINE SMOOTH",
"2285.38 -431 OFFCURVE",
"2400 -316 OFFCURVE",
"2400 -175 CURVE SMOOTH",
"2400 1713 LINE SMOOTH",
"2400 1854.39 OFFCURVE",
"2285.38 1969 OFFCURVE",
"2144 1969 CURVE SMOOTH"
);
},
{
closed = 1;
nodes = (
"1539.6 1683.81 OFFCURVE",
"1544.56 1666.48 OFFCURVE",
"1536.94 1652.74 CURVE SMOOTH",
"1457.89 1510.12 LINE",
"1605.48 1430.85 OFFCURVE",
"1710 1286.74 OFFCURVE",
"1710 1114 CURVE",
"696 1113 LINE",
"696 1285.25 OFFCURVE",
"797.345 1430.01 OFFCURVE",
"942.497 1509.43 CURVE",
"863.062 1652.74 LINE SMOOTH",
"855.441 1666.48 OFFCURVE",
"860.403 1683.81 OFFCURVE",
"874.157 1691.43 CURVE SMOOTH",
"887.902 1699.05 OFFCURVE",
"905.227 1694.08 OFFCURVE",
"912.844 1680.33 CURVE SMOOTH",
"993.926 1534.06 LINE",
"1057.63 1560.45 OFFCURVE",
"1127.66 1575 OFFCURVE",
"1200 1575 CURVE SMOOTH",
"1272.02 1575 OFFCURVE",
"1342.17 1560.59 OFFCURVE",
"1406.28 1534.42 CURVE",
"1487.16 1680.33 LINE SMOOTH",
"1494.78 1694.08 OFFCURVE",
"1512.1 1699.05 OFFCURVE",
"1525.84 1691.43 CURVE SMOOTH"
);
},
{
closed = 1;
nodes = (
"948.865 1398 OFFCURVE",
"922 1371.14 OFFCURVE",
"922 1338 CURVE SMOOTH",
"922 1304.86 OFFCURVE",
"948.865 1278 OFFCURVE",
"982 1278 CURVE SMOOTH",
"1015.14 1278 OFFCURVE",
"1042 1304.86 OFFCURVE",
"1042 1338 CURVE SMOOTH",
"1042 1371.14 OFFCURVE",
"1015.14 1398 OFFCURVE",
"982 1398 CURVE SMOOTH"
);
},
{
closed = 1;
nodes = (
"1384.86 1398 OFFCURVE",
"1358 1371.14 OFFCURVE",
"1358 1338 CURVE SMOOTH",
"1358 1304.86 OFFCURVE",
"1384.86 1278 OFFCURVE",
"1418 1278 CURVE SMOOTH",
"1451.14 1278 OFFCURVE",
"1478 1304.86 OFFCURVE",
"1478 1338 CURVE SMOOTH",
"1478 1371.14 OFFCURVE",
"1451.14 1398 OFFCURVE",
"1418 1398 CURVE SMOOTH"
);
},
{
closed = 1;
nodes = (
"601.304 1081 OFFCURVE",
"651 1031.3 OFFCURVE",
"651 970 CURVE SMOOTH",
"651 496 LINE SMOOTH",
"651 434.696 OFFCURVE",
"601.304 385 OFFCURVE",
"540 385 CURVE SMOOTH",
"478.696 385 OFFCURVE",
"429 434.696 OFFCURVE",
"429 496 CURVE SMOOTH",
"429 970 LINE SMOOTH",
"429 1031.3 OFFCURVE",
"478.696 1081 OFFCURVE",
"540 1081 CURVE SMOOTH"
);
},
{
closed = 1;
nodes = (
"1927.3 1081 OFFCURVE",
"1977 1031.3 OFFCURVE",
"1977 970 CURVE SMOOTH",
"1977 496 LINE SMOOTH",
"1977 434.696 OFFCURVE",
"1927.3 385 OFFCURVE",
"1866 385 CURVE SMOOTH",
"1804.7 385 OFFCURVE",
"1755 434.696 OFFCURVE",
"1755 496 CURVE SMOOTH",
"1755 970 LINE SMOOTH",
"1755 1031.3 OFFCURVE",
"1804.7 1081 OFFCURVE",
"1866 1081 CURVE SMOOTH"
);
},
{
closed = 1;
nodes = (
"1707 1057 LINE",
"1707 337 LINE SMOOTH",
"1707 260.093 OFFCURVE",
"1651.91 205 OFFCURVE",
"1575 205 CURVE SMOOTH",
"1500 205 LINE",
"1500 -44 LINE SMOOTH",
"1500 -105 OFFCURVE",
"1450.3 -155 OFFCURVE",
"1389 -155 CURVE SMOOTH",
"1327.7 -155 OFFCURVE",
"1278 -105 OFFCURVE",
"1278 -44 CURVE SMOOTH",
"1278 205 LINE",
"1122 205 LINE",
"1122 -44 LINE SMOOTH",
"1122 -105 OFFCURVE",
"1072.3 -155 OFFCURVE",
"1011 -155 CURVE SMOOTH",
"949.696 -155 OFFCURVE",
"900 -105 OFFCURVE",
"900 -44 CURVE SMOOTH",
"900 205 LINE",
"831.002 205 LINE SMOOTH",
"754.104 205 OFFCURVE",
"699.002 260.093 OFFCURVE",
"699.002 337 CURVE",
"699 1057 LINE"
);
}
);
width = 2400;
}
);
unicode = E082;
},
{
glyphname = uniE083;
lastChange = "2014-02-02 01:27:58 -0800";
layers = (
{
layerId = "06D35582-4FA2-40C1-8C5B-DEFCD1A2473F";
name = Regular;
paths = (
{
closed = 1;
nodes = (
"352 1969 LINE SMOOTH",
"157.596 1969 OFFCURVE",
"0 1811.4 OFFCURVE",
"0 1617 CURVE SMOOTH",
"0 -79 LINE SMOOTH",
"0 -273 OFFCURVE",
"157.596 -431 OFFCURVE",
"352 -431 CURVE SMOOTH",
"2048 -431 LINE SMOOTH",
"2242.4 -431 OFFCURVE",
"2400 -273 OFFCURVE",
"2400 -79 CURVE SMOOTH",
"2400 1617 LINE SMOOTH",
"2400 1811.4 OFFCURVE",
"2242.4 1969 OFFCURVE",
"2048 1969 CURVE SMOOTH"
);
},
{
closed = 1;
nodes = (
"1539.6 1683.81 OFFCURVE",
"1544.56 1666.48 OFFCURVE",
"1536.94 1652.74 CURVE SMOOTH",
"1457.89 1510.12 LINE",
"1605.48 1430.85 OFFCURVE",
"1710 1286.74 OFFCURVE",
"1710 1114 CURVE",
"696 1113 LINE",
"696 1285.25 OFFCURVE",
"797.345 1430.01 OFFCURVE",
"942.497 1509.43 CURVE",
"863.062 1652.74 LINE SMOOTH",
"855.441 1666.48 OFFCURVE",
"860.403 1683.81 OFFCURVE",
"874.157 1691.43 CURVE SMOOTH",
"887.902 1699.05 OFFCURVE",
"905.227 1694.08 OFFCURVE",
"912.844 1680.33 CURVE SMOOTH",
"993.926 1534.06 LINE",
"1057.63 1560.45 OFFCURVE",
"1127.66 1575 OFFCURVE",
"1200 1575 CURVE SMOOTH",
"1272.02 1575 OFFCURVE",
"1342.17 1560.59 OFFCURVE",
"1406.28 1534.42 CURVE",
"1487.16 1680.33 LINE SMOOTH",
"1494.78 1694.08 OFFCURVE",
"1512.1 1699.05 OFFCURVE",
"1525.84 1691.43 CURVE SMOOTH"
);
},
{
closed = 1;
nodes = (
"948.865 1398 OFFCURVE",
"922 1371.14 OFFCURVE",
"922 1338 CURVE SMOOTH",
"922 1304.86 OFFCURVE",
"948.865 1278 OFFCURVE",
"982 1278 CURVE SMOOTH",
"1015.14 1278 OFFCURVE",
"1042 1304.86 OFFCURVE",
"1042 1338 CURVE SMOOTH",
"1042 1371.14 OFFCURVE",
"1015.14 1398 OFFCURVE",
"982 1398 CURVE SMOOTH"
);
},
{
closed = 1;
nodes = (
"1384.86 1398 OFFCURVE",
"1358 1371.14 OFFCURVE",
"1358 1338 CURVE SMOOTH",
"1358 1304.86 OFFCURVE",
"1384.86 1278 OFFCURVE",
"1418 1278 CURVE SMOOTH",
"1451.14 1278 OFFCURVE",
"1478 1304.86 OFFCURVE",
"1478 1338 CURVE SMOOTH",
"1478 1371.14 OFFCURVE",
"1451.14 1398 OFFCURVE",
"1418 1398 CURVE SMOOTH"
);
},
{
closed = 1;
nodes = (
"601.304 1081 OFFCURVE",
"651 1031.3 OFFCURVE",
"651 970 CURVE SMOOTH",
"651 496 LINE SMOOTH",
"651 434.696 OFFCURVE",
"601.304 385 OFFCURVE",
"540 385 CURVE SMOOTH",
"478.696 385 OFFCURVE",
"429 434.696 OFFCURVE",
"429 496 CURVE SMOOTH",
"429 970 LINE SMOOTH",
"429 1031.3 OFFCURVE",
"478.696 1081 OFFCURVE",
"540 1081 CURVE SMOOTH"
);
},
{
closed = 1;
nodes = (
"1927.3 1081 OFFCURVE",
"1977 1031.3 OFFCURVE",
"1977 970 CURVE SMOOTH",
"1977 496 LINE SMOOTH",
"1977 434.696 OFFCURVE",
"1927.3 385 OFFCURVE",
"1866 385 CURVE SMOOTH",
"1804.7 385 OFFCURVE",
"1755 434.696 OFFCURVE",
"1755 496 CURVE SMOOTH",
"1755 970 LINE SMOOTH",
"1755 1031.3 OFFCURVE",
"1804.7 1081 OFFCURVE",
"1866 1081 CURVE SMOOTH"
);
},
{
closed = 1;
nodes = (
"1707 1057 LINE",
"1707 337 LINE SMOOTH",
"1707 260.093 OFFCURVE",
"1651.91 205 OFFCURVE",
"1575 205 CURVE SMOOTH",
"1500 205 LINE",
"1500 -44 LINE SMOOTH",
"1500 -105 OFFCURVE",
"1450.3 -155 OFFCURVE",
"1389 -155 CURVE SMOOTH",
"1327.7 -155 OFFCURVE",
"1278 -105 OFFCURVE",
"1278 -44 CURVE SMOOTH",
"1278 205 LINE",
"1122 205 LINE",
"1122 -44 LINE SMOOTH",
"1122 -105 OFFCURVE",
"1072.3 -155 OFFCURVE",
"1011 -155 CURVE SMOOTH",
"949.696 -155 OFFCURVE",
"900 -105 OFFCURVE",
"900 -44 CURVE SMOOTH",
"900 205 LINE",
"831.002 205 LINE SMOOTH",
"754.104 205 OFFCURVE",
"699.002 260.093 OFFCURVE",
"699.002 337 CURVE",
"699 1057 LINE"
);
}
);
width = 2400;
}
);
unicode = E083;
},
{
glyphname = uniE084;
lastChange = "2014-02-02 01:27:58 -0800";
layers = (
{
layerId = "06D35582-4FA2-40C1-8C5B-DEFCD1A2473F";
name = Regular;
paths = (
{
closed = 1;
nodes = (
"836.742 1969 LINE SMOOTH",
"595.804 1969 OFFCURVE",
"475.34 1969 OFFCURVE",
"345.66 1928 CURVE",
"204.07 1876.46 OFFCURVE",
"92.539 1764.93 OFFCURVE",
"41.004 1623.34 CURVE",
"0 1493.66 OFFCURVE",
"0 1373.2 OFFCURVE",
"0 1132.26 CURVE SMOOTH",
"0 405.743 LINE SMOOTH",
"0 164.805 OFFCURVE",
"0 44.344 OFFCURVE",
"41.004 -85 CURVE",
"92.539 -227 OFFCURVE",
"204.07 -338 OFFCURVE",
"345.66 -390 CURVE",
"475.34 -431 OFFCURVE",
"595.804 -431 OFFCURVE",
"836.742 -431 CURVE SMOOTH",
"1563.26 -431 LINE SMOOTH",
"1804.2 -431 OFFCURVE",
"1924.66 -431 OFFCURVE",
"2054.34 -390 CURVE",
"2195.93 -338 OFFCURVE",
"2307.46 -227 OFFCURVE",
"2359 -85 CURVE",
"2400 44.344 OFFCURVE",
"2400 164.805 OFFCURVE",
"2400 405.743 CURVE SMOOTH",
"2400 1132.26 LINE SMOOTH",
"2400 1373.2 OFFCURVE",
"2400 1493.66 OFFCURVE",
"2359 1623.34 CURVE",
"2307.46 1764.93 OFFCURVE",
"2195.93 1876.46 OFFCURVE",
"2054.34 1928 CURVE",
"1924.66 1969 OFFCURVE",
"1804.2 1969 OFFCURVE",
"1563.26 1969 CURVE SMOOTH"
);
},
{
closed = 1;
nodes = (
"1539.6 1683.81 OFFCURVE",
"1544.56 1666.48 OFFCURVE",
"1536.94 1652.74 CURVE SMOOTH",
"1457.89 1510.12 LINE",
"1605.48 1430.85 OFFCURVE",
"1710 1286.74 OFFCURVE",
"1710 1114 CURVE",
"696 1113 LINE",
"696 1285.25 OFFCURVE",
"797.345 1430.01 OFFCURVE",
"942.497 1509.43 CURVE",
"863.062 1652.74 LINE SMOOTH",
"855.441 1666.48 OFFCURVE",
"860.403 1683.81 OFFCURVE",
"874.157 1691.43 CURVE SMOOTH",
"887.902 1699.05 OFFCURVE",
"905.227 1694.08 OFFCURVE",
"912.844 1680.33 CURVE SMOOTH",
"993.926 1534.06 LINE",
"1057.63 1560.45 OFFCURVE",
"1127.66 1575 OFFCURVE",
"1200 1575 CURVE SMOOTH",
"1272.02 1575 OFFCURVE",
"1342.17 1560.59 OFFCURVE",
"1406.28 1534.42 CURVE",
"1487.16 1680.33 LINE SMOOTH",
"1494.78 1694.08 OFFCURVE",
"1512.1 1699.05 OFFCURVE",
"1525.84 1691.43 CURVE SMOOTH"
);
},
{
closed = 1;
nodes = (
"948.865 1398 OFFCURVE",
"922 1371.14 OFFCURVE",
"922 1338 CURVE SMOOTH",
"922 1304.86 OFFCURVE",
"948.865 1278 OFFCURVE",
"982 1278 CURVE SMOOTH",
"1015.14 1278 OFFCURVE",
"1042 1304.86 OFFCURVE",
"1042 1338 CURVE SMOOTH",
"1042 1371.14 OFFCURVE",
"1015.14 1398 OFFCURVE",
"982 1398 CURVE SMOOTH"
);
},
{
closed = 1;
nodes = (
"1384.86 1398 OFFCURVE",
"1358 1371.14 OFFCURVE",
"1358 1338 CURVE SMOOTH",
"1358 1304.86 OFFCURVE",
"1384.86 1278 OFFCURVE",
"1418 1278 CURVE SMOOTH",
"1451.14 1278 OFFCURVE",
"1478 1304.86 OFFCURVE",
"1478 1338 CURVE SMOOTH",
"1478 1371.14 OFFCURVE",
"1451.14 1398 OFFCURVE",
"1418 1398 CURVE SMOOTH"
);
},
{
closed = 1;
nodes = (
"601.304 1081 OFFCURVE",
"651 1031.3 OFFCURVE",
"651 970 CURVE SMOOTH",
"651 496 LINE SMOOTH",
"651 434.696 OFFCURVE",
"601.304 385 OFFCURVE",
"540 385 CURVE SMOOTH",
"478.696 385 OFFCURVE",
"429 434.696 OFFCURVE",
"429 496 CURVE SMOOTH",
"429 970 LINE SMOOTH",
"429 1031.3 OFFCURVE",
"478.696 1081 OFFCURVE",
"540 1081 CURVE SMOOTH"
);
},
{
closed = 1;
nodes = (
"1927.3 1081 OFFCURVE",
"1977 1031.3 OFFCURVE",
"1977 970 CURVE SMOOTH",
"1977 496 LINE SMOOTH",
"1977 434.696 OFFCURVE",
"1927.3 385 OFFCURVE",
"1866 385 CURVE SMOOTH",
"1804.7 385 OFFCURVE",
"1755 434.696 OFFCURVE",
"1755 496 CURVE SMOOTH",
"1755 970 LINE SMOOTH",
"1755 1031.3 OFFCURVE",
"1804.7 1081 OFFCURVE",
"1866 1081 CURVE SMOOTH"
);
},
{
closed = 1;
nodes = (
"1707 1057 LINE",
"1707 337 LINE SMOOTH",
"1707 260.093 OFFCURVE",
"1651.91 205 OFFCURVE",
"1575 205 CURVE SMOOTH",
"1500 205 LINE",
"1500 -44 LINE SMOOTH",
"1500 -105 OFFCURVE",
"1450.3 -155 OFFCURVE",
"1389 -155 CURVE SMOOTH",
"1327.7 -155 OFFCURVE",
"1278 -105 OFFCURVE",
"1278 -44 CURVE SMOOTH",
"1278 205 LINE",
"1122 205 LINE",
"1122 -44 LINE SMOOTH",
"1122 -105 OFFCURVE",
"1072.3 -155 OFFCURVE",
"1011 -155 CURVE SMOOTH",
"949.696 -155 OFFCURVE",
"900 -105 OFFCURVE",
"900 -44 CURVE SMOOTH",
"900 205 LINE",
"831.002 205 LINE SMOOTH",
"754.104 205 OFFCURVE",
"699.002 260.093 OFFCURVE",
"699.002 337 CURVE",
"699 1057 LINE"
);
}
);
width = 2400;
}
);
unicode = E084;
},
{
glyphname = uniE085;
lastChange = "2014-02-02 01:27:58 -0800";
layers = (
{
layerId = "06D35582-4FA2-40C1-8C5B-DEFCD1A2473F";
name = Regular;
paths = (
{
closed = 1;
nodes = (
"537.258 1969 OFFCURVE",
"0 1431.74 OFFCURVE",
"0 769 CURVE SMOOTH",
"0 106.258 OFFCURVE",
"537.258 -431 OFFCURVE",
"1200 -431 CURVE SMOOTH",
"1862.74 -431 OFFCURVE",
"2400 106.258 OFFCURVE",
"2400 769 CURVE SMOOTH",
"2400 1431.74 OFFCURVE",
"1862.74 1969 OFFCURVE",
"1200 1969 CURVE SMOOTH"
);
},
{
closed = 1;
nodes = (
"1539.6 1683.81 OFFCURVE",
"1544.56 1666.48 OFFCURVE",
"1536.94 1652.74 CURVE SMOOTH",
"1457.89 1510.12 LINE",
"1605.48 1430.85 OFFCURVE",
"1710 1286.74 OFFCURVE",
"1710 1114 CURVE",
"696 1113 LINE",
"696 1285.25 OFFCURVE",
"797.345 1430.01 OFFCURVE",
"942.497 1509.43 CURVE",
"863.062 1652.74 LINE SMOOTH",
"855.441 1666.48 OFFCURVE",
"860.403 1683.81 OFFCURVE",
"874.157 1691.43 CURVE SMOOTH",
"887.902 1699.05 OFFCURVE",
"905.227 1694.08 OFFCURVE",
"912.844 1680.33 CURVE SMOOTH",
"993.926 1534.06 LINE",
"1057.63 1560.45 OFFCURVE",
"1127.66 1575 OFFCURVE",
"1200 1575 CURVE SMOOTH",
"1272.02 1575 OFFCURVE",
"1342.17 1560.59 OFFCURVE",
"1406.28 1534.42 CURVE",
"1487.16 1680.33 LINE SMOOTH",
"1494.78 1694.08 OFFCURVE",
"1512.1 1699.05 OFFCURVE",
"1525.84 1691.43 CURVE SMOOTH"
);
},
{
closed = 1;
nodes = (
"948.865 1398 OFFCURVE",
"922 1371.14 OFFCURVE",
"922 1338 CURVE SMOOTH",
"922 1304.86 OFFCURVE",
"948.865 1278 OFFCURVE",
"982 1278 CURVE SMOOTH",
"1015.14 1278 OFFCURVE",
"1042 1304.86 OFFCURVE",
"1042 1338 CURVE SMOOTH",
"1042 1371.14 OFFCURVE",
"1015.14 1398 OFFCURVE",
"982 1398 CURVE SMOOTH"
);
},
{
closed = 1;
nodes = (
"1384.86 1398 OFFCURVE",
"1358 1371.14 OFFCURVE",
"1358 1338 CURVE SMOOTH",
"1358 1304.86 OFFCURVE",
"1384.86 1278 OFFCURVE",
"1418 1278 CURVE SMOOTH",
"1451.14 1278 OFFCURVE",
"1478 1304.86 OFFCURVE",
"1478 1338 CURVE SMOOTH",
"1478 1371.14 OFFCURVE",
"1451.14 1398 OFFCURVE",
"1418 1398 CURVE SMOOTH"
);
},
{
closed = 1;
nodes = (
"601.304 1081 OFFCURVE",
"651 1031.3 OFFCURVE",
"651 970 CURVE SMOOTH",
"651 496 LINE SMOOTH",
"651 434.696 OFFCURVE",
"601.304 385 OFFCURVE",
"540 385 CURVE SMOOTH",
"478.696 385 OFFCURVE",
"429 434.696 OFFCURVE",
"429 496 CURVE SMOOTH",
"429 970 LINE SMOOTH",
"429 1031.3 OFFCURVE",
"478.696 1081 OFFCURVE",
"540 1081 CURVE SMOOTH"
);
},
{
closed = 1;
nodes = (
"1927.3 1081 OFFCURVE",
"1977 1031.3 OFFCURVE",
"1977 970 CURVE SMOOTH",
"1977 496 LINE SMOOTH",
"1977 434.696 OFFCURVE",
"1927.3 385 OFFCURVE",
"1866 385 CURVE SMOOTH",
"1804.7 385 OFFCURVE",
"1755 434.696 OFFCURVE",
"1755 496 CURVE SMOOTH",
"1755 970 LINE SMOOTH",
"1755 1031.3 OFFCURVE",
"1804.7 1081 OFFCURVE",
"1866 1081 CURVE SMOOTH"
);
},
{
closed = 1;
nodes = (
"1707 1057 LINE",
"1707 337 LINE SMOOTH",
"1707 260.093 OFFCURVE",
"1651.91 205 OFFCURVE",
"1575 205 CURVE SMOOTH",
"1500 205 LINE",
"1500 -44 LINE SMOOTH",
"1500 -105 OFFCURVE",
"1450.3 -155 OFFCURVE",
"1389 -155 CURVE SMOOTH",
"1327.7 -155 OFFCURVE",
"1278 -105 OFFCURVE",
"1278 -44 CURVE SMOOTH",
"1278 205 LINE",
"1122 205 LINE",
"1122 -44 LINE SMOOTH",
"1122 -105 OFFCURVE",
"1072.3 -155 OFFCURVE",
"1011 -155 CURVE SMOOTH",
"949.696 -155 OFFCURVE",
"900 -105 OFFCURVE",
"900 -44 CURVE SMOOTH",
"900 205 LINE",
"831.002 205 LINE SMOOTH",
"754.104 205 OFFCURVE",
"699.002 260.093 OFFCURVE",
"699.002 337 CURVE",
"699 1057 LINE"
);
}
);
width = 2400;
}
);
unicode = E085;
},
{
glyphname = uniE086;
lastChange = "2014-02-02 01:27:58 -0800";
layers = (
{
layerId = "06D35582-4FA2-40C1-8C5B-DEFCD1A2473F";
name = Regular;
paths = (
{
closed = 1;
nodes = (
"1512.1 1699.05 OFFCURVE",
"1494.78 1694.08 OFFCURVE",
"1487.16 1680.33 CURVE SMOOTH",
"1406.28 1534.42 LINE",
"1342.17 1560.59 OFFCURVE",
"1272.02 1575 OFFCURVE",
"1200 1575 CURVE SMOOTH",
"1127.66 1575 OFFCURVE",
"1057.63 1560.45 OFFCURVE",
"993.926 1534.06 CURVE",
"912.844 1680.33 LINE SMOOTH",
"905.227 1694.08 OFFCURVE",
"887.902 1699.05 OFFCURVE",
"874.157 1691.43 CURVE SMOOTH",
"860.403 1683.81 OFFCURVE",
"855.441 1666.48 OFFCURVE",
"863.062 1652.74 CURVE SMOOTH",
"942.497 1509.43 LINE",
"797.345 1430.01 OFFCURVE",
"696 1285.25 OFFCURVE",
"696 1113 CURVE",
"1710 1114 LINE",
"1710 1286.74 OFFCURVE",
"1605.48 1430.85 OFFCURVE",
"1457.89 1510.12 CURVE",
"1536.94 1652.74 LINE SMOOTH",
"1544.56 1666.48 OFFCURVE",
"1539.6 1683.81 OFFCURVE",
"1525.84 1691.43 CURVE SMOOTH"
);
},
{
closed = 1;
nodes = (
"1015.14 1398 OFFCURVE",
"1042 1371.14 OFFCURVE",
"1042 1338 CURVE SMOOTH",
"1042 1304.86 OFFCURVE",
"1015.14 1278 OFFCURVE",
"982 1278 CURVE SMOOTH",
"948.865 1278 OFFCURVE",
"922 1304.86 OFFCURVE",
"922 1338 CURVE SMOOTH",
"922 1371.14 OFFCURVE",
"948.865 1398 OFFCURVE",
"982 1398 CURVE SMOOTH"
);
},
{
closed = 1;
nodes = (
"1451.14 1398 OFFCURVE",
"1478 1371.14 OFFCURVE",
"1478 1338 CURVE SMOOTH",
"1478 1304.86 OFFCURVE",
"1451.14 1278 OFFCURVE",
"1418 1278 CURVE SMOOTH",
"1384.86 1278 OFFCURVE",
"1358 1304.86 OFFCURVE",
"1358 1338 CURVE SMOOTH",
"1358 1371.14 OFFCURVE",
"1384.86 1398 OFFCURVE",
"1418 1398 CURVE SMOOTH"
);
},
{
closed = 1;
nodes = (
"478.696 1081 OFFCURVE",
"429 1031.3 OFFCURVE",
"429 970 CURVE SMOOTH",
"429 496 LINE SMOOTH",
"429 434.696 OFFCURVE",
"478.696 385 OFFCURVE",
"540 385 CURVE SMOOTH",
"601.304 385 OFFCURVE",
"651 434.696 OFFCURVE",
"651 496 CURVE SMOOTH",
"651 970 LINE SMOOTH",
"651 1031.3 OFFCURVE",
"601.304 1081 OFFCURVE",
"540 1081 CURVE SMOOTH"
);
},
{
closed = 1;
nodes = (
"1804.7 1081 OFFCURVE",
"1755 1031.3 OFFCURVE",
"1755 970 CURVE SMOOTH",
"1755 496 LINE SMOOTH",
"1755 434.696 OFFCURVE",
"1804.7 385 OFFCURVE",
"1866 385 CURVE SMOOTH",
"1927.3 385 OFFCURVE",
"1977 434.696 OFFCURVE",
"1977 496 CURVE SMOOTH",
"1977 970 LINE SMOOTH",
"1977 1031.3 OFFCURVE",
"1927.3 1081 OFFCURVE",
"1866 1081 CURVE SMOOTH"
);
},
{
closed = 1;
nodes = (
"1707 1057 LINE",
"699 1057 LINE",
"699.002 337 LINE SMOOTH",
"699.002 260.093 OFFCURVE",
"754.104 205 OFFCURVE",
"831.002 205 CURVE SMOOTH",
"900 205 LINE",
"900 -44 LINE SMOOTH",
"900 -105 OFFCURVE",
"949.696 -155 OFFCURVE",
"1011 -155 CURVE SMOOTH",
"1072.3 -155 OFFCURVE",
"1122 -105 OFFCURVE",
"1122 -44 CURVE SMOOTH",
"1122 205 LINE",
"1278 205 LINE",
"1278 -44 LINE SMOOTH",
"1278 -105 OFFCURVE",
"1327.7 -155 OFFCURVE",
"1389 -155 CURVE SMOOTH",
"1450.3 -155 OFFCURVE",
"1500 -105 OFFCURVE",
"1500 -44 CURVE SMOOTH",
"1500 205 LINE",
"1575 205 LINE SMOOTH",
"1651.91 205 OFFCURVE",
"1707 260.093 OFFCURVE",
"1707 337 CURVE"
);
}
);
width = 2400;
}
);
unicode = E086;
},
{
glyphname = uniE087;
lastChange = "2014-02-02 01:27:58 -0800";
layers = (
{
layerId = "06D35582-4FA2-40C1-8C5B-DEFCD1A2473F";
name = Regular;
paths = (
{
closed = 1;
nodes = (
"1017.35 1402 OFFCURVE",
"1046 1373.35 OFFCURVE",
"1046 1338 CURVE SMOOTH",
"1046 1302.65 OFFCURVE",
"1017.35 1274 OFFCURVE",
"982 1274 CURVE SMOOTH",
"946.656 1274 OFFCURVE",
"918 1302.65 OFFCURVE",
"918 1338 CURVE SMOOTH",
"918 1373.35 OFFCURVE",
"946.656 1402 OFFCURVE",
"982 1402 CURVE SMOOTH"
);
},
{
closed = 1;
nodes = (
"1453.35 1402 OFFCURVE",
"1482 1373.35 OFFCURVE",
"1482 1338 CURVE SMOOTH",
"1482 1302.65 OFFCURVE",
"1453.35 1274 OFFCURVE",
"1418 1274 CURVE SMOOTH",
"1382.65 1274 OFFCURVE",
"1354 1302.65 OFFCURVE",
"1354 1338 CURVE SMOOTH",
"1354 1373.35 OFFCURVE",
"1382.65 1402 OFFCURVE",
"1418 1402 CURVE SMOOTH"
);
}
);
width = 2400;
}
);
unicode = E087;
},
{
glyphname = uniE088;
lastChange = "2014-02-02 01:27:46 -0800";
layers = (
{
layerId = "06D35582-4FA2-40C1-8C5B-DEFCD1A2473F";
name = Regular;
paths = (
{
closed = 1;
nodes = (
"136.742 537.723 OFFCURVE",
"36.836 504.307 OFFCURVE",
"16 393.68 CURVE SMOOTH",
"14 381.919 OFFCURVE",
"22 375.745 OFFCURVE",
"29.936 374.004 CURVE",
"121.117 364.12 LINE",
"129.655 364.554 OFFCURVE",
"135.83 372.947 OFFCURVE",
"137.467 381.432 CURVE SMOOTH",
"145.278 419.541 OFFCURVE",
"177.213 437.932 OFFCURVE",
"213.094 437.932 CURVE SMOOTH",
"232.439 437.932 OFFCURVE",
"254.447 430.794 OFFCURVE",
"265.905 413.48 CURVE SMOOTH",
"279.106 394.115 OFFCURVE",
"277.323 367.663 OFFCURVE",
"277.323 345.251 CURVE SMOOTH",
"277.323 333.035 LINE",
"222.782 326.912 OFFCURVE",
"151.475 322.838 OFFCURVE",
"100.435 300.428 CURVE SMOOTH",
"41.447 274.97 OFFCURVE",
"0 223.029 OFFCURVE",
"0 146.656 CURVE SMOOTH",
"0 48.895 OFFCURVE",
"61.704 0 OFFCURVE",
"140.918 0 CURVE SMOOTH",
"207.809 0 OFFCURVE",
"244.376 15.791 OFFCURVE",
"296.037 68.406 CURVE",
"313.111 43.673 OFFCURVE",
"318.707 31.675 OFFCURVE",
"349.978 5.699 CURVE",
"356.983 1.928 OFFCURVE",
"365.976 2.301 OFFCURVE",
"372.419 7.678 CURVE SMOOTH",
"391.195 24.402 OFFCURVE",
"425.346 54.056 OFFCURVE",
"444.577 70.167 CURVE SMOOTH",
"452.244 76.436 OFFCURVE",
"450.876 86.601 OFFCURVE",
"444.868 95.18 CURVE SMOOTH",
"427.688 118.928 OFFCURVE",
"409.368 138.262 OFFCURVE",
"409.368 182.371 CURVE SMOOTH",
"409.368 328.931 LINE SMOOTH",
"409.368 391.069 OFFCURVE",
"413.762 448.108 OFFCURVE",
"368.007 490.878 CURVE SMOOTH",
"331.907 525.528 OFFCURVE",
"272.06 537.723 OFFCURVE",
"226.285 537.723 CURVE SMOOTH"
);
},
{
closed = 1;
nodes = (
"1370.18 537.723 OFFCURVE",
"1270.27 504.307 OFFCURVE",
"1249.3 393.68 CURVE SMOOTH",
"1247.08 381.919 OFFCURVE",
"1255.64 375.745 OFFCURVE",
"1263.35 374.004 CURVE",
"1354.55 364.12 LINE",
"1363.07 364.554 OFFCURVE",
"1369.24 372.947 OFFCURVE",
"1370.88 381.432 CURVE SMOOTH",
"1378.73 419.541 OFFCURVE",
"1410.63 437.932 OFFCURVE",
"1446.51 437.932 CURVE SMOOTH",
"1465.87 437.932 OFFCURVE",
"1487.86 430.794 OFFCURVE",
"1499.32 413.48 CURVE SMOOTH",
"1512.53 394.115 OFFCURVE",
"1510.78 367.663 OFFCURVE",
"1510.78 345.251 CURVE SMOOTH",
"1510.78 333.035 LINE",
"1456.2 326.912 OFFCURVE",
"1384.89 322.838 OFFCURVE",
"1333.85 300.428 CURVE SMOOTH",
"1274.87 274.97 OFFCURVE",
"1233.51 223.029 OFFCURVE",
"1233.51 146.656 CURVE SMOOTH",
"1233.51 48.895 OFFCURVE",
"1295.13 0 OFFCURVE",
"1374.33 0 CURVE SMOOTH",
"1441.23 0 OFFCURVE",
"1477.81 15.791 OFFCURVE",
"1529.45 68.406 CURVE",
"1546.55 43.673 OFFCURVE",
"1552.14 31.675 OFFCURVE",
"1583.39 5.699 CURVE",
"1590.42 1.928 OFFCURVE",
"1599.39 2.301 OFFCURVE",
"1605.84 7.678 CURVE SMOOTH",
"1624.63 24.402 OFFCURVE",
"1658.78 54.056 OFFCURVE",
"1677.99 70.167 CURVE SMOOTH",
"1685.66 76.436 OFFCURVE",
"1684.31 86.601 OFFCURVE",
"1678.3 95.18 CURVE SMOOTH",
"1661.11 118.928 OFFCURVE",
"1642.78 138.262 OFFCURVE",
"1642.78 182.371 CURVE SMOOTH",
"1642.78 328.931 LINE SMOOTH",
"1642.78 391.069 OFFCURVE",
"1647.2 448.108 OFFCURVE",
"1601.42 490.878 CURVE SMOOTH",
"1565.32 525.528 OFFCURVE",
"1505.5 537.723 OFFCURVE",
"1459.7 537.723 CURVE SMOOTH"
);
},
{
closed = 1;
nodes = (
"708.833 533.061 OFFCURVE",
"665.802 504.598 OFFCURVE",
"642.976 443.631 CURVE",
"641.193 443.631 LINE",
"641.193 506.67 LINE",
"640.625 515.498 OFFCURVE",
"633.278 522.43 OFFCURVE",
"624.098 522.896 CURVE",
"536.482 522.865 LINE SMOOTH",
"526.431 522.865 OFFCURVE",
"518.33 515.156 OFFCURVE",
"518.33 505.49 CURVE SMOOTH",
"518.246 22.598 LINE",
"518.971 13.988 OFFCURVE",
"526.12 7.273 OFFCURVE",
"535.072 6.684 CURVE",
"629.174 6.684 LINE SMOOTH",
"639.194 6.684 OFFCURVE",
"647.327 14.423 OFFCURVE",
"647.327 24.058 CURVE SMOOTH",
"647.347 280.036 LINE SMOOTH",
"647.347 335.925 OFFCURVE",
"644.716 413.138 OFFCURVE",
"712.356 413.138 CURVE SMOOTH",
"779.084 413.138 OFFCURVE",
"770.306 333.883 OFFCURVE",
"770.306 280.036 CURVE SMOOTH",
"770.399 24.029 LINE SMOOTH",
"770.399 14.765 OFFCURVE",
"777.839 7.293 OFFCURVE",
"787.29 6.684 CURVE",
"881.276 6.684 LINE SMOOTH",
"891.295 6.684 OFFCURVE",
"899.419 14.423 OFFCURVE",
"899.419 24.058 CURVE SMOOTH",
"899.419 280.036 LINE SMOOTH",
"899.419 307.484 OFFCURVE",
"898.548 348.11 OFFCURVE",
"908.196 372.512 CURVE SMOOTH",
"917.863 396.901 OFFCURVE",
"941.581 412.144 OFFCURVE",
"964.427 412.144 CURVE SMOOTH",
"991.634 412.144 OFFCURVE",
"1012.71 402.995 OFFCURVE",
"1019.74 370.46 CURVE SMOOTH",
"1024.14 351.158 OFFCURVE",
"1022.39 300.334 OFFCURVE",
"1022.39 280.036 CURVE SMOOTH",
"1022.41 24.029 LINE SMOOTH",
"1022.41 14.765 OFFCURVE",
"1029.85 7.293 OFFCURVE",
"1039.3 6.684 CURVE",
"1133.25 6.684 LINE SMOOTH",
"1143.31 6.684 OFFCURVE",
"1151.41 14.423 OFFCURVE",
"1151.41 24.058 CURVE SMOOTH",
"1151.51 328.807 LINE SMOOTH",
"1151.51 380.634 OFFCURVE",
"1157.62 439.56 OFFCURVE",
"1127.77 480.218 CURVE SMOOTH",
"1101.42 516.803 OFFCURVE",
"1058.39 533.061 OFFCURVE",
"1018.86 533.061 CURVE SMOOTH",
"963.536 533.061 OFFCURVE",
"911.729 504.598 OFFCURVE",
"888.871 443.631 CURVE",
"862.533 504.598 OFFCURVE",
"825.636 533.061 OFFCURVE",
"766.794 533.061 CURVE SMOOTH"
);
},
{
closed = 1;
nodes = (
"2232 533.061 OFFCURVE",
"2156.47 416.195 OFFCURVE",
"2156.47 265.8 CURVE SMOOTH",
"2156.47 116.442 OFFCURVE",
"2231.13 -4 OFFCURVE",
"2368.15 -4 CURVE SMOOTH",
"2499.89 -4 OFFCURVE",
"2583.31 113.394 OFFCURVE",
"2583.31 260.712 CURVE SMOOTH",
"2583.31 413.138 OFFCURVE",
"2507.79 533.061 OFFCURVE",
"2368.15 533.061 CURVE SMOOTH"
);
},
{
closed = 1;
nodes = (
"2840.7 533.061 OFFCURVE",
"2803.84 501.573 OFFCURVE",
"2777.47 435.507 CURVE",
"2775.71 435.507 LINE",
"2775.71 509.375 LINE",
"2773.99 516.867 OFFCURVE",
"2767.21 522.461 OFFCURVE",
"2758.99 522.896 CURVE",
"2671.72 522.865 LINE SMOOTH",
"2662.24 522.865 OFFCURVE",
"2654.44 515.955 OFFCURVE",
"2653.64 507.105 CURVE",
"2653.8 24.029 LINE SMOOTH",
"2653.8 14.765 OFFCURVE",
"2661.26 7.293 OFFCURVE",
"2670.67 6.684 CURVE",
"2764.42 6.684 LINE SMOOTH",
"2774.45 6.684 OFFCURVE",
"2782.57 14.423 OFFCURVE",
"2782.74 24.058 CURVE SMOOTH",
"2782.74 284.078 LINE SMOOTH",
"2782.74 316.623 OFFCURVE",
"2784.5 346.07 OFFCURVE",
"2797.68 375.558 CURVE SMOOTH",
"2808.23 398.912 OFFCURVE",
"2829.3 414.165 OFFCURVE",
"2852.14 414.165 CURVE SMOOTH",
"2917.15 414.165 OFFCURVE",
"2910.99 336.919 OFFCURVE",
"2910.99 284.078 CURVE SMOOTH",
"2910.99 21.884 LINE",
"2912 13.646 OFFCURVE",
"2919.02 7.244 OFFCURVE",
"2927.74 6.684 CURVE",
"3022.05 6.684 LINE SMOOTH",
"3031.35 6.684 OFFCURVE",
"3039.04 13.334 OFFCURVE",
"3040.07 21.884 CURVE",
"3040.07 325.761 LINE SMOOTH",
"3040.07 372.512 OFFCURVE",
"3040.07 437.539 OFFCURVE",
"3015.5 476.145 CURVE SMOOTH",
"2989.15 517.829 OFFCURVE",
"2947.86 533.061 OFFCURVE",
"2905.71 533.061 CURVE SMOOTH"
);
},
{
closed = 1;
nodes = (
"1774.81 524.14 LINE SMOOTH",
"1765.25 524.169 OFFCURVE",
"1757.36 517.176 OFFCURVE",
"1757.3 506.67 CURVE SMOOTH",
"1757.3 437.664 LINE SMOOTH",
"1757.36 427.322 OFFCURVE",
"1765.3 420.287 OFFCURVE",
"1775.18 420.287 CURVE SMOOTH",
"1936.78 420.278 LINE",
"1751.18 153.991 LINE SMOOTH",
"1739.88 136.925 OFFCURVE",
"1739.66 117.777 OFFCURVE",
"1739.66 106.578 CURVE SMOOTH",
"1739.66 36.586 LINE SMOOTH",
"1739.66 26.421 OFFCURVE",
"1750.91 14.858 OFFCURVE",
"1761.67 20.579 CURVE SMOOTH",
"1866.94 76.498 OFFCURVE",
"1993.27 71.058 OFFCURVE",
"2088.45 21.2 CURVE SMOOTH",
"2100.11 15.077 OFFCURVE",
"2111.22 26.827 OFFCURVE",
"2111.22 36.959 CURVE SMOOTH",
"2111.22 110.596 LINE",
"2110.27 120.544 OFFCURVE",
"2106.99 130.677 OFFCURVE",
"2094.81 137.517 CURVE SMOOTH",
"2040.78 167.885 OFFCURVE",
"1977.87 176.805 OFFCURVE",
"1918.42 175.407 CURVE",
"2078.62 404.134 LINE SMOOTH",
"2093.44 424.702 OFFCURVE",
"2101.81 437.643 OFFCURVE",
"2101.89 447.58 CURVE SMOOTH",
"2101.89 506.763 LINE SMOOTH",
"2101.89 516.969 OFFCURVE",
"2093.96 524.169 OFFCURVE",
"2084.07 524.169 CURVE SMOOTH"
);
},
{
closed = 1;
nodes = (
"2398.86 434.472 OFFCURVE",
"2419.95 421.283 OFFCURVE",
"2430.49 387.742 CURVE SMOOTH",
"2442.8 349.115 OFFCURVE",
"2444.55 300.334 OFFCURVE",
"2444.55 259.698 CURVE SMOOTH",
"2444.55 197.726 OFFCURVE",
"2441.06 96.113 OFFCURVE",
"2368.15 96.113 CURVE SMOOTH",
"2294.37 96.113 OFFCURVE",
"2295.24 222.106 OFFCURVE",
"2295.24 281.042 CURVE SMOOTH",
"2295.24 339.997 OFFCURVE",
"2299.63 434.472 OFFCURVE",
"2369.01 434.472 CURVE SMOOTH"
);
},
{
closed = 1;
nodes = (
"277.323 237.296 LINE SMOOTH",
"277.323 200.617 OFFCURVE",
"278.214 170.091 OFFCURVE",
"259.73 137.485 CURVE SMOOTH",
"244.79 111.01 OFFCURVE",
"220.999 94.714 OFFCURVE",
"194.599 94.714 CURVE SMOOTH",
"158.52 94.714 OFFCURVE",
"137.383 122.223 OFFCURVE",
"137.383 162.963 CURVE SMOOTH",
"137.383 243.098 OFFCURVE",
"209.292 257.655 OFFCURVE",
"277.323 257.655 CURVE"
);
},
{
closed = 1;
nodes = (
"1510.78 237.296 LINE SMOOTH",
"1510.78 200.617 OFFCURVE",
"1511.65 170.091 OFFCURVE",
"1493.14 137.485 CURVE SMOOTH",
"1478.2 111.01 OFFCURVE",
"1454.41 94.714 OFFCURVE",
"1428.03 94.714 CURVE SMOOTH",
"1391.94 94.714 OFFCURVE",
"1370.82 122.223 OFFCURVE",
"1370.82 162.963 CURVE SMOOTH",
"1370.82 243.098 OFFCURVE",
"1442.71 257.655 OFFCURVE",
"1510.78 257.655 CURVE"
);
}
);
width = 3040;
}
);
unicode = E088;
},
{
glyphname = uniE089;
lastChange = "2014-02-02 01:27:46 -0800";
layers = (
{
layerId = "06D35582-4FA2-40C1-8C5B-DEFCD1A2473F";
name = Regular;
paths = (
{
closed = 1;
nodes = (
"2015.69 -13 OFFCURVE",
"1850.03 7.004 OFFCURVE",
"1748.9 -64 CURVE SMOOTH",
"1733.36 -75 OFFCURVE",
"1736.04 -90 OFFCURVE",
"1753.3 -88 CURVE SMOOTH",
"1810.24 -81 OFFCURVE",
"1936.96 -66 OFFCURVE",
"1959.57 -95 CURVE SMOOTH",
"1982.18 -124 OFFCURVE",
"1934.46 -243 OFFCURVE",
"1913.13 -296 CURVE SMOOTH",
"1906.67 -312 OFFCURVE",
"1920.53 -319 OFFCURVE",
"1935.1 -307 CURVE SMOOTH",
"2029.84 -227 OFFCURVE",
"2054.34 -61 OFFCURVE",
"2034.94 -37 CURVE SMOOTH"
);
},
{
closed = 1;
nodes = (
"433.138 -39 OFFCURVE",
"418.383 -59 OFFCURVE",
"434.919 -74 CURVE SMOOTH",
"645.526 -264 OFFCURVE",
"923.81 -378 OFFCURVE",
"1232.85 -378 CURVE SMOOTH",
"1453.36 -378 OFFCURVE",
"1709.43 -309 OFFCURVE",
"1886.07 -179 CURVE SMOOTH",
"1915.29 -157 OFFCURVE",
"1890.25 -125 OFFCURVE",
"1860.39 -137 CURVE SMOOTH",
"1662.37 -221 OFFCURVE",
"1447.18 -262 OFFCURVE",
"1251.41 -262 CURVE SMOOTH",
"961.213 -262 OFFCURVE",
"680.224 -182 OFFCURVE",
"453.01 -50 CURVE SMOOTH"
);
}
);
width = 3040;
}
);
unicode = E089;
},
{
glyphname = uniE08A;
lastChange = "2014-02-02 01:28:05 -0800";
layers = (
{
layerId = "06D35582-4FA2-40C1-8C5B-DEFCD1A2473F";
name = Regular;
paths = (
{
closed = 1;
nodes = (
"2400 1969 LINE",
"0 1969 LINE",
"0 -431 LINE",
"2400 -431 LINE"
);
},
{
closed = 1;
nodes = (
"1495.23 1712.55 OFFCURVE",
"1496.81 1705.29 OFFCURVE",
"1497.46 1698.98 CURVE SMOOTH",
"1498.07 1692.65 OFFCURVE",
"1498.39 1686.34 OFFCURVE",
"1498.39 1680.04 CURVE SMOOTH",
"1498.39 1639.62 OFFCURVE",
"1488.92 1595.4 OFFCURVE",
"1469.98 1547.43 CURVE SMOOTH",
"1451.04 1499.44 OFFCURVE",
"1421.04 1454.93 OFFCURVE",
"1380.01 1413.88 CURVE SMOOTH",
"1344.64 1379.15 OFFCURVE",
"1309.59 1355.79 OFFCURVE",
"1274.88 1343.79 CURVE SMOOTH",
"1252.76 1336.84 OFFCURVE",
"1219.3 1331.48 OFFCURVE",
"1174.48 1327.69 CURVE",
"1175.74 1423.67 OFFCURVE",
"1200.83 1506.7 OFFCURVE",
"1249.77 1576.8 CURVE SMOOTH",
"1298.7 1646.88 OFFCURVE",
"1379.68 1694.86 OFFCURVE",
"1492.72 1720.76 CURVE"
);
},
{
closed = 1;
nodes = (
"1586.49 1355.15 OFFCURVE",
"1655.62 1334.32 OFFCURVE",
"1716.24 1292.65 CURVE SMOOTH",
"1750.35 1268.64 OFFCURVE",
"1784.11 1236.13 OFFCURVE",
"1817.59 1195.1 CURVE",
"1767.06 1152.14 OFFCURVE",
"1730.14 1113.95 OFFCURVE",
"1706.76 1080.48 CURVE SMOOTH",
"1664.45 1019.86 OFFCURVE",
"1643.31 952.934 OFFCURVE",
"1643.31 879.695 CURVE SMOOTH",
"1643.31 799.498 OFFCURVE",
"1665.72 727.206 OFFCURVE",
"1710.56 662.8 CURVE SMOOTH",
"1755.39 598.394 OFFCURVE",
"1806.54 557.664 OFFCURVE",
"1864 540.618 CURVE",
"1840 462.952 OFFCURVE",
"1800.21 381.808 OFFCURVE",
"1744.65 297.205 CURVE SMOOTH",
"1660.67 169.977 OFFCURVE",
"1577.33 107.029 OFFCURVE",
"1494.62 107.029 CURVE SMOOTH",
"1461.78 107.029 OFFCURVE",
"1416.47 117.064 OFFCURVE",
"1358.69 138.048 CURVE SMOOTH",
"1300.93 159.03 OFFCURVE",
"1252.19 169.065 OFFCURVE",
"1212.52 169.065 CURVE SMOOTH",
"1172.84 169.065 OFFCURVE",
"1127.02 158.118 OFFCURVE",
"1075.05 136.222 CURVE SMOOTH",
"1023.06 115.241 OFFCURVE",
"980.887 104.293 OFFCURVE",
"948.54 104.293 CURVE SMOOTH",
"850.803 104.293 OFFCURVE",
"754.95 187.956 OFFCURVE",
"660.973 355.925 CURVE SMOOTH",
"566.986 521.985 OFFCURVE",
"520 684.894 OFFCURVE",
"520 844.652 CURVE SMOOTH",
"520 993.025 OFFCURVE",
"555.931 1113.95 OFFCURVE",
"627.827 1207.4 CURVE SMOOTH",
"699.721 1300.85 OFFCURVE",
"790.438 1347.58 OFFCURVE",
"899.979 1347.58 CURVE SMOOTH",
"946.659 1347.58 OFFCURVE",
"1003.14 1337.79 OFFCURVE",
"1069.44 1318.22 CURVE SMOOTH",
"1135.72 1298.64 OFFCURVE",
"1179.92 1288.86 OFFCURVE",
"1201.98 1288.86 CURVE SMOOTH",
"1230.38 1288.86 OFFCURVE",
"1276.77 1299.9 OFFCURVE",
"1341.18 1322.01 CURVE SMOOTH",
"1405.58 1344.11 OFFCURVE",
"1461.45 1355.15 OFFCURVE",
"1508.83 1355.15 CURVE SMOOTH"
);
}
);
width = 2400;
}
);
unicode = E08A;
},
{
glyphname = uniE08B;
lastChange = "2014-02-02 01:28:05 -0800";
layers = (
{
layerId = "06D35582-4FA2-40C1-8C5B-DEFCD1A2473F";
name = Regular;
paths = (
{
closed = 1;
nodes = (
"256 1969 LINE SMOOTH",
"114.615 1969 OFFCURVE",
"0 1854.39 OFFCURVE",
"0 1713 CURVE SMOOTH",
"0 -175 LINE SMOOTH",
"0 -316 OFFCURVE",
"114.615 -431 OFFCURVE",
"256 -431 CURVE SMOOTH",
"2144 -431 LINE SMOOTH",
"2285.38 -431 OFFCURVE",
"2400 -316 OFFCURVE",
"2400 -175 CURVE SMOOTH",
"2400 1713 LINE SMOOTH",
"2400 1854.39 OFFCURVE",
"2285.38 1969 OFFCURVE",
"2144 1969 CURVE SMOOTH"
);
},
{
closed = 1;
nodes = (
"1495.23 1712.55 OFFCURVE",
"1496.81 1705.29 OFFCURVE",
"1497.46 1698.98 CURVE SMOOTH",
"1498.07 1692.65 OFFCURVE",
"1498.39 1686.34 OFFCURVE",
"1498.39 1680.04 CURVE SMOOTH",
"1498.39 1639.62 OFFCURVE",
"1488.92 1595.4 OFFCURVE",
"1469.98 1547.43 CURVE SMOOTH",
"1451.04 1499.44 OFFCURVE",
"1421.04 1454.93 OFFCURVE",
"1380.01 1413.88 CURVE SMOOTH",
"1344.64 1379.15 OFFCURVE",
"1309.59 1355.79 OFFCURVE",
"1274.88 1343.79 CURVE SMOOTH",
"1252.76 1336.84 OFFCURVE",
"1219.3 1331.48 OFFCURVE",
"1174.48 1327.69 CURVE",
"1175.74 1423.67 OFFCURVE",
"1200.83 1506.7 OFFCURVE",
"1249.77 1576.8 CURVE SMOOTH",
"1298.7 1646.88 OFFCURVE",
"1379.68 1694.86 OFFCURVE",
"1492.72 1720.76 CURVE"
);
},
{
closed = 1;
nodes = (
"1586.49 1355.15 OFFCURVE",
"1655.62 1334.32 OFFCURVE",
"1716.24 1292.65 CURVE SMOOTH",
"1750.35 1268.64 OFFCURVE",
"1784.11 1236.13 OFFCURVE",
"1817.59 1195.1 CURVE",
"1767.06 1152.14 OFFCURVE",
"1730.14 1113.95 OFFCURVE",
"1706.76 1080.48 CURVE SMOOTH",
"1664.45 1019.86 OFFCURVE",
"1643.31 952.934 OFFCURVE",
"1643.31 879.695 CURVE SMOOTH",
"1643.31 799.498 OFFCURVE",
"1665.72 727.206 OFFCURVE",
"1710.56 662.8 CURVE SMOOTH",
"1755.39 598.394 OFFCURVE",
"1806.54 557.664 OFFCURVE",
"1864 540.618 CURVE",
"1840 462.952 OFFCURVE",
"1800.21 381.808 OFFCURVE",
"1744.65 297.205 CURVE SMOOTH",
"1660.67 169.977 OFFCURVE",
"1577.33 107.029 OFFCURVE",
"1494.62 107.029 CURVE SMOOTH",
"1461.78 107.029 OFFCURVE",
"1416.47 117.064 OFFCURVE",
"1358.69 138.048 CURVE SMOOTH",
"1300.93 159.03 OFFCURVE",
"1252.19 169.065 OFFCURVE",
"1212.52 169.065 CURVE SMOOTH",
"1172.84 169.065 OFFCURVE",
"1127.02 158.118 OFFCURVE",
"1075.05 136.222 CURVE SMOOTH",
"1023.06 115.241 OFFCURVE",
"980.887 104.293 OFFCURVE",
"948.54 104.293 CURVE SMOOTH",
"850.803 104.293 OFFCURVE",
"754.95 187.956 OFFCURVE",
"660.973 355.925 CURVE SMOOTH",
"566.986 521.985 OFFCURVE",
"520 684.894 OFFCURVE",
"520 844.652 CURVE SMOOTH",
"520 993.025 OFFCURVE",
"555.931 1113.95 OFFCURVE",
"627.827 1207.4 CURVE SMOOTH",
"699.721 1300.85 OFFCURVE",
"790.438 1347.58 OFFCURVE",
"899.979 1347.58 CURVE SMOOTH",
"946.659 1347.58 OFFCURVE",
"1003.14 1337.79 OFFCURVE",
"1069.44 1318.22 CURVE SMOOTH",
"1135.72 1298.64 OFFCURVE",
"1179.92 1288.86 OFFCURVE",
"1201.98 1288.86 CURVE SMOOTH",
"1230.38 1288.86 OFFCURVE",
"1276.77 1299.9 OFFCURVE",
"1341.18 1322.01 CURVE SMOOTH",
"1405.58 1344.11 OFFCURVE",
"1461.45 1355.15 OFFCURVE",
"1508.83 1355.15 CURVE SMOOTH"
);
}
);
width = 2400;
}
);
unicode = E08B;
},
{
glyphname = uniE08C;
lastChange = "2014-02-02 01:28:05 -0800";
layers = (
{
layerId = "06D35582-4FA2-40C1-8C5B-DEFCD1A2473F";
name = Regular;
paths = (
{
closed = 1;
nodes = (
"352 1969 LINE SMOOTH",
"157.596 1969 OFFCURVE",
"0 1811.4 OFFCURVE",
"0 1617 CURVE SMOOTH",
"0 -79 LINE SMOOTH",
"0 -273 OFFCURVE",
"157.596 -431 OFFCURVE",
"352 -431 CURVE SMOOTH",
"2048 -431 LINE SMOOTH",
"2242.4 -431 OFFCURVE",
"2400 -273 OFFCURVE",
"2400 -79 CURVE SMOOTH",
"2400 1617 LINE SMOOTH",
"2400 1811.4 OFFCURVE",
"2242.4 1969 OFFCURVE",
"2048 1969 CURVE SMOOTH"
);
},
{
closed = 1;
nodes = (
"1495.23 1712.55 OFFCURVE",
"1496.81 1705.29 OFFCURVE",
"1497.46 1698.98 CURVE SMOOTH",
"1498.07 1692.65 OFFCURVE",
"1498.39 1686.34 OFFCURVE",
"1498.39 1680.04 CURVE SMOOTH",
"1498.39 1639.62 OFFCURVE",
"1488.92 1595.4 OFFCURVE",
"1469.98 1547.43 CURVE SMOOTH",
"1451.04 1499.44 OFFCURVE",
"1421.04 1454.93 OFFCURVE",
"1380.01 1413.88 CURVE SMOOTH",
"1344.64 1379.15 OFFCURVE",
"1309.59 1355.79 OFFCURVE",
"1274.88 1343.79 CURVE SMOOTH",
"1252.76 1336.84 OFFCURVE",
"1219.3 1331.48 OFFCURVE",
"1174.48 1327.69 CURVE",
"1175.74 1423.67 OFFCURVE",
"1200.83 1506.7 OFFCURVE",
"1249.77 1576.8 CURVE SMOOTH",
"1298.7 1646.88 OFFCURVE",
"1379.68 1694.86 OFFCURVE",
"1492.72 1720.76 CURVE"
);
},
{
closed = 1;
nodes = (
"1586.49 1355.15 OFFCURVE",
"1655.62 1334.32 OFFCURVE",
"1716.24 1292.65 CURVE SMOOTH",
"1750.35 1268.64 OFFCURVE",
"1784.11 1236.13 OFFCURVE",
"1817.59 1195.1 CURVE",
"1767.06 1152.14 OFFCURVE",
"1730.14 1113.95 OFFCURVE",
"1706.76 1080.48 CURVE SMOOTH",
"1664.45 1019.86 OFFCURVE",
"1643.31 952.934 OFFCURVE",
"1643.31 879.695 CURVE SMOOTH",
"1643.31 799.498 OFFCURVE",
"1665.72 727.206 OFFCURVE",
"1710.56 662.8 CURVE SMOOTH",
"1755.39 598.394 OFFCURVE",
"1806.54 557.664 OFFCURVE",
"1864 540.618 CURVE",
"1840 462.952 OFFCURVE",
"1800.21 381.808 OFFCURVE",
"1744.65 297.205 CURVE SMOOTH",
"1660.67 169.977 OFFCURVE",
"1577.33 107.029 OFFCURVE",
"1494.62 107.029 CURVE SMOOTH",
"1461.78 107.029 OFFCURVE",
"1416.47 117.064 OFFCURVE",
"1358.69 138.048 CURVE SMOOTH",
"1300.93 159.03 OFFCURVE",
"1252.19 169.065 OFFCURVE",
"1212.52 169.065 CURVE SMOOTH",
"1172.84 169.065 OFFCURVE",
"1127.02 158.118 OFFCURVE",
"1075.05 136.222 CURVE SMOOTH",
"1023.06 115.241 OFFCURVE",
"980.887 104.293 OFFCURVE",
"948.54 104.293 CURVE SMOOTH",
"850.803 104.293 OFFCURVE",
"754.95 187.956 OFFCURVE",
"660.973 355.925 CURVE SMOOTH",
"566.986 521.985 OFFCURVE",
"520 684.894 OFFCURVE",
"520 844.652 CURVE SMOOTH",
"520 993.025 OFFCURVE",
"555.931 1113.95 OFFCURVE",
"627.827 1207.4 CURVE SMOOTH",
"699.721 1300.85 OFFCURVE",
"790.438 1347.58 OFFCURVE",
"899.979 1347.58 CURVE SMOOTH",
"946.659 1347.58 OFFCURVE",
"1003.14 1337.79 OFFCURVE",
"1069.44 1318.22 CURVE SMOOTH",
"1135.72 1298.64 OFFCURVE",
"1179.92 1288.86 OFFCURVE",
"1201.98 1288.86 CURVE SMOOTH",
"1230.38 1288.86 OFFCURVE",
"1276.77 1299.9 OFFCURVE",
"1341.18 1322.01 CURVE SMOOTH",
"1405.58 1344.11 OFFCURVE",
"1461.45 1355.15 OFFCURVE",
"1508.83 1355.15 CURVE SMOOTH"
);
}
);
width = 2400;
}
);
unicode = E08C;
},
